<svg width="74" height="72" viewBox="0 0 74 72" fill="none" xmlns="http://www.w3.org/2000/svg">
<path fill-rule="evenodd" clip-rule="evenodd" d="M46.9667 17.3026C47.3519 17.6985 47.3432 18.3316 46.9474 18.7167L29.184 36L46.9474 53.2833C47.3432 53.6684 47.3519 54.3015 46.9667 54.6974C46.5816 55.0932 45.9485 55.1019 45.5526 54.7167L27.0526 36.7167C26.8592 36.5285 26.75 36.27 26.75 36C26.75 35.73 26.8592 35.4715 27.0526 35.2833L45.5526 17.2833C45.9485 16.8981 46.5816 16.9068 46.9667 17.3026Z" fill="#B7B7B7"/>
<path d="M46.9474 18.7167L47.9934 19.7918L47.9934 19.7918L46.9474 18.7167ZM46.9667 17.3026L48.0418 16.2566L48.0418 16.2566L46.9667 17.3026ZM29.184 36L28.138 34.9249C27.8477 35.2073 27.684 35.5951 27.684 36C27.684 36.405 27.8477 36.7927 28.138 37.0751L29.184 36ZM46.9474 53.2833L45.9013 54.3584L45.9013 54.3584L46.9474 53.2833ZM46.9667 54.6974L45.8916 53.6513L45.8916 53.6513L46.9667 54.6974ZM45.5526 54.7167L46.5987 53.6416L46.5987 53.6416L45.5526 54.7167ZM27.0526 36.7167L26.0066 37.7918L26.0066 37.7918L27.0526 36.7167ZM27.0526 35.2833L26.0066 34.2082L26.0066 34.2082L27.0526 35.2833ZM45.5526 17.2833L46.5987 18.3584L46.5987 18.3584L45.5526 17.2833ZM47.9934 19.7918C48.983 18.829 49.0047 17.2462 48.0418 16.2566L45.8916 18.3487C45.6991 18.1508 45.7034 17.8342 45.9013 17.6416L47.9934 19.7918ZM30.23 37.0751L47.9934 19.7918L45.9013 17.6416L28.138 34.9249L30.23 37.0751ZM47.9934 52.2082L30.23 34.9249L28.138 37.0751L45.9013 54.3584L47.9934 52.2082ZM48.0418 55.7434C49.0047 54.7538 48.983 53.171 47.9934 52.2082L45.9013 54.3584C45.7034 54.1658 45.6991 53.8492 45.8916 53.6513L48.0418 55.7434ZM44.5066 55.7918C45.4962 56.7547 47.079 56.733 48.0418 55.7434L45.8916 53.6513C46.0842 53.4534 46.4008 53.4491 46.5987 53.6416L44.5066 55.7918ZM26.0066 37.7918L44.5066 55.7918L46.5987 53.6416L28.0987 35.6416L26.0066 37.7918ZM25.25 36C25.25 36.6749 25.5229 37.3212 26.0066 37.7918L28.0987 35.6416C28.1954 35.7358 28.25 35.865 28.25 36H25.25ZM26.0066 34.2082C25.5229 34.6788 25.25 35.3251 25.25 36H28.25C28.25 36.135 28.1954 36.2642 28.0987 36.3584L26.0066 34.2082ZM44.5066 16.2082L26.0066 34.2082L28.0987 36.3584L46.5987 18.3584L44.5066 16.2082ZM48.0418 16.2566C47.079 15.267 45.4962 15.2453 44.5066 16.2082L46.5987 18.3584C46.4008 18.5509 46.0842 18.5466 45.8916 18.3487L48.0418 16.2566Z" fill="black"/>
</svg>
