<svg width="72" height="72" viewBox="0 0 72 72" fill="none" xmlns="http://www.w3.org/2000/svg">
<path fill-rule="evenodd" clip-rule="evenodd" d="M26.2929 17.2929C26.6834 16.9024 27.3166 16.9024 27.7071 17.2929L45.7071 35.2929C46.0976 35.6834 46.0976 36.3166 45.7071 36.7071L27.7071 54.7071C27.3166 55.0976 26.6834 55.0976 26.2929 54.7071C25.9024 54.3166 25.9024 53.6834 26.2929 53.2929L43.5858 36L26.2929 18.7071C25.9024 18.3166 25.9024 17.6834 26.2929 17.2929Z" fill="black"/>
<path d="M27.7071 17.2929L26.6464 18.3536L26.6464 18.3536L27.7071 17.2929ZM26.2929 17.2929L27.3536 18.3536L27.3536 18.3536L26.2929 17.2929ZM45.7071 35.2929L46.7678 34.2322L46.7678 34.2322L45.7071 35.2929ZM45.7071 36.7071L46.7678 37.7678L46.7678 37.7678L45.7071 36.7071ZM27.7071 54.7071L28.7678 55.7678L28.7678 55.7678L27.7071 54.7071ZM26.2929 54.7071L25.2322 55.7678L25.2322 55.7678L26.2929 54.7071ZM26.2929 53.2929L25.2322 52.2322L25.2322 52.2322L26.2929 53.2929ZM43.5858 36L44.6464 37.0607C45.2322 36.4749 45.2322 35.5251 44.6464 34.9393L43.5858 36ZM26.2929 18.7071L27.3536 17.6464L27.3536 17.6464L26.2929 18.7071ZM28.7678 16.2322C27.7915 15.2559 26.2085 15.2559 25.2322 16.2322L27.3536 18.3536C27.1583 18.5488 26.8417 18.5488 26.6464 18.3536L28.7678 16.2322ZM46.7678 34.2322L28.7678 16.2322L26.6464 18.3536L44.6464 36.3536L46.7678 34.2322ZM46.7678 37.7678C47.7441 36.7915 47.7441 35.2085 46.7678 34.2322L44.6464 36.3536C44.4512 36.1583 44.4512 35.8417 44.6464 35.6464L46.7678 37.7678ZM28.7678 55.7678L46.7678 37.7678L44.6464 35.6464L26.6464 53.6464L28.7678 55.7678ZM25.2322 55.7678C26.2085 56.7441 27.7915 56.7441 28.7678 55.7678L26.6464 53.6464C26.8417 53.4512 27.1583 53.4512 27.3536 53.6464L25.2322 55.7678ZM25.2322 52.2322C24.2559 53.2085 24.2559 54.7915 25.2322 55.7678L27.3536 53.6464C27.5488 53.8417 27.5488 54.1583 27.3536 54.3536L25.2322 52.2322ZM42.5251 34.9393L25.2322 52.2322L27.3536 54.3536L44.6464 37.0607L42.5251 34.9393ZM25.2322 19.7678L42.5251 37.0607L44.6464 34.9393L27.3536 17.6464L25.2322 19.7678ZM25.2322 16.2322C24.2559 17.2085 24.2559 18.7915 25.2322 19.7678L27.3536 17.6464C27.5488 17.8417 27.5488 18.1583 27.3536 18.3536L25.2322 16.2322Z" fill="black"/>
</svg>
