<svg width="612" height="380" viewBox="0 0 612 380" fill="none" xmlns="http://www.w3.org/2000/svg">
<path d="M307.359 423.482C462.588 423.482 588.426 359.793 588.426 281.229C588.426 202.665 462.588 138.976 307.359 138.976C152.13 138.976 26.2915 202.665 26.2915 281.229C26.2915 359.793 152.13 423.482 307.359 423.482Z" fill="#ACD2A1"/>
<path opacity="0.1" d="M435.744 315.758C414.936 324.717 414.936 339.234 435.744 348.181C456.552 357.129 489.967 357.141 510.653 348.181C531.339 339.222 531.351 324.717 510.653 315.758C489.955 306.798 456.369 306.81 435.744 315.758Z" fill="black"/>
<path opacity="0.1" d="M299.415 300.201C292.597 304.13 292.597 310.519 299.415 314.46C306.233 318.402 317.298 318.402 324.128 314.46C330.957 310.519 330.945 304.13 324.128 300.201C317.31 296.272 306.233 296.259 299.415 300.201Z" fill="black"/>
<path opacity="0.1" d="M387.58 277.459C412.761 277.459 433.174 265.671 433.174 251.13C433.174 236.59 412.761 224.802 387.58 224.802C362.399 224.802 341.986 236.59 341.986 251.13C341.986 265.671 362.399 277.459 387.58 277.459Z" fill="black"/>
<path opacity="0.1" d="M289.562 209.674L126.855 303.616C125.926 304.087 124.899 304.332 123.857 304.332C122.815 304.332 121.787 304.087 120.858 303.616L70.6739 274.607C69.0215 273.652 69.0215 272.098 70.6739 271.143L233.392 177.213C234.318 176.736 235.344 176.488 236.385 176.488C237.426 176.488 238.452 176.736 239.378 177.213L289.562 206.21C291.214 207.164 291.214 208.768 289.562 209.674Z" fill="black"/>
<path d="M313.767 299.201C323.382 295.23 327.957 284.216 323.985 274.601C320.014 264.986 309 260.411 299.385 264.383C289.77 268.354 285.195 279.368 289.167 288.983C293.138 298.598 304.152 303.172 313.767 299.201Z" fill="#F5F5F5"/>
<path d="M312.316 273.493C309.658 273.7 307.067 274.428 304.69 275.635C304.459 278.18 304.459 280.74 304.69 283.285C306.842 284.383 309.137 285.174 311.508 285.635C311.508 285.635 315.18 282.624 316.123 279.919C315.386 277.503 314.081 275.3 312.316 273.493Z" fill="#455A64"/>
<path d="M299.623 272.416L299.097 271.351L298.987 271.51L298.901 271.62L299.403 272.624L304.605 275.757L305.168 276.174L305.229 276.063C305.268 276.016 305.313 275.975 305.364 275.941L304.764 275.513L299.623 272.416Z" fill="#455A64"/>
<path d="M310.431 265.072C310.003 265.072 309.525 264.974 308.999 264.937C306.238 264.748 303.49 265.456 301.165 266.957L300.113 267.569C300.151 267.661 300.184 267.755 300.211 267.85L301.337 267.202C303.603 265.727 306.29 265.035 308.987 265.231C309.648 265.231 310.211 265.341 310.762 265.415C310.625 265.329 310.512 265.211 310.431 265.072Z" fill="#455A64"/>
<path d="M314.14 267.594L313.883 268.426L312.169 273.444L311.765 274.509C311.862 274.52 311.957 274.545 312.047 274.583L312.451 273.542L314.164 268.524L314.421 267.679C314.324 267.664 314.229 267.635 314.14 267.594Z" fill="#455A64"/>
<path d="M323.258 280.078C323.068 280.238 322.868 280.385 322.659 280.519C320.499 280.149 318.321 279.9 316.135 279.772H316.025C315.894 279.766 315.763 279.766 315.633 279.772C315.639 279.87 315.639 279.968 315.633 280.066C315.8 280.048 315.968 280.048 316.135 280.066C318.325 280.198 320.507 280.447 322.671 280.813C322.878 280.691 323.071 280.548 323.246 280.384C323.244 280.282 323.248 280.18 323.258 280.078Z" fill="#455A64"/>
<path d="M320.517 269.564C322.411 271.189 323.86 273.27 324.727 275.611C324.798 275.838 324.848 276.072 324.874 276.308C324.964 276.261 325.058 276.224 325.156 276.198C325.129 275.97 325.08 275.744 325.009 275.525C324.121 273.156 322.647 271.05 320.725 269.405L320.358 269.05C320.113 268.817 319.88 268.609 319.648 268.426C319.652 268.471 319.652 268.516 319.648 268.56L319.538 268.658C319.758 268.83 319.978 269.026 320.223 269.258C320.468 269.491 320.382 269.429 320.517 269.564Z" fill="#455A64"/>
<path d="M311.667 285.635C311.763 285.287 311.878 284.943 312.01 284.607C311.899 284.664 311.779 284.701 311.655 284.717C311.484 285.207 311.386 285.537 311.374 285.598L313.234 292.636L314.58 293.554H314.654C314.752 293.517 314.855 293.492 314.96 293.481C314.409 293.114 313.846 292.734 313.454 292.453L311.667 285.635Z" fill="#455A64"/>
<path d="M324.764 286.59C324.629 286.945 324.47 287.312 324.299 287.679C323.158 289.877 321.594 291.828 319.697 293.42C319.427 293.554 318.962 293.799 318.473 294.007C318.562 294.068 318.64 294.142 318.705 294.228C319.268 293.971 319.746 293.726 319.868 293.665C321.819 292.049 323.422 290.054 324.58 287.802C324.74 287.459 324.886 287.116 325.021 286.786C324.927 286.732 324.841 286.666 324.764 286.59Z" fill="#455A64"/>
<path d="M305.51 282.649L304.617 283.163C302.621 284.494 300.745 285.997 299.011 287.655C298.937 287.777 298.693 288.193 298.423 288.744L298.631 289.013C298.852 288.536 299.084 288.108 299.243 287.789C300.968 286.191 302.818 284.734 304.776 283.432C305.143 283.212 305.474 283.04 305.755 282.893C305.663 282.823 305.581 282.741 305.51 282.649Z" fill="#455A64"/>
<path d="M309.672 296.774C309.17 296.774 308.607 296.774 307.983 296.676C305.462 296.491 303.044 295.6 301.006 294.105C301.006 294.105 300.602 294.007 300.1 293.824C300.106 293.926 300.106 294.028 300.1 294.13C300.516 294.264 300.847 294.35 300.945 294.375C303.026 295.89 305.489 296.797 308.056 296.994C308.631 296.994 309.158 297.067 309.635 297.08C309.623 296.976 309.636 296.871 309.672 296.774Z" fill="#455A64"/>
<path d="M293.613 285.354C293.71 285.329 293.811 285.329 293.907 285.354C293.819 285.023 293.749 284.688 293.699 284.35C293.498 281.86 293.622 279.354 294.066 276.896C294.149 276.445 294.259 275.999 294.397 275.562C294.328 275.574 294.257 275.574 294.189 275.562H294.091C293.964 275.964 293.858 276.373 293.772 276.786C293.327 279.277 293.207 281.816 293.417 284.338C293.456 284.681 293.521 285.021 293.613 285.354Z" fill="#455A64"/>
<path d="M308.986 265.072C310.882 265.833 312.599 266.979 314.029 268.438C316.127 268.283 318.236 268.498 320.259 269.074C320.197 268.451 320.086 267.833 319.929 267.226C317.157 265.275 313.909 264.108 310.529 263.848C309.991 264.225 309.476 264.634 308.986 265.072Z" fill="#455A64"/>
<path d="M327.346 278.083C326.635 277.151 325.813 276.309 324.898 275.574C324.354 277.347 323.624 279.058 322.72 280.678C323.477 282.986 324.062 285.346 324.47 287.741C325.502 287.531 326.514 287.232 327.493 286.847C327.804 285.49 327.96 284.102 327.958 282.71C327.943 281.149 327.737 279.595 327.346 278.083Z" fill="#455A64"/>
<path d="M296.428 295.488C297.991 295.38 299.518 294.964 300.92 294.264C300.92 294.264 299.966 291.4 299.109 287.802C297.159 286.834 295.3 285.696 293.552 284.399C293.552 284.399 292.328 285.623 292.095 289.54C293.141 291.784 294.613 293.804 296.428 295.488Z" fill="#455A64"/>
<path d="M292.414 273.567C292.647 274.764 293.163 275.889 293.919 276.847C295.354 274.923 297.289 273.429 299.513 272.526C299.958 270.68 300.535 268.868 301.239 267.104C300.308 266.996 299.371 266.959 298.436 266.994C295.939 268.681 293.876 270.933 292.414 273.567Z" fill="#455A64"/>
<path d="M319.758 293.542C317.59 293.475 315.438 293.154 313.344 292.588C311.708 294.181 309.911 295.6 307.983 296.823C308.69 298.283 309.72 299.564 310.994 300.568C313.419 300.313 315.781 299.634 317.971 298.561C318.875 297.014 319.481 295.312 319.758 293.542Z" fill="#455A64"/>
<path opacity="0.1" d="M325.29 292.331C322.12 296.835 309.917 299.675 302.132 289.564C294.348 279.454 298.84 267.851 304.507 264.325C301.477 265.07 298.678 266.553 296.36 268.642C294.041 270.73 292.276 273.359 291.219 276.295C290.163 279.231 289.849 282.383 290.306 285.47C290.762 288.556 291.975 291.482 293.836 293.987C295.697 296.491 298.148 298.497 300.972 299.825C303.795 301.153 306.903 301.762 310.019 301.598C313.135 301.434 316.162 300.502 318.831 298.885C321.5 297.268 323.727 295.017 325.315 292.331H325.29Z" fill="black"/>
<path d="M419.404 296.688C419.404 300.213 411.35 315.048 408.596 315.452C403.308 316.321 398.18 316.027 394.838 318.022C392.28 319.552 388.204 323.457 389.587 325.734C390.97 328.01 392.721 327.876 394.912 326.958C397.69 325.868 399.391 324.179 400.958 324.155C402.525 324.13 411.68 324.95 415.487 323.322C419.294 321.694 426.785 314.595 427.727 311.988C428.67 309.381 419.404 296.688 419.404 296.688Z" fill="#37474F"/>
<path d="M499.221 305.109C498.156 301.18 484.178 301.878 482.158 298.377L467.409 304.62C468.587 306.771 470.266 308.606 472.305 309.968C474.753 311.67 476.577 311.376 479 311.498C481.424 311.621 489.551 309.968 491.24 311.058C493.272 312.368 493.052 312.392 493.529 314.73L494.043 317.178C494.173 318.311 494.595 319.391 495.267 320.311C495.692 320.782 496.272 321.084 496.901 321.162C497.53 321.241 498.167 321.091 498.695 320.74C498.891 320.619 499.075 320.479 499.245 320.324C500.396 319.038 501.01 317.36 500.959 315.636C500.807 312.069 500.223 308.535 499.221 305.109Z" fill="#37474F"/>
<path d="M475.549 279.638C479.894 271.425 488.915 268.303 491.461 263.322C494.925 256.406 490.237 251.253 490.237 249.013C490.237 246.773 494.802 248.193 496.504 255.586C497.728 261.119 496.234 266.064 492.452 270.396C488.976 274.399 481.706 279.613 480.934 284.252L475.549 279.638Z" fill="#37474F"/>
<path d="M515.794 305.024C514.888 301.07 500.897 301.205 499.025 297.68C492.905 279.699 491.277 278.597 484.606 275.758C477.409 272.685 467.788 275.758 460.995 280.054C455.683 283.457 443.027 288.5 438.584 285.77C427.629 286.994 414.214 290.666 417.776 297.508C421.337 304.35 421.448 307.778 427.653 314.534C437.555 325.366 456.197 322.943 466.013 313.457C470.824 308.806 479.074 305.403 484.031 303.873C485.396 305.717 486.978 307.389 488.743 308.855C491.081 310.654 492.941 310.434 495.365 310.654C497.788 310.874 505.965 309.552 507.605 310.715C509.588 312.098 509.368 312.11 509.747 314.473L510.151 316.921C510.239 318.058 510.619 319.154 511.253 320.103C511.659 320.592 512.228 320.918 512.855 321.021C513.482 321.125 514.126 320.999 514.667 320.666C514.87 320.558 515.059 320.427 515.231 320.275C516.436 319.04 517.116 317.386 517.128 315.66C517.119 312.073 516.671 308.501 515.794 305.024Z" fill="#455A64"/>
<path d="M434.288 307.141C431.191 302.979 429.894 296.48 429.331 293.848L421.056 292.367L417.384 296.492C417.534 296.806 417.665 297.129 417.776 297.459C419.51 304.24 422.919 310.478 427.69 315.599C435.867 324.558 455.292 322.943 461.375 316.97C450.628 319.271 438.768 313.175 434.288 307.141Z" fill="#F5F5F5"/>
<path d="M411.558 264.974C407.249 264.399 402.464 267.948 401.705 269.319C400.946 270.69 403.382 276.039 403.382 276.039L411.558 264.974Z" fill="#263238"/>
<path d="M429.894 296.48C427.945 297.207 425.867 297.519 423.791 297.397C421.715 297.275 419.687 296.721 417.837 295.77C417.396 295.612 417.036 295.287 416.834 294.864C416.895 293.873 416.038 291.829 414.484 292.294C412.389 293.108 410.345 294.048 408.364 295.109C408.039 295.285 407.704 295.44 407.36 295.574C403.174 297.275 400.212 295.721 399.281 293.958C394.875 293.579 392.305 289.344 391.937 288.573C390.836 286.247 396.515 282.734 399.037 280.543C401.558 278.352 400.909 277.924 400.689 275.549C400.567 274.179 402.978 271.302 404.116 269.98C407.788 265.721 412.684 262.93 418.902 264.803C425.12 266.675 429.208 270.788 433.651 278.157C435.744 281.633 435.867 283.31 437.421 284.938" fill="#455A64"/>
<path opacity="0.1" d="M431.766 298.034C437.225 294.362 437.262 292.477 437.886 288.512L424.214 295.574L419.685 295.513C419.11 295.843 418.547 296.211 417.984 296.59C417.911 296.884 417.825 297.153 417.751 297.459C417.935 298.304 418.155 299.381 418.461 300.629C420.74 301.1 423.09 301.113 425.374 300.667C427.658 300.222 429.831 299.327 431.766 298.034Z" fill="black"/>
<path d="M399.024 280.568C399.723 280.063 400.513 279.697 401.35 279.491C401.853 279.358 402.384 279.366 402.883 279.515C403.382 279.664 403.83 279.948 404.177 280.335C404.688 281.273 404.885 282.35 404.74 283.408C404.74 284.632 404.41 286.247 404.936 287.349C405.733 288.43 406.851 289.231 408.131 289.638C412.452 291.192 415.818 289.014 419.6 287.814C421.742 287.141 424.643 286.333 426.675 287.581C428.706 288.83 429.698 292.735 429.123 294.534C424.324 297.092 418.204 297.631 416.785 294.864C416.721 294.591 416.643 294.322 416.552 294.056C416.442 293.775 415.695 292.159 414.288 292.539C412.432 293.191 410.632 293.99 408.902 294.925C408.397 295.196 407.878 295.441 407.348 295.66C403.161 297.361 400.187 295.721 399.257 293.959C394.851 293.579 392.28 289.344 391.913 288.573C390.885 286.26 396.576 282.759 399.024 280.568Z" fill="#F5F5F5"/>
<path d="M416.833 294.864C420.322 296.835 427.409 296.211 431.117 292.832C434.153 290.066 435.867 287.545 436.466 283.579C436.969 283.732 437.426 284.008 437.796 284.382C438.165 284.756 438.436 285.216 438.584 285.721C438.278 287.985 437.837 289.76 434.777 293.212C430.824 297.679 422.953 300.556 417.788 297.459C417.409 297.153 417.12 296.75 416.952 296.293C416.784 295.837 416.743 295.343 416.833 294.864Z" fill="#ACD2A1"/>
<path d="M393.896 291.18C395.364 290.948 396.748 290.519 397.286 289.467C397.825 288.414 397.568 286.798 396.564 286.419C395.292 285.955 393.924 285.821 392.586 286.027C392.165 286.262 391.818 286.61 391.584 287.032C391.35 287.453 391.24 287.932 391.264 288.414C391.546 289.613 392.574 290.323 393.896 291.18Z" fill="#263238"/>
<path opacity="0.1" d="M399.306 293.958C401.509 294.191 406.576 292.159 410.909 289.062C409.083 291.245 406.733 292.93 404.079 293.958C400.248 295.268 399.306 293.958 399.306 293.958Z" fill="black"/>
<path d="M402.207 293.518C404.711 293.894 407.048 295.001 408.926 296.7C410.946 298.536 414.508 297.19 413.382 294.509C412.256 291.829 408.29 290.776 408.29 290.776C406.367 291.907 404.327 292.826 402.207 293.518Z" fill="#FFA8A7"/>
<path d="M412.402 278.536C412.395 278.199 412.288 277.872 412.094 277.596C411.901 277.32 411.629 277.108 411.315 276.987C411.001 276.865 410.658 276.84 410.329 276.913C410 276.987 409.7 277.157 409.468 277.401C409.236 277.645 409.082 277.953 409.025 278.285C408.968 278.617 409.01 278.959 409.148 279.267C409.285 279.574 409.51 279.834 409.796 280.014C410.081 280.193 410.413 280.284 410.75 280.274C411.199 280.261 411.625 280.071 411.934 279.746C412.244 279.42 412.412 278.985 412.402 278.536Z" fill="#263238"/>
<path d="M424.422 274.24C423.268 274.139 422.105 274.205 420.97 274.436C420.403 274.594 419.82 274.692 419.232 274.73C418.937 274.739 418.644 274.681 418.375 274.56C418.105 274.439 417.867 274.258 417.678 274.032C417.481 273.616 417.405 273.153 417.459 272.697C417.514 272.24 417.695 271.807 417.984 271.449C419.535 268.838 421.971 266.871 424.85 265.904C427.791 264.703 430.865 263.857 434.006 263.383C437.617 263.077 440.848 264.35 442.048 267.3C442.57 268.476 443.378 269.502 444.398 270.286C445.732 271.278 447.029 271.976 447.543 273.224C449.024 276.896 446.319 279.197 442.77 279.148C439.431 278.952 436.135 278.293 432.978 277.19C431.521 276.737 430.187 275.758 428.73 275.231C427.341 274.722 425.894 274.389 424.422 274.24Z" fill="#263238"/>
<path d="M434.104 302.098C435.328 305.378 433.541 322.086 431.142 323.555C426.576 326.346 421.729 328.01 419.379 331.107C417.58 333.482 415.267 338.647 417.409 340.226C419.551 341.805 421.081 341.034 422.819 339.418C424.985 337.349 425.928 335.146 427.372 334.522C428.816 333.898 437.605 331.229 440.518 328.28C443.431 325.33 447.703 315.942 447.617 313.175C447.531 310.409 434.104 302.098 434.104 302.098Z" fill="#455A64"/>
<path d="M410.885 295.305C410.975 295.309 411.064 295.287 411.143 295.243C411.222 295.2 411.287 295.135 411.331 295.056C411.375 294.978 411.397 294.889 411.394 294.799C411.391 294.709 411.363 294.621 411.313 294.546C410.165 293.102 408.581 292.068 406.797 291.596C406.405 291.804 405.952 292.025 405.426 292.257C407.399 292.573 409.197 293.574 410.505 295.085C410.547 295.148 410.603 295.201 410.669 295.24C410.735 295.278 410.809 295.3 410.885 295.305Z" fill="#F28F8F"/>
<path d="M438.657 208.009C438.3 207.626 437.916 207.27 437.507 206.944C436.166 205.931 435.071 204.63 434.3 203.138C433.48 201.253 433.59 199.025 432.402 197.324C431.986 196.757 431.452 196.286 430.838 195.944C430.223 195.602 429.542 195.396 428.841 195.341C427.102 195.169 426.393 196.075 424.826 196.32C422.82 196.466 420.804 196.317 418.841 195.879L418.596 204.827C420.199 204.827 421.656 204.753 422.867 204.827C424.899 205.341 426.539 207.005 428.057 208.389C429.614 209.848 431.021 211.459 432.256 213.199C432.706 213.793 433.069 214.448 433.333 215.145C433.447 215.609 433.586 216.067 433.749 216.516C433.93 216.841 434.177 217.125 434.472 217.352C434.768 217.578 435.107 217.742 435.468 217.832C435.829 217.923 436.205 217.939 436.572 217.879C436.94 217.818 437.291 217.684 437.604 217.483C438.276 216.985 438.831 216.347 439.233 215.614C439.634 214.881 439.872 214.069 439.93 213.236C440.102 212.324 440.077 211.386 439.857 210.485C439.638 209.584 439.229 208.74 438.657 208.009Z" fill="#FFA8A7"/>
<path d="M431.729 195.084C432.403 195.083 433.059 195.307 433.592 195.719C434.126 196.131 434.508 196.708 434.679 197.36C435.085 199.29 435.827 201.134 436.87 202.807C438.033 204.325 440.542 206.736 441.068 208.474C441.594 210.212 442.292 214.594 440.75 216.381C440.172 217.163 439.394 217.775 438.498 218.154C437.603 218.533 436.622 218.665 435.658 218.536C433.871 218.242 431.729 195.084 431.729 195.084Z" fill="#37474F"/>
<path d="M340.957 145.867C337.885 144.9 334.837 143.859 331.838 142.647C330.106 142.013 328.461 141.162 326.942 140.114C325.409 139.058 324.235 137.559 323.576 135.818C323.217 134.849 323.165 133.793 323.43 132.794C323.568 132.298 323.824 131.842 324.175 131.465C324.527 131.088 324.964 130.801 325.449 130.628C326.12 130.507 326.81 130.537 327.468 130.715C328.126 130.893 328.737 131.214 329.256 131.656C330.141 132.358 331.078 132.992 332.059 133.553C332.267 133.676 333.919 134.777 333.809 134.092C333.766 133.937 333.686 133.794 333.577 133.676C333.298 133.27 333.121 132.805 333.059 132.317C332.998 131.83 333.053 131.334 333.222 130.873C333.248 130.779 333.293 130.692 333.354 130.616C333.415 130.54 333.491 130.478 333.577 130.432C333.895 130.31 334.213 130.603 334.421 130.873C335.377 132.074 336.421 133.203 337.542 134.251C338.442 135.278 339.526 136.129 340.737 136.76C346.865 138.172 353.063 139.263 359.305 140.028C363.361 135.819 367.181 131.39 370.749 126.76C374.299 121.705 377.261 119.477 383.638 120.726C382.634 123.553 383.308 126.772 381.986 131.742C381.986 131.742 368.522 150.395 362.781 151.326C361.153 151.469 359.513 151.303 357.946 150.836C353.601 149.857 349.378 148.474 345.094 147.164L340.957 145.867Z" fill="#FFA8A7"/>
<path d="M412.708 194.313C408.963 193.089 405.279 192.134 400.872 192.832C398.547 178.866 398.608 163.554 394.03 153.358C388.033 154.141 380.86 161.926 373.785 161.522C373.935 169.271 375.214 176.957 377.58 184.337C379.801 190.85 382.805 197.069 386.527 202.856C389.22 207.324 392.99 207.373 399.648 206.528C404.116 205.977 412.402 205.035 418.596 204.802C419.416 203.463 419.871 201.932 419.914 200.361C419.957 198.791 419.587 197.237 418.841 195.855C416.768 195.463 414.72 194.948 412.708 194.313Z" fill="#455A64"/>
<path d="M432.255 214.031C430.139 211.354 427.761 208.894 425.156 206.687C424.104 206.1 422.427 206.161 423.271 205.365C424.116 204.57 426.282 202.575 425.878 201.216C425.474 199.857 427.102 200.788 427.653 200.261C428.204 199.735 426.429 198.878 425.474 197.911C424.52 196.944 424.055 196.418 424.055 196.418H423.039C423.039 196.418 422.794 195.635 424.74 195.427C426.686 195.218 428.314 194.582 429.636 194.692C430.336 194.716 431.027 194.856 431.68 195.108C432.71 196.235 433.42 197.617 433.736 199.111C434.226 202.477 436.503 204.974 437.641 206.381C439.624 208.829 440.211 210.433 439.367 212.501C438.522 214.57 432.255 214.031 432.255 214.031Z" fill="#ACD2A1"/>
<path opacity="0.5" d="M432.255 214.031C430.139 211.354 427.761 208.894 425.156 206.687C424.104 206.1 422.427 206.161 423.271 205.365C424.116 204.57 426.282 202.575 425.878 201.216C425.474 199.857 427.102 200.788 427.653 200.261C428.204 199.735 426.429 198.878 425.474 197.911C424.52 196.944 424.055 196.418 424.055 196.418H423.039C423.039 196.418 422.794 195.635 424.74 195.427C426.686 195.218 428.314 194.582 429.636 194.692C430.336 194.716 431.027 194.856 431.68 195.108C432.71 196.235 433.42 197.617 433.736 199.111C434.226 202.477 436.503 204.974 437.641 206.381C439.624 208.829 440.211 210.433 439.367 212.501C438.522 214.57 432.255 214.031 432.255 214.031Z" fill="black"/>
<path opacity="0.2" d="M389.575 205.94L399.893 185.977L387.433 204.141C388.022 204.876 388.75 205.487 389.575 205.94Z" fill="black"/>
<path d="M384.128 170.824C382.341 174.79 379.109 182.048 377.812 185.108L381.851 171.779C378.387 169 377.836 168.523 376.453 165.487C378.431 167.982 381.1 169.838 384.128 170.824Z" fill="#263238"/>
<path d="M398.204 116.393L392.953 116.772C390.526 116.949 388.089 116.604 385.807 115.758C383.525 114.912 381.451 113.586 379.725 111.87C378 110.154 376.663 108.087 375.805 105.81C374.947 103.532 374.588 101.097 374.752 98.6692C375.364 89.5382 384.299 82.5859 393.43 83.2101C402.561 83.8221 410.126 91.7047 409.514 100.836L409.355 103.088C408.816 110.615 403.7 116.197 398.204 116.393Z" fill="#263238"/>
<path d="M405.009 88.706C406.343 87.4589 408.033 86.6589 409.843 86.4176C411.653 86.1762 413.493 86.5055 415.107 87.3596C418.118 88.914 421.227 93.9324 421.68 98.7672C422.133 103.602 424.238 107.176 426.894 107.727C429 108.155 431.154 109.477 431.338 111.852C431.37 112.63 431.231 113.407 430.931 114.126C430.631 114.845 430.176 115.489 429.599 116.013C428.428 117.046 427.005 117.751 425.475 118.057C422.809 118.695 420.001 118.316 417.599 116.995C415.198 115.673 413.375 113.503 412.488 110.909C410.774 106.246 411.839 101.056 411.264 96.1234C411.068 94.4955 410.505 92.6595 409 92.0352C407.494 91.411 406.233 92.1454 404.973 92.5983C404.973 91.9251 404.973 91.2396 404.973 90.5664C405.009 90.2971 404.826 88.8896 405.009 88.706Z" fill="#263238"/>
<path d="M376.049 242.526C376.208 241.926 376.906 240.078 377.849 237.544L367.824 235.378C367.591 237.593 367.359 239.723 367.163 241.657C367.007 243.201 366.641 244.716 366.074 246.161C363.371 250.884 359.741 255.01 355.4 258.291C355.278 258.377 355.168 258.426 355.033 258.536C354.884 258.636 354.748 258.755 354.629 258.891C354.534 259.007 354.464 259.143 354.426 259.289C354.388 259.435 354.382 259.587 354.409 259.735C354.504 259.972 354.671 260.173 354.886 260.311C355.985 261.01 357.212 261.485 358.496 261.707C359.779 261.93 361.094 261.896 362.365 261.608C363.422 261.454 364.435 261.08 365.338 260.508C366.241 259.936 367.013 259.181 367.604 258.291C368.582 256.861 369.706 255.536 370.957 254.337C372.377 252.893 375.217 253.236 376.208 251.534C376.931 250.31 376.208 249.087 375.939 248.144C375.367 246.309 375.406 244.337 376.049 242.526Z" fill="#FFA8A7"/>
<path d="M402.084 150.224C401.717 149.465 401.484 149 401.484 149L375.339 148.07C375.046 153.627 374.115 157.446 374.372 161.534C375.805 162.844 375.315 163.468 376.453 165.426C377.677 167.874 382.353 171.008 384.128 170.763C380.933 177.752 377.371 186.124 374.164 193.382C371.288 199.931 370.86 201.216 370.309 209.992C369.856 217.152 368.742 226.981 367.861 235.366C369.293 236.396 370.923 237.12 372.647 237.493C374.372 237.866 376.155 237.879 377.885 237.532C380.333 230.91 384.654 219.992 385.291 217.312C386.392 212.734 386.613 209.417 385.903 206.43C385.903 206.43 392.524 196.638 396.111 191.583C401.386 184.031 407.017 175.671 407.335 167.911C407.653 160.151 405.364 156.136 402.084 150.224Z" fill="#455A64"/>
<path d="M376.821 250.641C377.273 250.788 377.029 252.183 376.821 252.636C376.229 253.504 375.369 254.154 374.373 254.484C372.764 254.964 371.382 256.007 370.48 257.422C370.115 258.493 369.525 259.475 368.751 260.3C367.976 261.125 367.034 261.776 365.988 262.208C363.195 263.564 360.012 263.885 357.004 263.114C354.47 262.367 353.675 261.106 353.516 260.458C353.443 259.59 353.443 258.718 353.516 257.85L376.821 250.641Z" fill="#37474F"/>
<path d="M373.32 253.407C374.694 253.022 375.919 252.228 376.832 251.131C377.077 248.156 376.012 247.324 376.282 245.708C376.698 243.15 376.282 242.807 376.025 242.82C375.914 243.175 375.645 244.105 375.645 244.105C375.409 244.691 375.04 245.215 374.568 245.635C374.087 245.899 373.531 245.994 372.989 245.904C372.762 245.887 372.542 245.811 372.353 245.684C372.174 245.529 372.032 245.337 371.936 245.121C371.63 244.468 371.182 243.891 370.627 243.432C370.028 242.98 369.338 242.664 368.604 242.506C367.871 242.347 367.112 242.35 366.38 242.514C366.203 242.53 366.031 242.584 365.878 242.673C365.535 242.905 365.572 243.419 365.486 243.836C365.119 245.586 363.454 247.508 361.936 249.05C360.929 250.152 359.79 251.126 358.546 251.951C357.247 252.66 356.048 253.541 354.984 254.57C354.454 255.171 354.077 255.891 353.883 256.668C353.689 257.446 353.685 258.258 353.87 259.038C354.078 259.605 354.415 260.117 354.854 260.531C355.294 260.946 355.825 261.251 356.404 261.424C357.464 261.815 358.579 262.038 359.709 262.085C361.154 262.167 362.602 261.964 363.968 261.486C366.131 260.831 367.964 259.378 369.097 257.422C369.997 255.635 371.49 254.216 373.32 253.407Z" fill="#ACD2A1"/>
<path opacity="0.5" d="M373.32 253.407C374.694 253.022 375.919 252.228 376.832 251.131C377.077 248.156 376.012 247.324 376.282 245.708C376.698 243.15 376.282 242.807 376.025 242.82C375.914 243.175 375.645 244.105 375.645 244.105C375.409 244.691 375.04 245.215 374.568 245.635C374.087 245.899 373.531 245.994 372.989 245.904C372.762 245.887 372.542 245.811 372.353 245.684C372.174 245.529 372.032 245.337 371.936 245.121C371.63 244.468 371.182 243.891 370.627 243.432C370.028 242.98 369.338 242.664 368.604 242.506C367.871 242.347 367.112 242.35 366.38 242.514C366.203 242.53 366.031 242.584 365.878 242.673C365.535 242.905 365.572 243.419 365.486 243.836C365.119 245.586 363.454 247.508 361.936 249.05C360.929 250.152 359.79 251.126 358.546 251.951C357.247 252.66 356.048 253.541 354.984 254.57C354.454 255.171 354.077 255.891 353.883 256.668C353.689 257.446 353.685 258.258 353.87 259.038C354.078 259.605 354.415 260.117 354.854 260.531C355.294 260.946 355.825 261.251 356.404 261.424C357.464 261.815 358.579 262.038 359.709 262.085C361.154 262.167 362.602 261.964 363.968 261.486C366.131 260.831 367.964 259.378 369.097 257.422C369.997 255.635 371.49 254.216 373.32 253.407Z" fill="black"/>
<path d="M369.134 247.752C368.482 247.182 367.723 246.748 366.901 246.477C366.079 246.206 365.211 246.103 364.348 246.173C364.348 246.173 363.491 246.382 363.589 247.177C365.441 247.057 367.268 247.653 368.693 248.842C369.011 249.099 369.28 249.136 369.55 248.842C369.819 248.548 369.403 247.936 369.134 247.752Z" fill="#F5F5F5"/>
<path d="M367.726 249.943C366.319 248.753 364.511 248.145 362.671 248.242C362.671 248.242 361.618 248.524 361.606 249.331C361.606 249.331 363.968 248.707 366.979 250.959C367.054 251.034 367.146 251.088 367.248 251.118C367.349 251.147 367.456 251.151 367.559 251.13C367.662 251.108 367.758 251.061 367.839 250.992C367.919 250.924 367.981 250.837 368.02 250.739C368.056 250.592 368.047 250.438 367.994 250.296C367.942 250.155 367.849 250.032 367.726 249.943Z" fill="#F5F5F5"/>
<path d="M365.903 253.065C365.997 252.917 366.034 252.739 366.007 252.566C365.98 252.392 365.89 252.235 365.756 252.122C364.376 250.893 362.584 250.229 360.737 250.262C360.737 250.262 359.513 250.604 359.317 251.388C361.317 251.272 363.285 251.92 364.825 253.199C364.9 253.267 364.989 253.318 365.085 253.349C365.181 253.38 365.282 253.391 365.382 253.38C365.483 253.37 365.58 253.339 365.667 253.289C365.755 253.238 365.831 253.17 365.89 253.089L365.903 253.065Z" fill="#F5F5F5"/>
<path d="M364.397 256.039C364.964 256.653 365.386 257.386 365.632 258.185C365.877 258.983 365.941 259.827 365.817 260.653C365.216 260.998 364.58 261.277 363.92 261.486C362.553 261.963 361.105 262.167 359.66 262.085C358.531 262.038 357.416 261.815 356.355 261.424C355.266 261.008 353.736 260.2 353.369 258.976C353.202 258.146 353.226 257.288 353.438 256.468C353.65 255.647 354.045 254.886 354.593 254.24C355.064 253.745 355.648 253.371 356.294 253.15C358.632 252.44 362.451 253.799 364.397 256.039Z" fill="#F5F5F5"/>
<path d="M402.83 123.394C405.988 123.945 406.833 125.756 407.518 128.89C407.918 130.69 408.119 132.529 408.118 134.373L406.894 152.097L407.873 164.031C402.61 167.642 384.067 170.775 373.002 162.697C372.745 158.743 372.561 140.126 374.336 133.321C376.784 123.859 381.496 120.175 386.135 120.53L397.286 122.133L402.83 123.394Z" fill="#F5F5F5"/>
<path d="M425.279 167.262C425.401 170.506 425.548 173.382 425.744 175.83C426.143 178.955 425.838 182.129 424.85 185.12C424.602 185.812 424.208 186.443 423.695 186.968C423.182 187.494 422.561 187.904 421.876 188.168C420.982 188.419 420.04 188.444 419.134 188.242C418.403 188.164 417.725 187.825 417.225 187.287C416.973 186.842 416.819 186.349 416.775 185.84C416.731 185.331 416.796 184.818 416.968 184.337C417.237 183.015 417.482 181.681 417.763 180.347C417.763 180.163 418.51 177.789 417.824 178.217C417.697 178.313 417.596 178.439 417.531 178.584C417.265 178.997 416.904 179.339 416.478 179.582C416.051 179.825 415.573 179.961 415.083 179.98C414.986 179.995 414.887 179.989 414.792 179.964C414.697 179.939 414.609 179.894 414.532 179.833C414.299 179.576 414.458 179.172 414.63 178.878C415.367 177.537 416.009 176.147 416.551 174.716C417.163 173.491 417.541 172.163 417.665 170.8C417.665 169.833 415.964 155.34 414.728 151.938L405.743 139.269C402.071 133.149 399.795 126.454 402.843 123.357C410.566 122.966 412.194 128.351 422.684 144.888C424.973 148.56 425.07 162.109 425.279 167.262Z" fill="#FFA8A7"/>
<path d="M400.126 105.316C400.725 105.744 400.872 105.94 401.35 104.936C402.439 102.77 405.988 102.17 407.053 104.936C408.118 107.702 405.45 111.154 403.381 111.631C399.856 112.452 399.514 110.199 399.514 110.199L398.29 122.599C397.4 124.204 396.128 125.564 394.587 126.559C393.045 127.554 391.281 128.153 389.452 128.302C383.332 128.657 383.736 123.553 385.927 121.24L386.196 117.751C384.671 117.721 383.159 117.452 381.717 116.956C379.819 116.283 378.424 114.997 377.371 111.95C375.964 107.837 376.074 103.48 377.959 95.4257C380.15 86.0988 391.79 86.7109 397.457 90.9092C403.124 95.1075 400.126 105.316 400.126 105.316Z" fill="#FFA8A7"/>
<path d="M401.374 104.936L401.105 107.727C400.413 107.668 399.771 107.342 399.315 106.819C398.858 106.297 398.622 105.617 398.657 104.924L398.938 99.0732L402.72 100.065L401.374 104.936Z" fill="#263238"/>
<path d="M389.611 83.406C387.607 83.2029 385.582 83.3967 383.652 83.9765C381.723 84.5562 379.926 85.5104 378.366 86.7846C376.805 88.0588 375.511 89.6281 374.557 91.4027C373.603 93.1773 373.008 95.1224 372.806 97.127L372.61 99.1099L380.076 99.8566C381.757 100.03 383.443 99.5873 384.821 98.61C386.199 97.6327 387.175 96.1878 387.567 94.5444L386.147 100.26C387.509 100.449 388.894 100.173 390.079 99.4779C391.265 98.7829 392.182 97.7091 392.683 96.4294L393.112 95.0218C393.145 96.7207 393.797 98.349 394.947 99.6002C396.097 100.851 397.664 101.639 399.354 101.815H401.154L401.876 91.1172L389.611 83.406Z" fill="#263238"/>
<path d="M388.412 104.116C388.405 104.284 388.432 104.452 388.49 104.609C388.549 104.767 388.637 104.911 388.752 105.035C388.982 105.284 389.302 105.431 389.642 105.444C389.981 105.457 390.311 105.335 390.56 105.104C390.81 104.873 390.957 104.553 390.97 104.214C390.98 104.044 390.956 103.873 390.9 103.712C390.843 103.55 390.756 103.402 390.642 103.274C390.529 103.147 390.391 103.043 390.237 102.969C390.083 102.895 389.916 102.852 389.746 102.843C389.401 102.84 389.069 102.971 388.82 103.209C388.571 103.446 388.424 103.772 388.412 104.116Z" fill="#263238"/>
<path d="M388.326 111.117L384.801 112.341C384.869 112.576 384.984 112.794 385.138 112.983C385.292 113.172 385.483 113.328 385.699 113.443C385.914 113.557 386.151 113.626 386.394 113.648C386.637 113.669 386.882 113.641 387.114 113.565C387.599 113.401 387.999 113.051 388.226 112.592C388.453 112.133 388.489 111.603 388.326 111.117Z" fill="#F28F8F"/>
<path d="M377.371 99.1956L380.346 98.2408C380.294 98.0438 380.203 97.8595 380.077 97.6991C379.951 97.5387 379.794 97.4057 379.616 97.3082C379.437 97.2108 379.24 97.151 379.037 97.1324C378.834 97.1139 378.63 97.137 378.436 97.2005C378.033 97.3275 377.696 97.6076 377.496 97.9806C377.297 98.3536 377.252 98.7898 377.371 99.1956Z" fill="#263238"/>
<path d="M378.399 103.394C378.4 103.631 378.47 103.863 378.6 104.061C378.731 104.259 378.916 104.415 379.133 104.51C379.35 104.605 379.591 104.635 379.825 104.596C380.059 104.557 380.276 104.451 380.451 104.291C380.626 104.13 380.75 103.923 380.809 103.693C380.868 103.463 380.859 103.221 380.783 102.997C380.707 102.772 380.567 102.574 380.381 102.427C380.195 102.281 379.97 102.191 379.734 102.17C379.396 102.16 379.067 102.282 378.818 102.511C378.568 102.739 378.418 103.056 378.399 103.394Z" fill="#263238"/>
<path d="M385.181 102.096L384.544 108.902L381.031 107.543L385.181 102.096Z" fill="#F28F8F"/>
<path d="M386.258 117.751C386.258 117.751 392.378 117.592 395.266 116.026C396.435 115.468 397.445 114.627 398.204 113.578C397.857 114.724 397.245 115.772 396.417 116.638C393.442 119.649 386.147 119.269 386.147 119.269L386.258 117.751Z" fill="#F28F8F"/>
<path d="M431.35 212.868C434.299 212.66 437.898 209.441 438.228 207.054C438.955 207.82 439.522 208.724 439.894 209.712C440.266 210.7 440.436 211.752 440.395 212.807C440.395 216.773 438.241 217.875 435.658 218.536C432.806 218.56 431.986 217.079 431.35 212.868Z" fill="#F5F5F5"/>
<path d="M429.281 210.592C429.281 210.592 432.586 209.686 433.492 208.034C433.547 207.943 433.622 207.866 433.711 207.807C433.799 207.748 433.9 207.71 434.005 207.695C434.11 207.68 434.218 207.688 434.319 207.719C434.421 207.75 434.515 207.803 434.593 207.875C435.254 208.389 434.655 209.294 433.626 210.139C432.685 210.983 431.495 211.498 430.236 211.608C429.355 211.608 428.571 210.812 429.281 210.592Z" fill="#F5F5F5"/>
<path d="M427.36 208.499C427.36 208.499 430.652 207.605 431.558 205.953C431.613 205.862 431.688 205.785 431.777 205.726C431.865 205.668 431.966 205.629 432.071 205.614C432.177 205.599 432.284 205.607 432.385 205.638C432.487 205.669 432.581 205.722 432.66 205.794C433.321 206.308 432.66 207.201 431.693 208.058C430.751 208.902 429.561 209.417 428.302 209.527C427.433 209.527 426.637 208.768 427.36 208.499Z" fill="#F5F5F5"/>
<path d="M425.168 206.54C425.168 206.54 428.473 205.635 429.379 203.982C429.435 203.892 429.511 203.816 429.6 203.759C429.689 203.701 429.79 203.664 429.895 203.65C430.001 203.636 430.108 203.645 430.209 203.677C430.31 203.709 430.403 203.763 430.481 203.835C431.142 204.337 430.542 205.243 429.514 206.1C428.569 206.938 427.381 207.453 426.123 207.569C425.254 207.544 424.459 206.773 425.168 206.54Z" fill="#F5F5F5"/>
<path d="M198.618 214.57C198.004 214.572 197.4 214.412 196.868 214.105L159.12 192.268C157.086 191.088 155.396 189.396 154.219 187.361C153.043 185.325 152.42 183.016 152.412 180.665V137.005C152.412 136.073 152.782 135.18 153.441 134.521C154.1 133.862 154.993 133.492 155.925 133.492C156.857 133.492 157.75 133.862 158.409 134.521C159.068 135.18 159.438 136.073 159.438 137.005V180.616C159.439 181.736 159.734 182.836 160.292 183.806C160.85 184.777 161.653 185.584 162.62 186.148L200.442 207.972C201.109 208.361 201.629 208.958 201.923 209.672C202.216 210.385 202.267 211.176 202.066 211.921C201.865 212.666 201.425 213.324 200.813 213.794C200.201 214.264 199.451 214.52 198.679 214.521L198.618 214.57Z" fill="#263238"/>
<path d="M121.433 258.157C120.817 258.155 120.214 257.99 119.682 257.679L81.873 235.843C79.8391 234.663 78.1497 232.971 76.9729 230.935C75.7961 228.899 75.173 226.591 75.1655 224.24V180.616C75.2184 179.722 75.6109 178.882 76.2627 178.267C76.9145 177.653 77.7765 177.311 78.6723 177.311C79.5681 177.311 80.43 177.653 81.0819 178.267C81.7337 178.882 82.1262 179.722 82.179 180.616V224.276C82.1804 225.397 82.4762 226.499 83.0369 227.469C83.5975 228.44 84.4033 229.247 85.3737 229.809L123.183 251.608C123.849 251.996 124.369 252.592 124.663 253.305C124.956 254.017 125.008 254.806 124.809 255.551C124.61 256.295 124.172 256.954 123.561 257.425C122.951 257.895 122.203 258.153 121.433 258.157Z" fill="#263238"/>
<path d="M273.16 170.665C272.546 170.667 271.942 170.507 271.41 170.2L233.6 148.364C231.566 147.184 229.877 145.492 228.7 143.456C227.523 141.42 226.9 139.112 226.893 136.76V93.1C226.865 92.6221 226.934 92.1434 227.098 91.6934C227.261 91.2434 227.515 90.8316 227.843 90.4832C228.172 90.1348 228.568 89.8572 229.008 89.6675C229.447 89.4778 229.921 89.3799 230.4 89.3799C230.878 89.3799 231.352 89.4778 231.792 89.6675C232.231 89.8572 232.627 90.1348 232.956 90.4832C233.284 90.8316 233.538 91.2434 233.701 91.6934C233.865 92.1434 233.935 92.6221 233.906 93.1V136.76C233.908 137.881 234.204 138.982 234.764 139.953C235.325 140.924 236.131 141.731 237.101 142.293L274.91 164.116C275.576 164.504 276.096 165.1 276.39 165.813C276.684 166.525 276.735 167.315 276.536 168.059C276.337 168.804 275.899 169.462 275.289 169.933C274.679 170.404 273.931 170.661 273.16 170.665Z" fill="#263238"/>
<path d="M127.969 253.799V294.191C127.933 294.547 127.8 294.886 127.584 295.171C127.368 295.456 127.078 295.676 126.745 295.807C125.872 296.254 124.905 296.487 123.924 296.487C122.943 296.487 121.976 296.254 121.102 295.807C120.782 295.666 120.505 295.442 120.3 295.158C120.096 294.874 119.971 294.54 119.939 294.191V253.799H127.969Z" fill="#263238"/>
<path d="M94.6272 234.802V275.194C94.5921 275.552 94.4594 275.893 94.2435 276.18C94.0276 276.467 93.7369 276.689 93.4032 276.822C92.5333 277.273 91.5678 277.508 90.588 277.508C89.6083 277.508 88.6428 277.273 87.7728 276.822C87.4391 276.689 87.1484 276.467 86.9326 276.18C86.7167 275.893 86.5839 275.552 86.5488 275.194V234.802H94.6272Z" fill="#263238"/>
<path d="M279.574 166.271V206.663C279.536 207.019 279.402 207.359 279.187 207.646C278.971 207.933 278.682 208.155 278.35 208.291C277.477 208.732 276.512 208.962 275.534 208.962C274.556 208.962 273.592 208.732 272.719 208.291C272.387 208.155 272.098 207.933 271.882 207.646C271.667 207.359 271.533 207.019 271.495 206.663V166.271H279.574Z" fill="#263238"/>
<path d="M246.22 147.274V187.666C246.188 188.015 246.063 188.349 245.859 188.633C245.654 188.917 245.377 189.141 245.057 189.282C244.184 189.729 243.217 189.962 242.236 189.962C241.255 189.962 240.288 189.729 239.414 189.282C239.093 189.142 238.815 188.919 238.611 188.634C238.406 188.35 238.282 188.015 238.251 187.666V147.274H246.22Z" fill="#263238"/>
<path d="M67.3198 190.494L66.6221 190.09C66.0345 189.703 65.5457 189.183 65.195 188.573C64.8443 187.963 64.6414 187.28 64.6025 186.577V180.286C64.6404 179.583 64.8429 178.899 65.1937 178.288C65.5446 177.678 66.0338 177.159 66.6221 176.773L233.282 80.554C233.909 80.2338 234.603 80.0669 235.308 80.0669C236.012 80.0669 236.706 80.2338 237.333 80.554L238.031 80.958C238.623 81.3415 239.116 81.8598 239.469 82.4704C239.822 83.081 240.026 83.7665 240.063 84.4708V90.7622C240.024 91.4661 239.819 92.1509 239.466 92.7612C239.113 93.3714 238.622 93.8901 238.031 94.2751L71.3957 190.494C70.7633 190.811 70.0655 190.977 69.3578 190.977C68.6501 190.977 67.9522 190.811 67.3198 190.494Z" fill="#455A64"/>
<path d="M74.1252 183.431L65.2145 178.291C64.8494 178.894 64.647 179.581 64.627 180.286V186.577C64.6658 187.28 64.8687 187.963 65.2194 188.573C65.5702 189.183 66.0589 189.703 66.6466 190.09L67.3442 190.494C67.9735 190.807 68.6669 190.971 69.37 190.971C70.073 190.971 70.7665 190.807 71.3957 190.494L74.1252 188.915V183.431Z" fill="#263238"/>
<path d="M71.3956 179.515L238.055 83.2959C239.182 82.6472 240.087 83.1735 240.087 84.5199V90.8112C240.048 91.5151 239.844 92.1999 239.491 92.8102C239.138 93.4205 238.646 93.9391 238.055 94.3241L71.3956 190.494C70.2817 191.13 69.376 190.616 69.376 189.27V183.064C69.4082 182.355 69.608 181.664 69.9591 181.047C70.3101 180.43 70.8024 179.905 71.3956 179.515Z" fill="#37474F"/>
<path d="M67.3198 209.735L66.6221 209.331C66.0338 208.945 65.5446 208.426 65.1937 207.815C64.8429 207.205 64.6404 206.521 64.6025 205.818V199.527C64.6404 198.824 64.8429 198.14 65.1937 197.53C65.5446 196.92 66.0338 196.4 66.6221 196.014L233.306 99.8321C233.934 99.5119 234.628 99.345 235.332 99.345C236.036 99.345 236.731 99.5119 237.358 99.8321L238.056 100.236C238.648 100.62 239.14 101.138 239.493 101.748C239.847 102.359 240.05 103.045 240.087 103.749V110.04C240.048 110.744 239.844 111.429 239.491 112.039C239.138 112.65 238.646 113.168 238.056 113.553L71.3957 209.735C70.7633 210.053 70.0655 210.218 69.3578 210.218C68.6501 210.218 67.9522 210.053 67.3198 209.735Z" fill="#455A64"/>
<path d="M74.1252 202.648L65.2145 197.507C64.8509 198.111 64.6486 198.798 64.627 199.502V205.794C64.6648 206.497 64.8674 207.181 65.2182 207.791C65.569 208.401 66.0582 208.92 66.6466 209.307L67.3442 209.711C67.9735 210.024 68.6669 210.187 69.37 210.187C70.073 210.187 70.7665 210.024 71.3957 209.711L74.1252 208.132V202.648Z" fill="#263238"/>
<path d="M71.3956 198.756L238.055 102.537C239.182 101.888 240.087 102.415 240.087 103.761V110.052C240.048 110.756 239.844 111.441 239.491 112.051C239.138 112.662 238.646 113.18 238.055 113.565L71.3956 209.735C70.2817 210.371 69.376 209.857 69.376 208.511V202.22C69.4213 201.525 69.6274 200.851 69.9778 200.25C70.3283 199.649 70.8137 199.137 71.3956 198.756Z" fill="#37474F"/>
<path d="M67.3198 228.976L66.6221 228.572C66.0338 228.186 65.5446 227.667 65.1937 227.057C64.8429 226.446 64.6404 225.762 64.6025 225.06V218.768C64.6404 218.065 64.8429 217.381 65.1937 216.771C65.5446 216.161 66.0338 215.642 66.6221 215.255L233.282 119.037C233.909 118.717 234.603 118.55 235.308 118.55C236.012 118.55 236.706 118.717 237.333 119.037L238.031 119.441C238.623 119.824 239.116 120.342 239.469 120.953C239.822 121.564 240.026 122.249 240.063 122.954V129.208C240.026 129.913 239.822 130.598 239.469 131.209C239.116 131.819 238.623 132.337 238.031 132.721L71.3957 228.976C70.7633 229.294 70.0655 229.459 69.3578 229.459C68.6501 229.459 67.9522 229.294 67.3198 228.976Z" fill="#455A64"/>
<path d="M74.1252 221.914L65.2145 216.773C64.8509 217.377 64.6486 218.064 64.627 218.768V225.059C64.6648 225.762 64.8674 226.446 65.2182 227.057C65.569 227.667 66.0582 228.186 66.6466 228.572L67.3442 228.976C67.9735 229.29 68.6669 229.453 69.37 229.453C70.073 229.453 70.7665 229.29 71.3957 228.976L74.1252 227.397V221.914Z" fill="#263238"/>
<path d="M71.3956 217.997L238.055 121.778C239.182 121.13 240.087 121.656 240.087 123.002V129.208C240.05 129.912 239.846 130.598 239.493 131.208C239.14 131.819 238.647 132.337 238.055 132.721L71.3956 228.976C70.2817 229.613 69.376 229.099 69.376 227.752V221.461C69.4213 220.767 69.6274 220.092 69.9778 219.491C70.3283 218.89 70.8137 218.378 71.3956 217.997Z" fill="#37474F"/>
<path d="M74.1255 240.592V241.4C74.1628 242.104 74.3664 242.79 74.7195 243.4C75.0727 244.011 75.5654 244.529 76.1573 244.913L81.6041 248.058C82.2314 248.379 82.9256 248.546 83.6298 248.546C84.3341 248.546 85.0283 248.379 85.6556 248.058L252.315 151.84C252.903 151.455 253.392 150.938 253.742 150.33C254.093 149.722 254.296 149.04 254.335 148.339V147.568C254.297 146.865 254.095 146.181 253.744 145.571C253.393 144.961 252.904 144.442 252.315 144.055L246.856 140.91C246.229 140.589 245.535 140.422 244.831 140.422C244.126 140.422 243.432 140.589 242.805 140.91L76.1573 237.116C75.5702 237.496 75.0805 238.008 74.7276 238.612C74.3747 239.216 74.1685 239.894 74.1255 240.592Z" fill="#37474F"/>
<path d="M83.6237 238.279V248.573C82.9195 248.587 82.2237 248.418 81.6041 248.083L76.1573 244.937C75.5654 244.554 75.0727 244.035 74.7195 243.425C74.3664 242.814 74.1628 242.129 74.1255 241.424V240.592C74.1647 239.89 74.3692 239.207 74.7222 238.598C75.0753 237.99 75.567 237.474 76.1573 237.091L78.8746 235.512L83.6237 238.279Z" fill="#263238"/>
<path d="M85.6796 242.599L252.315 146.344C252.564 146.266 252.783 146.111 252.937 145.901C253.092 145.691 253.176 145.436 253.176 145.175C253.176 144.914 253.092 144.659 252.937 144.449C252.783 144.239 252.564 144.084 252.315 144.006L246.856 140.86C246.229 140.54 245.534 140.373 244.83 140.373C244.126 140.373 243.432 140.54 242.804 140.86L76.1569 237.116C75.9074 237.193 75.6893 237.349 75.5344 237.559C75.3795 237.769 75.2959 238.023 75.2959 238.285C75.2959 238.546 75.3795 238.8 75.5344 239.011C75.6893 239.221 75.9074 239.376 76.1569 239.454L81.6037 242.599C82.234 242.924 82.9327 243.093 83.6416 243.093C84.3505 243.093 85.0492 242.924 85.6796 242.599Z" fill="#455A64"/>
<path d="M90.7593 250.225V251.033C90.7971 251.734 90.9997 252.416 91.3506 253.024C91.7015 253.633 92.1908 254.15 92.7789 254.533L98.2257 257.728C98.8549 258.042 99.5483 258.205 100.251 258.205C100.954 258.205 101.648 258.042 102.277 257.728L268.937 161.497C269.529 161.116 270.021 160.6 270.375 159.992C270.728 159.383 270.932 158.699 270.969 157.997V157.189C270.931 156.484 270.728 155.799 270.375 155.188C270.022 154.578 269.529 154.059 268.937 153.676L263.49 150.53C262.863 150.21 262.169 150.043 261.464 150.043C260.76 150.043 260.066 150.21 259.439 150.53L92.7789 246.712C92.1906 247.098 91.7013 247.618 91.3505 248.228C90.9997 248.838 90.7972 249.522 90.7593 250.225Z" fill="#37474F"/>
<path d="M100.258 247.936V258.218C99.551 258.231 98.8523 258.067 98.2257 257.74L92.7789 254.582C92.1908 254.199 91.7015 253.682 91.3506 253.073C90.9997 252.465 90.7971 251.783 90.7593 251.082V250.274C90.7896 249.563 90.9885 248.869 91.3396 248.249C91.6908 247.63 92.1841 247.103 92.7789 246.712L95.4717 245.145L100.258 247.936Z" fill="#263238"/>
<path d="M102.277 252.196L268.937 155.977C269.186 155.9 269.405 155.744 269.559 155.534C269.714 155.324 269.798 155.069 269.798 154.808C269.798 154.547 269.714 154.293 269.559 154.082C269.405 153.872 269.186 153.717 268.937 153.639L263.49 150.494C262.863 150.173 262.169 150.006 261.464 150.006C260.76 150.006 260.066 150.173 259.439 150.494L92.7789 246.712C92.5295 246.79 92.3113 246.945 92.1564 247.155C92.0015 247.366 91.918 247.62 91.918 247.881C91.918 248.142 92.0015 248.397 92.1564 248.607C92.3113 248.817 92.5295 248.973 92.7789 249.05L98.2257 252.196C98.853 252.516 99.5472 252.683 100.251 252.683C100.956 252.683 101.65 252.516 102.277 252.196Z" fill="#455A64"/>
<path d="M107.381 259.821V260.629C107.419 261.333 107.622 262.019 107.975 262.629C108.329 263.24 108.821 263.758 109.413 264.142L114.86 267.288C115.487 267.608 116.181 267.775 116.886 267.775C117.59 267.775 118.284 267.608 118.911 267.288L285.571 171.069C286.16 170.683 286.649 170.163 287 169.553C287.35 168.943 287.553 168.259 287.591 167.556V166.748C287.553 166.047 287.35 165.365 287 164.756C286.649 164.148 286.159 163.631 285.571 163.248L280.112 160.09C279.483 159.776 278.79 159.613 278.087 159.613C277.383 159.613 276.69 159.776 276.061 160.09L109.413 256.308C108.823 256.693 108.331 257.212 107.978 257.822C107.625 258.433 107.421 259.117 107.381 259.821Z" fill="#37474F"/>
<path d="M116.88 257.483V267.765C116.177 267.777 115.483 267.613 114.86 267.287L109.413 264.142C108.821 263.758 108.329 263.24 107.975 262.629C107.622 262.019 107.419 261.333 107.381 260.629V259.821C107.421 259.117 107.625 258.432 107.978 257.822C108.331 257.212 108.823 256.693 109.413 256.308L112.13 254.741L116.88 257.483Z" fill="#263238"/>
<path d="M118.911 261.804L285.571 165.585C285.821 165.508 286.039 165.353 286.194 165.142C286.348 164.932 286.432 164.678 286.432 164.417C286.432 164.155 286.348 163.901 286.194 163.691C286.039 163.48 285.821 163.325 285.571 163.248L280.112 160.09C279.483 159.776 278.789 159.613 278.086 159.613C277.383 159.613 276.69 159.776 276.061 160.09L109.413 256.308C109.159 256.382 108.935 256.537 108.777 256.749C108.618 256.961 108.532 257.219 108.532 257.483C108.532 257.748 108.618 258.006 108.777 258.218C108.935 258.43 109.159 258.584 109.413 258.658L114.86 261.804C115.489 262.118 116.182 262.281 116.886 262.281C117.589 262.281 118.282 262.118 118.911 261.804Z" fill="#455A64"/>
<path d="M78.6783 179.074C78.2973 179.322 77.9801 179.656 77.7525 180.049C77.5249 180.443 77.3934 180.884 77.3687 181.338C77.3687 182.171 77.9562 182.562 78.6783 182.085C79.0576 181.839 79.373 181.507 79.5985 181.115C79.8241 180.724 79.9534 180.284 79.9758 179.833C79.9758 179 79.4005 178.658 78.6783 179.074Z" fill="#263238"/>
<path d="M78.6783 198.278C78.2982 198.524 77.9815 198.856 77.7539 199.248C77.5263 199.639 77.3943 200.079 77.3687 200.53C77.3687 201.363 77.9562 201.755 78.6783 201.289C79.0644 201.036 79.3838 200.694 79.6096 200.291C79.8354 199.889 79.961 199.437 79.9758 198.976C79.9758 198.193 79.4005 197.862 78.6783 198.278Z" fill="#263238"/>
<path d="M78.6783 217.483C78.2917 217.734 77.9709 218.073 77.743 218.474C77.5151 218.874 77.3867 219.324 77.3687 219.784C77.3687 220.616 77.9562 221.008 78.6783 220.543C79.0578 220.294 79.3732 219.96 79.5986 219.566C79.8241 219.173 79.9533 218.731 79.9758 218.278C79.9758 217.397 79.4005 217.067 78.6783 217.483Z" fill="#263238"/>
<path d="M230.405 91.6435C230.025 91.8894 229.709 92.2215 229.481 92.6128C229.253 93.0042 229.121 93.4437 229.096 93.8957C229.096 94.728 229.683 95.1197 230.405 94.6546C230.785 94.4062 231.1 94.0715 231.326 93.678C231.551 93.2845 231.68 92.8432 231.703 92.3902C231.703 91.5578 231.128 91.2641 230.405 91.6435Z" fill="#263238"/>
<path d="M230.405 110.848C230.024 111.096 229.707 111.43 229.48 111.824C229.252 112.217 229.12 112.659 229.096 113.112C229.096 113.945 229.683 114.275 230.405 113.859C230.785 113.614 231.101 113.282 231.327 112.89C231.553 112.498 231.681 112.059 231.703 111.607C231.703 110.762 231.128 110.42 230.405 110.848Z" fill="#263238"/>
<path d="M230.405 130.04C230.024 130.288 229.707 130.622 229.48 131.016C229.252 131.409 229.12 131.851 229.096 132.305C229.096 133.137 229.683 133.468 230.405 133.051C230.785 132.806 231.1 132.473 231.326 132.082C231.551 131.69 231.68 131.251 231.703 130.799C231.703 129.967 231.128 129.624 230.405 130.04Z" fill="#263238"/>
<path d="M89.4987 233.321C89.3605 233.368 89.2404 233.457 89.1553 233.576C89.0702 233.694 89.0244 233.837 89.0244 233.982C89.0244 234.128 89.0702 234.271 89.1553 234.389C89.2404 234.508 89.3605 234.597 89.4987 234.643C89.8554 234.824 90.2495 234.918 90.6493 234.918C91.0491 234.918 91.4432 234.824 91.7999 234.643C91.9381 234.597 92.0582 234.508 92.1433 234.389C92.2284 234.271 92.2742 234.128 92.2742 233.982C92.2742 233.837 92.2284 233.694 92.1433 233.576C92.0582 233.457 91.9381 233.368 91.7999 233.321C91.4438 233.139 91.0494 233.044 90.6493 233.044C90.2492 233.044 89.8548 233.139 89.4987 233.321Z" fill="#263238"/>
<path d="M106.17 243.04C105.533 243.395 105.533 243.995 106.17 244.362C106.526 244.537 106.917 244.628 107.314 244.628C107.711 244.628 108.103 244.537 108.459 244.362C109.095 243.995 109.095 243.395 108.459 243.04C108.104 242.86 107.712 242.765 107.314 242.765C106.916 242.765 106.524 242.86 106.17 243.04Z" fill="#263238"/>
<path d="M122.84 252.673C122.216 253.04 122.204 253.64 122.84 253.995C123.195 254.175 123.587 254.269 123.985 254.269C124.383 254.269 124.775 254.175 125.129 253.995C125.766 253.64 125.766 253.04 125.129 252.673C124.775 252.492 124.383 252.398 123.985 252.398C123.587 252.398 123.195 252.492 122.84 252.673Z" fill="#263238"/>
<path d="M241.128 145.842C240.491 146.21 240.491 146.809 241.128 147.164C241.482 147.345 241.874 147.439 242.272 147.439C242.67 147.439 243.062 147.345 243.417 147.164C244.053 146.809 244.053 146.21 243.417 145.842C243.062 145.662 242.67 145.568 242.272 145.568C241.874 145.568 241.482 145.662 241.128 145.842Z" fill="#263238"/>
<path d="M257.762 155.524C257.624 155.571 257.504 155.66 257.418 155.778C257.333 155.897 257.288 156.039 257.288 156.185C257.288 156.331 257.333 156.473 257.418 156.592C257.504 156.71 257.624 156.799 257.762 156.846C258.116 157.026 258.509 157.121 258.906 157.121C259.304 157.121 259.696 157.026 260.051 156.846C260.189 156.799 260.309 156.71 260.394 156.592C260.479 156.473 260.525 156.331 260.525 156.185C260.525 156.039 260.479 155.897 260.394 155.778C260.309 155.66 260.189 155.571 260.051 155.524C259.696 155.343 259.304 155.249 258.906 155.249C258.509 155.249 258.116 155.343 257.762 155.524Z" fill="#263238"/>
<path d="M274.433 165.206C274.295 165.253 274.174 165.341 274.089 165.46C274.004 165.579 273.958 165.721 273.958 165.867C273.958 166.013 274.004 166.155 274.089 166.274C274.174 166.392 274.295 166.481 274.433 166.528C274.787 166.708 275.179 166.802 275.577 166.802C275.975 166.802 276.367 166.708 276.722 166.528C276.86 166.481 276.98 166.392 277.065 166.274C277.15 166.155 277.196 166.013 277.196 165.867C277.196 165.721 277.15 165.579 277.065 165.46C276.98 165.341 276.86 165.253 276.722 165.206C276.367 165.027 275.975 164.934 275.577 164.934C275.18 164.934 274.788 165.027 274.433 165.206Z" fill="#263238"/>
<path d="M155.864 135.548C155.484 135.794 155.167 136.126 154.939 136.518C154.712 136.909 154.58 137.349 154.554 137.8C154.554 138.633 155.142 139.024 155.864 138.559C156.243 138.311 156.559 137.976 156.784 137.583C157.01 137.189 157.139 136.748 157.161 136.295C157.161 135.463 156.586 135.132 155.864 135.548Z" fill="#263238"/>
<path d="M155.864 154.753C155.484 154.999 155.167 155.331 154.939 155.722C154.712 156.114 154.58 156.553 154.554 157.005C154.554 157.837 155.142 158.229 155.864 157.764C156.243 157.516 156.559 157.181 156.784 156.787C157.01 156.394 157.139 155.953 157.161 155.5C157.161 154.667 156.586 154.337 155.864 154.753Z" fill="#263238"/>
<path d="M155.864 173.945C155.483 174.193 155.166 174.527 154.938 174.921C154.71 175.314 154.579 175.756 154.554 176.21C154.554 177.042 155.142 177.434 155.864 176.956C156.243 176.711 156.559 176.378 156.784 175.987C157.01 175.595 157.139 175.155 157.161 174.704C157.161 173.872 156.586 173.529 155.864 173.945Z" fill="#263238"/>
<path d="M166.55 189.747C165.913 190.114 165.913 190.714 166.55 191.069C166.904 191.249 167.296 191.344 167.694 191.344C168.092 191.344 168.484 191.249 168.838 191.069C169.475 190.714 169.475 190.114 168.838 189.747C168.482 189.572 168.091 189.481 167.694 189.481C167.297 189.481 166.906 189.572 166.55 189.747Z" fill="#263238"/>
<path d="M183.22 199.429C183.082 199.476 182.962 199.565 182.877 199.683C182.792 199.802 182.746 199.944 182.746 200.09C182.746 200.236 182.792 200.378 182.877 200.497C182.962 200.615 183.082 200.704 183.22 200.751C183.575 200.931 183.967 201.026 184.365 201.026C184.763 201.026 185.155 200.931 185.509 200.751C185.648 200.704 185.768 200.615 185.853 200.497C185.938 200.378 185.984 200.236 185.984 200.09C185.984 199.944 185.938 199.802 185.853 199.683C185.768 199.565 185.648 199.476 185.509 199.429C185.155 199.248 184.763 199.154 184.365 199.154C183.967 199.154 183.575 199.248 183.22 199.429Z" fill="#263238"/>
<path d="M199.904 209.111C199.765 209.158 199.645 209.246 199.56 209.365C199.475 209.484 199.429 209.626 199.429 209.772C199.429 209.918 199.475 210.06 199.56 210.179C199.645 210.297 199.765 210.386 199.904 210.433C200.26 210.613 200.654 210.708 201.054 210.708C201.454 210.708 201.848 210.613 202.205 210.433C202.343 210.386 202.463 210.297 202.548 210.179C202.633 210.06 202.679 209.918 202.679 209.772C202.679 209.626 202.633 209.484 202.548 209.365C202.463 209.246 202.343 209.158 202.205 209.111C201.849 208.928 201.454 208.833 201.054 208.833C200.654 208.833 200.26 208.928 199.904 209.111Z" fill="#263238"/>
<path d="M154.432 179.257C154.432 179.257 149.365 165.867 145.864 157.935C141.592 148.143 138.667 146.919 132.718 147.446L136.5 170.469C136.5 170.469 143.428 185.231 147.015 189.612C148.691 192.232 151.507 192.256 156.39 190.42C161.274 188.584 172.878 181.228 175.974 179.404C178.777 177.798 181.483 176.028 184.077 174.104C187.456 171.412 187.884 164.729 185.057 163.872C183.392 163.37 182.021 164.802 180.564 165.671C178.716 166.773 176.782 168.058 175.362 168.866C175.656 167.932 176.067 167.039 176.586 166.21C176.902 165.67 177.075 165.059 177.088 164.435C177.088 163.994 176.746 162.99 176.17 163.003C175.595 163.015 174.946 164.092 174.653 164.386C173.625 165.396 172.687 166.493 171.85 167.666C171.337 168.346 170.925 169.096 170.626 169.894C170.318 170.746 169.78 171.496 169.071 172.06C165.974 174.496 154.432 179.257 154.432 179.257Z" fill="#FFA8A7"/>
<path d="M183.6 168.046C180.613 160.702 178.018 145.671 176.256 139.257C174.297 131.913 171.47 134.484 178.3 130.089C183.367 129.869 187.578 128.927 190.405 140.408C193.232 151.889 196.109 162.183 196.109 162.183C197.113 163.125 210.797 174.753 215.534 176.956C216.407 177.343 217.391 177.395 218.3 177.103C220.846 176.344 223.526 176.712 225.926 176.589C227.798 176.491 228.826 175.891 228.998 176.283C229.14 176.806 229.087 177.363 228.848 177.85C228.609 178.337 228.201 178.72 227.7 178.927C226.607 179.462 225.458 179.873 224.273 180.151C226.237 180.864 228.304 181.249 230.393 181.289C235.228 181.412 236.66 183.554 232.205 188.193C229.414 191.106 225.497 191.865 217.443 188.572C214.604 187.396 211.829 186.068 209.132 184.594C202.584 181.032 197.712 178.927 193.355 176.54C185.191 172.048 184.701 170.824 183.6 168.046Z" fill="#B16668"/>
<path d="M214.983 235.696C214.322 236.357 213.576 237.128 213.637 237.985C213.842 239.812 214.622 241.526 215.865 242.881C217.627 244.852 218.729 248.573 219.022 251.082C219.316 253.591 219.426 260.005 222.56 262.575C225.693 265.145 233.392 266.553 233.478 261.877C233.564 257.202 224.665 239.099 224.665 239.099L214.983 235.696Z" fill="#263238"/>
<path d="M219.206 238.707C220.443 241.989 221.425 245.36 222.144 248.793C222.866 252.55 223.931 255.207 225.816 256.247C227.701 257.287 230.565 257.153 229.488 254.595C228.411 252.036 224.592 239.038 224.592 239.038L219.206 238.707Z" fill="#9A4A4D"/>
<path d="M193.82 172.819C193.82 172.819 207.823 179.747 215.13 183.835C222.438 187.923 232.266 193.909 233.686 197.128C235.106 200.347 234.641 208.56 233.686 216.271C232.731 223.982 230.81 237.85 230.81 237.85L209.781 205.096L185.424 188.388L193.82 172.819Z" fill="#37474F"/>
<path d="M192.78 187.862L193.918 186.528C193.918 186.528 207.847 195.096 212.156 197.923C216.464 200.751 221.054 204.043 223.098 209.074C225.142 214.105 231.421 233.823 231.421 233.823L216.648 206.32L192.78 187.862Z" fill="#263238"/>
<path d="M232.229 262.147C231.605 262.551 231.666 264.093 231.703 265.231C231.74 266.37 230.895 267.838 232.511 269.613C234.126 271.388 236.893 271.584 239.096 274.007C241.299 276.431 244.665 280.898 250.834 281.351C257.003 281.804 261.275 279.16 262.144 277.214C263.013 275.268 261.764 273.726 257.627 272.086C253.233 270.335 251.997 269.809 251.997 269.809L232.229 262.147Z" fill="#263238"/>
<path d="M236.942 248.94C236.942 248.94 240.957 256.528 243.233 259.956C245.766 263.511 248.829 266.656 252.315 269.283C253.087 269.895 254.763 270.984 255.412 271.474C255.549 271.573 255.663 271.7 255.749 271.846C255.834 271.992 255.888 272.154 255.907 272.321C255.927 272.489 255.912 272.659 255.862 272.821C255.813 272.983 255.73 273.132 255.62 273.261C254.568 274.742 249.145 276.064 245.645 274.338C242.144 272.612 238.301 268.817 236.122 267.3C235.033 266.553 234.004 265.831 233.245 265.292C232.891 265.042 232.607 264.704 232.42 264.312C232.234 263.919 232.151 263.486 232.181 263.052C232.181 262.795 232.181 262.502 232.181 262.159C232.279 260.311 228.57 253.493 228.57 253.493L236.942 248.94Z" fill="#B16668"/>
<path d="M159.046 180.506C159.046 186.626 159.242 190.126 162.376 195.818C165.509 201.51 173.392 205.206 182.608 208.499C190.271 211.228 204.445 217.067 206.672 217.63C208.9 218.193 209.365 219.356 209.818 223.358C210.271 227.361 212.841 233.542 218.729 240.776C224.959 248.426 228.619 253.481 228.619 253.481C230.312 253.688 232.03 253.425 233.584 252.721C235.139 252.018 236.47 250.9 237.431 249.49C237.431 249.49 222.658 211.914 219.94 207.091C217.223 202.269 191.788 187.299 191.788 187.299C192.695 182.509 193.361 177.676 193.784 172.819L159.046 180.506Z" fill="#37474F"/>
<path d="M195.987 180.359C195.987 180.359 195.705 185.181 192.78 187.862L194.616 188.951C195.447 187.701 196 186.287 196.237 184.804C196.473 183.322 196.388 181.806 195.987 180.359Z" fill="#263238"/>
<path d="M161.494 132.806L152.682 135.083C152.682 135.083 157.712 138.204 156.843 147.531C156.231 154.141 156.929 155.463 153.612 157.323C153.037 165.671 159.377 188.278 159.377 188.278C159.377 188.278 168.129 190.983 180.393 187.311C183.791 186.313 186.927 184.575 189.574 182.221C192.222 179.868 194.315 176.958 195.705 173.7L187.933 166.442L186.158 159.808C186.158 159.808 191.972 154.704 189.989 147.115C188.006 139.526 178.3 130.15 178.3 130.15L172.18 131.105L161.494 132.806Z" fill="#ACD2A1"/>
<path opacity="0.7" d="M161.494 132.806L152.682 135.083C152.682 135.083 157.712 138.204 156.843 147.531C156.231 154.141 156.929 155.463 153.612 157.323C153.037 165.671 159.377 188.278 159.377 188.278C159.377 188.278 168.129 190.983 180.393 187.311C183.791 186.313 186.927 184.575 189.574 182.221C192.222 179.868 194.315 176.958 195.705 173.7L187.933 166.442L186.158 159.808C186.158 159.808 191.972 154.704 189.989 147.115C188.006 139.526 178.3 130.15 178.3 130.15L172.18 131.105L161.494 132.806Z" fill="white"/>
<path d="M170.748 124.997L159.854 126.001C156.329 124.055 148.557 117.739 148.153 108.865C147.663 98.1674 155.228 90.1502 165.925 89.6606C170.835 89.4279 175.649 91.0735 179.389 94.2628C186.599 94.2628 187.884 100.309 187.039 104.961C186.82 106.272 186.29 107.512 185.493 108.576C184.697 109.641 183.657 110.5 182.462 111.081C182.853 120.028 179.671 124.594 170.748 124.997Z" fill="#263238"/>
<path d="M164.211 88.3019C165.852 92.2677 163.44 97.0168 158.838 98.9263C154.236 100.836 149.156 99.1955 147.516 95.2543C145.876 91.313 148.287 86.5516 152.889 84.6299C157.492 82.7083 162.571 84.3484 164.211 88.3019Z" fill="#263238"/>
<path d="M178.251 97.739C180.356 98.8651 183.147 103.859 183.355 114.691C183.563 123.835 180.711 126.234 179.242 126.931C177.774 127.629 174.897 127.384 172.094 127.042L172.29 131.497C172.29 131.497 177.345 136.246 177.186 138.841C177.027 141.436 170.821 142.782 167.1 140.493C164.476 138.709 162.136 136.538 160.16 134.055L159.61 120.922C159.61 120.922 158.043 122.598 155.142 120.285C152.694 118.388 151.825 115.034 153.538 113.137C153.981 112.68 154.527 112.336 155.13 112.133C155.732 111.93 156.375 111.875 157.004 111.97C157.633 112.066 158.229 112.311 158.744 112.684C159.259 113.057 159.678 113.548 159.964 114.116C163.619 113.79 167.135 112.562 170.197 110.542C172.454 109.194 174.36 107.332 175.76 105.107C177.159 102.881 178.013 100.357 178.251 97.739Z" fill="#B16668"/>
<path d="M173.049 112.855C173.071 113.01 173.061 113.167 173.02 113.317C172.979 113.468 172.908 113.608 172.811 113.73C172.715 113.853 172.594 113.954 172.457 114.028C172.32 114.102 172.169 114.148 172.014 114.162C171.859 114.176 171.702 114.158 171.554 114.11C171.406 114.062 171.269 113.984 171.151 113.881C171.034 113.779 170.939 113.653 170.872 113.513C170.805 113.372 170.766 113.219 170.76 113.063C170.741 112.911 170.753 112.757 170.795 112.609C170.837 112.462 170.908 112.324 171.004 112.204C171.099 112.085 171.218 111.985 171.353 111.912C171.488 111.839 171.636 111.793 171.788 111.778C172.095 111.767 172.395 111.871 172.629 112.071C172.862 112.27 173.012 112.55 173.049 112.855Z" fill="#263238"/>
<path d="M173.71 120.64L176.415 121.375C176.375 121.555 176.299 121.725 176.191 121.875C176.084 122.026 175.947 122.152 175.789 122.248C175.632 122.344 175.456 122.408 175.273 122.434C175.091 122.461 174.904 122.45 174.726 122.403C174.362 122.297 174.053 122.054 173.863 121.726C173.674 121.397 173.619 121.008 173.71 120.64Z" fill="#9A4A4D"/>
<path d="M182.376 108.816L179.401 107.666C179.465 107.468 179.569 107.285 179.707 107.129C179.844 106.973 180.012 106.847 180.2 106.759C180.389 106.67 180.593 106.622 180.801 106.615C181.009 106.609 181.216 106.646 181.409 106.723C181.811 106.877 182.137 107.182 182.318 107.573C182.498 107.964 182.519 108.41 182.376 108.816Z" fill="#263238"/>
<path d="M182.437 112.182C182.451 112.409 182.398 112.635 182.283 112.832C182.169 113.028 181.999 113.186 181.795 113.286C181.591 113.386 181.361 113.424 181.136 113.393C180.911 113.363 180.699 113.267 180.529 113.117C180.358 112.967 180.236 112.769 180.177 112.55C180.118 112.33 180.126 112.098 180.199 111.882C180.273 111.667 180.408 111.479 180.588 111.34C180.769 111.202 180.986 111.12 181.213 111.105C181.514 111.103 181.805 111.211 182.031 111.41C182.256 111.609 182.401 111.884 182.437 112.182Z" fill="#263238"/>
<path d="M172.094 127.066C169.132 126.821 163 125.353 161.947 123.002C162.385 124.196 163.174 125.229 164.212 125.965C166.084 127.421 172.168 128.902 172.168 128.902L172.094 127.066Z" fill="#9A4A4D"/>
<path d="M176.708 111.705L177.272 118.474L180.907 116.699L176.708 111.705Z" fill="#9A4A4D"/>
<path d="M167.761 231.118C171.862 233.75 182.205 226.993 184.432 223.15C186.66 219.307 186.88 217.104 183.857 215.084C180.834 213.064 162.107 222.746 167.761 231.118Z" fill="#ACD2A1"/>
<path d="M167.749 232.024C171.861 234.643 182.204 227.018 184.432 223.174C186.66 219.331 186.88 217.128 183.857 215.108C180.833 213.089 159.377 225.463 167.749 232.024Z" fill="#263238"/>
<path d="M164.273 230.164C165.264 231.045 167.223 233.713 160.356 238.805C153.489 243.897 149.879 248.169 145.521 245.598C138.042 241.192 154.909 224.888 164.273 230.164Z" fill="#263238"/>
<path d="M223.208 292L219.096 288.793C218.099 288.152 217.169 287.414 216.317 286.59C215.83 285.899 215.384 285.18 214.983 284.436C212.488 280.54 210.384 276.408 208.704 272.098C206.794 265.341 197.529 232.734 195.619 227.972C193.355 222.318 175.57 210.433 166.819 204.851C163.905 202.991 147.932 194.655 147.932 194.655L131.017 186.344C129.327 192.464 127.957 197.275 129.584 203.786C131.212 210.298 136.855 214.545 145.239 220.298C152.18 225.059 172.4 233.272 174.493 234.386C176.586 235.5 178.85 235.537 179.218 239.747C179.585 243.958 179.059 245.769 182.694 251.461C187.357 258.744 196.023 268.193 198.532 275.745C198.704 276.272 198.63 276.835 198.789 277.373C199.034 278.073 199.23 278.789 199.377 279.515C199.522 280.972 199.792 282.413 200.185 283.824C201.017 286.174 202.927 287.936 204.665 289.723C206.403 291.51 208.337 293.701 210.283 295.513C212.222 297.393 214.561 298.812 217.125 299.662C218.41 300.072 219.766 300.211 221.108 300.072C222.449 299.933 223.748 299.519 224.922 298.854C225.488 298.57 225.962 298.132 226.291 297.591C226.62 297.05 226.79 296.427 226.782 295.794C226.484 294.774 225.817 293.901 224.91 293.346L223.208 292Z" fill="#FFA8A7"/>
<path d="M181.042 237.275C181.287 232.036 174.775 228.817 169.708 225.035C165.411 221.828 143.526 206.981 143.526 206.981C145.974 203.138 145.974 193.321 145.974 193.321L128.899 197.752C128.873 199.815 129.115 201.872 129.622 203.872C131.25 210.396 136.892 214.631 145.277 220.384C152.217 225.145 172.437 233.358 174.53 234.472C176.623 235.586 178.888 235.622 179.255 239.833C179.622 244.044 179.096 245.855 182.731 251.547C179.659 245.488 180.895 240.274 181.042 237.275Z" fill="#F28F8F"/>
<path d="M181.911 304.326C179.842 302.577 177.989 300.588 176.39 298.402C175.032 296.358 175.166 293.506 174.824 291.204C174.138 287.391 172.603 283.781 170.332 280.641C168.128 277.52 166.17 274.24 163.881 271.131C161.152 267.385 158.226 263.787 155.729 259.858C152.057 254.178 152.608 252.294 152.229 248.132C151.849 243.97 149.622 243.934 147.516 242.795C146.635 242.318 142.62 240.592 137.626 238.45C134.995 237.336 132.155 236.088 129.377 234.864C129.304 234.838 129.234 234.806 129.169 234.766C119.462 229.637 112.987 222.844 110.723 218.279C108.177 212.675 106.739 206.631 106.488 200.482L113.648 197.52L120.552 197.189L143.012 196.075C143.007 196.099 143.007 196.124 143.012 196.149C142.694 197.067 137.712 207.703 137.712 207.703C142.511 212.938 147.771 217.731 153.428 222.024C160.527 227.324 167.259 233.04 168.606 236.382C170.393 240.886 171.592 245.672 172.975 250.311C174.995 257.141 177.651 263.775 179.61 270.605C180.638 274.191 181.678 277.814 182.865 281.351C183.682 284.109 184.697 286.805 185.901 289.417C188.509 294.619 192.36 299.096 197.113 302.453C199.108 303.861 203.049 304.73 202.78 307.692C202.65 308.439 202.316 309.137 201.815 309.707C201.314 310.277 200.665 310.698 199.94 310.923C198.133 311.399 196.251 311.528 194.395 311.303C189.242 310.948 185.57 307.68 181.911 304.326Z" fill="#FFA8A7"/>
<path d="M163.832 229.772L164.273 230.164C164.273 230.164 159.708 228.364 152.767 233.003C149.095 235.451 141.751 241.449 145.521 245.598C145.521 245.598 121.947 232.134 114.921 225.574C107.896 219.013 106.488 211.987 105.668 200.983L145.962 193.37C145.962 193.37 160.834 200.947 170.099 206.442C180.944 212.856 183.882 215.084 183.882 215.084C183.882 215.084 180.932 214.362 175.534 218.058C167.774 223.383 165.534 229.858 167.774 232L163.832 229.772Z" fill="#ACD2A1"/>
<path opacity="0.4" d="M163.832 229.772L164.273 230.164C164.273 230.164 159.708 228.364 152.767 233.003C149.095 235.451 141.751 241.449 145.521 245.598C145.521 245.598 121.947 232.134 114.921 225.574C107.896 219.013 106.488 211.987 105.668 200.983L145.962 193.37C145.962 193.37 160.834 200.947 170.099 206.442C180.944 212.856 183.882 215.084 183.882 215.084C183.882 215.084 180.932 214.362 175.534 218.058C167.774 223.383 165.534 229.858 167.774 232L163.832 229.772Z" fill="black"/>
<path opacity="0.4" d="M163.832 229.772L144.665 214.888C147.227 212.549 149.335 209.756 150.882 206.65C150.885 208.178 150.577 209.691 149.977 211.097C149.378 212.502 148.499 213.771 147.394 214.827L159.291 224.533L167.749 231.95L163.832 229.772Z" fill="black"/>
<path d="M198.826 285.464C198.822 286.132 198.938 286.795 199.169 287.422C200.072 288.493 201.218 289.332 202.51 289.87C204.152 290.644 205.457 291.988 206.182 293.652C207.52 296.295 209.711 298.408 212.4 299.65C215.941 301.086 219.834 301.41 223.563 300.58C228.214 299.65 228.545 296.908 228.545 296.908C228.545 296.908 228.741 294.313 227.566 293.934C226.391 293.554 198.826 285.464 198.826 285.464Z" fill="#263238"/>
<path d="M197.627 274.081C198.028 276.289 198.131 278.541 197.933 280.776C197.835 282.135 197.811 284.277 198.826 285.464C200.234 287.337 203.196 287.912 205.118 290.458C207.04 293.004 209.904 297.679 216.036 298.769C222.168 299.858 226.758 297.826 227.86 296.076C228.961 294.326 227.86 292.698 223.931 290.654C219.732 288.487 214.139 281.914 214.139 281.914C212.472 279.953 211.137 277.733 210.185 275.341L208.961 270.862C208.643 269.944 201.935 271.657 201.238 272.979L202.058 277.067L200.222 273.236L197.627 274.081Z" fill="#455A64"/>
<path d="M212.045 297.386C212.098 295.972 212.535 294.599 213.309 293.416C214.084 292.232 215.166 291.281 216.44 290.666C221.005 288.218 223.784 289.687 225.265 290.666C226.966 291.89 229.414 294.338 227.994 296.174C226.574 298.01 223.955 299.173 219.255 299.32C216.701 299.517 214.157 298.835 212.045 297.386Z" fill="#FAFAFA"/>
<path d="M205.461 283.236C205.543 283.232 205.624 283.209 205.696 283.168C205.768 283.128 205.83 283.072 205.877 283.003C206.391 282.269 209.683 279.478 212.939 280.311C213.098 279.944 212.817 279.552 212.144 279.172C210.787 279.175 209.446 279.469 208.213 280.035C206.979 280.601 205.882 281.425 204.995 282.453C204.957 282.508 204.931 282.57 204.917 282.635C204.904 282.7 204.904 282.768 204.918 282.833C204.932 282.899 204.959 282.96 204.998 283.015C205.036 283.07 205.085 283.116 205.142 283.15C205.238 283.209 205.349 283.238 205.461 283.236Z" fill="#FAFAFA"/>
<path d="M214.836 282.71C214.781 282.465 214.667 282.237 214.506 282.046C214.344 281.854 214.138 281.704 213.906 281.608C212.621 281.679 211.363 282.006 210.206 282.572C209.05 283.138 208.019 283.929 207.174 284.901C207.136 284.956 207.109 285.018 207.096 285.083C207.083 285.148 207.083 285.216 207.097 285.281C207.111 285.347 207.138 285.408 207.176 285.463C207.215 285.518 207.264 285.564 207.321 285.598C207.412 285.667 207.526 285.698 207.639 285.684C207.721 285.683 207.802 285.663 207.874 285.624C207.946 285.586 208.009 285.531 208.055 285.464C208.557 284.742 211.679 282.098 214.836 282.71Z" fill="#FAFAFA"/>
<path d="M211.47 278.108C211.513 277.984 211.53 277.853 211.52 277.722C211.509 277.592 211.472 277.465 211.41 277.35C211.347 277.235 211.262 277.134 211.159 277.054C211.055 276.973 210.936 276.915 210.809 276.884C207.137 276.076 203.465 279.075 202.804 280.042C202.767 280.097 202.741 280.16 202.729 280.226C202.716 280.292 202.718 280.36 202.732 280.425C202.747 280.49 202.776 280.552 202.815 280.606C202.855 280.66 202.906 280.705 202.964 280.739C203.055 280.808 203.169 280.839 203.282 280.825C203.363 280.823 203.444 280.802 203.516 280.764C203.588 280.726 203.65 280.671 203.698 280.605C204.237 279.76 208.006 276.602 211.47 278.108Z" fill="#FAFAFA"/>
<path d="M220.026 287.863C219.706 287.257 219.181 286.785 218.545 286.529C217.212 286.557 215.9 286.863 214.692 287.428C213.484 287.993 212.408 288.804 211.532 289.809C211.494 289.866 211.468 289.929 211.455 289.996C211.443 290.063 211.444 290.132 211.459 290.198C211.474 290.265 211.502 290.327 211.542 290.382C211.582 290.438 211.632 290.484 211.691 290.519C211.785 290.579 211.898 290.605 212.009 290.592C212.091 290.591 212.171 290.57 212.243 290.531C212.315 290.493 212.378 290.439 212.425 290.372C212.976 289.552 216.648 286.529 220.026 287.863Z" fill="#FAFAFA"/>
<path d="M209.83 288.144C209.911 288.141 209.99 288.118 210.061 288.078C210.131 288.037 210.191 287.98 210.234 287.912C210.748 287.19 213.98 284.46 217.186 285.207C217.103 284.944 216.96 284.703 216.769 284.504C216.578 284.304 216.344 284.151 216.085 284.056C214.799 284.131 213.541 284.462 212.385 285.029C211.229 285.597 210.198 286.39 209.353 287.361C209.316 287.416 209.291 287.478 209.279 287.543C209.266 287.609 209.267 287.676 209.281 287.74C209.294 287.805 209.321 287.867 209.358 287.921C209.396 287.976 209.444 288.023 209.5 288.059C209.6 288.116 209.714 288.145 209.83 288.144Z" fill="#FAFAFA"/>
<path d="M174.297 297.496C174.294 298.164 174.41 298.827 174.64 299.454C175.541 300.527 176.687 301.367 177.982 301.902C179.624 302.676 180.928 304.02 181.654 305.684C182.988 308.329 185.18 310.444 187.872 311.682C191.413 313.112 195.305 313.436 199.035 312.612C203.686 311.682 204.016 308.94 204.016 308.94C204.016 308.94 204.212 306.345 203.037 305.966C201.862 305.587 174.297 297.496 174.297 297.496Z" fill="#263238"/>
<path d="M173.085 286.1C173.495 288.311 173.603 290.568 173.404 292.808C173.306 294.167 173.281 296.296 174.297 297.496C175.705 299.369 178.667 299.944 180.589 302.49C182.51 305.036 185.374 309.711 191.507 310.801C197.639 311.89 202.229 309.858 203.33 308.096C204.432 306.333 203.33 304.717 199.401 302.686C195.203 300.519 189.609 293.946 189.609 293.946C187.945 291.983 186.61 289.763 185.656 287.373L184.432 282.894C184.114 281.976 177.406 283.689 176.708 285.011L177.529 289.099L175.693 285.268L173.085 286.1Z" fill="#455A64"/>
<path d="M187.517 309.418C187.569 308.004 188.006 306.631 188.781 305.448C189.555 304.264 190.637 303.313 191.911 302.698C196.476 300.25 199.255 301.719 200.736 302.698C202.437 303.922 204.885 306.37 203.465 308.206C202.045 310.042 199.426 311.205 194.726 311.352C192.172 311.549 189.628 310.867 187.517 309.418Z" fill="#FAFAFA"/>
<path d="M180.931 295.268C181.013 295.261 181.093 295.237 181.165 295.197C181.237 295.157 181.299 295.102 181.348 295.035C181.849 294.301 185.154 291.51 188.41 292.343C188.569 291.963 188.288 291.584 187.614 291.204C186.257 291.207 184.917 291.501 183.683 292.067C182.45 292.633 181.353 293.457 180.466 294.485C180.426 294.539 180.398 294.601 180.384 294.667C180.37 294.732 180.369 294.801 180.383 294.866C180.397 294.932 180.425 294.995 180.464 295.049C180.504 295.103 180.555 295.149 180.613 295.182C180.709 295.241 180.819 295.27 180.931 295.268Z" fill="#FAFAFA"/>
<path d="M190.307 294.742C190.252 294.497 190.138 294.269 189.976 294.078C189.814 293.886 189.609 293.736 189.377 293.64C188.092 293.711 186.833 294.038 185.677 294.604C184.521 295.17 183.49 295.961 182.645 296.933C182.607 296.988 182.58 297.05 182.567 297.115C182.554 297.18 182.554 297.248 182.568 297.313C182.581 297.379 182.608 297.44 182.647 297.495C182.685 297.55 182.735 297.596 182.792 297.63C182.885 297.694 182.997 297.724 183.11 297.716C183.191 297.712 183.271 297.691 183.343 297.653C183.415 297.615 183.477 297.561 183.526 297.496C184.028 296.774 187.149 294.13 190.307 294.742Z" fill="#FAFAFA"/>
<path d="M186.942 290.14C186.985 290.016 187.001 289.885 186.991 289.754C186.98 289.624 186.943 289.497 186.881 289.382C186.819 289.267 186.733 289.166 186.63 289.086C186.526 289.005 186.408 288.947 186.281 288.916C182.609 288.108 178.937 291.107 178.276 292.074C178.238 292.129 178.212 292.192 178.2 292.258C178.187 292.324 178.189 292.392 178.204 292.457C178.219 292.522 178.247 292.584 178.287 292.638C178.326 292.692 178.377 292.737 178.435 292.771C178.528 292.835 178.64 292.865 178.753 292.857C178.834 292.852 178.913 292.83 178.985 292.792C179.057 292.754 179.12 292.701 179.169 292.637C179.708 291.792 183.478 288.622 186.942 290.14Z" fill="#FAFAFA"/>
<path d="M195.497 299.882C195.172 299.283 194.648 298.816 194.016 298.561C192.683 298.589 191.371 298.895 190.163 299.46C188.955 300.025 187.879 300.836 187.003 301.841C186.965 301.896 186.939 301.959 186.927 302.025C186.914 302.091 186.916 302.159 186.931 302.224C186.946 302.29 186.974 302.351 187.014 302.405C187.053 302.459 187.104 302.505 187.162 302.539C187.253 302.607 187.367 302.638 187.48 302.624C187.562 302.622 187.642 302.601 187.714 302.563C187.786 302.525 187.849 302.47 187.896 302.404C188.422 301.621 192.07 298.561 195.497 299.882Z" fill="#FAFAFA"/>
<path d="M185.289 300.176C185.372 300.173 185.452 300.15 185.525 300.11C185.597 300.069 185.659 300.013 185.705 299.944C186.207 299.209 189.45 296.48 192.657 297.226C192.571 296.966 192.427 296.729 192.236 296.531C192.046 296.334 191.813 296.183 191.556 296.088C190.274 296.157 189.018 296.48 187.862 297.039C186.706 297.598 185.673 298.382 184.824 299.344C184.785 299.399 184.759 299.461 184.746 299.526C184.732 299.592 184.733 299.659 184.746 299.725C184.76 299.79 184.787 299.852 184.826 299.906C184.864 299.961 184.913 300.007 184.97 300.042C185.062 300.116 185.172 300.162 185.289 300.176Z" fill="#FAFAFA"/>
<path d="M112.302 150.126L105.35 151.24C105.35 151.24 104.309 170.702 100.637 172.501C100.16 191.742 106.329 211.081 106.329 211.081C106.329 211.081 116.586 213.615 131.641 208.34C144.824 203.725 145.925 193.333 145.925 193.333C145.925 193.333 142.106 187.776 141.335 185.23C139.279 178.413 139.977 166.552 139.291 161.974C137.688 151.301 132.779 147.507 132.779 147.507H124.211L112.302 150.126Z" fill="#FAFAFA"/>
<path d="M111.788 201.192C107.259 197.116 106.157 185.977 106.537 182.268C106.916 178.56 110.319 167.58 108.764 159.82L105.57 155.646C104.799 161.571 103.122 171.265 100.674 172.501C100.196 191.742 106.365 211.081 106.365 211.081C106.365 211.081 116.623 213.615 131.678 208.34C134.978 207.253 138.002 205.461 140.539 203.089C133.085 206.553 116.17 205.096 111.788 201.192Z" fill="#EBEBEB"/>
<path d="M106.231 116.736C107.296 115.658 109.095 114.924 110.405 116.099C110.606 116.303 110.771 116.538 110.894 116.797C110.968 116.956 111.029 117.115 111.09 117.274C111.409 118.595 111.504 119.961 111.372 121.313L111.555 124.863C111.629 126.368 111.702 127.874 111.788 129.392L112.718 129.33L112.853 135.744L112.767 141.069L112.228 140.995C111.595 140.805 111.013 140.475 110.523 140.03C110.034 139.586 109.651 139.037 109.401 138.425C108.593 136.834 107.553 135.34 106.806 133.688C106.035 131.994 105.384 130.247 104.86 128.461C104.082 126.189 103.806 123.776 104.052 121.387C104.279 119.658 105.035 118.041 106.219 116.76L106.231 116.736Z" fill="#263238"/>
<path d="M138.814 115.365C138.886 115.347 138.962 115.347 139.034 115.365C139.123 115.405 139.199 115.468 139.254 115.548C140.056 116.655 140.485 117.988 140.478 119.355C140.514 120.399 140.273 121.433 139.781 122.354C139.278 123.277 138.441 123.973 137.443 124.3C137.147 124.385 136.833 124.385 136.537 124.3C136.201 124.189 135.904 123.986 135.68 123.712C135.281 123.257 134.933 122.761 134.64 122.231C134.008 121.362 133.725 120.288 133.844 119.22C133.884 119.051 133.959 118.893 134.064 118.755C134.179 118.647 134.312 118.56 134.456 118.498C135.027 118.119 135.579 117.71 136.109 117.274C136.61 116.931 137.1 116.589 137.565 116.221C138.03 115.854 138.312 115.524 138.814 115.365Z" fill="#263238"/>
<path d="M112.852 130.432C112.155 130.811 111.237 129.465 110.404 128.547C110.087 128.155 109.675 127.85 109.208 127.661C108.74 127.472 108.232 127.405 107.732 127.466C107.231 127.527 106.754 127.715 106.346 128.011C105.938 128.307 105.612 128.702 105.398 129.159C103.881 132.06 106.047 135.842 107.969 137.066C108.646 137.513 109.46 137.704 110.265 137.605C111.07 137.507 111.814 137.124 112.363 136.527L111.788 149.991C112.862 151.677 114.272 153.124 115.929 154.242C117.586 155.36 119.455 156.125 121.42 156.491C128.018 157.641 126.867 152.121 124.786 149.367L124.933 145.255C126.593 145.587 128.284 145.739 129.976 145.707C132.742 145.389 135.166 144.851 136.243 140.31C137.32 135.769 137.969 131.742 137.553 121.864C137.124 111.472 124.089 111.387 117.442 115.218C110.796 119.049 112.852 130.432 112.852 130.432Z" fill="#FFA8A7"/>
<path d="M112.816 131.558C112.473 131.558 111.249 129.33 110.368 128.523C110.096 128.088 109.971 127.577 110.013 127.066C110.013 125.573 110.27 124.116 110.099 122.635C109.801 121.223 109.329 119.854 108.691 118.559C108.101 117.161 107.927 115.623 108.189 114.128C108.62 112.51 109.642 111.112 111.053 110.211C112.46 109.331 114.029 108.745 115.668 108.486C119.169 107.825 122.779 108.045 126.341 107.861C129.903 107.678 133.6 107.017 136.439 104.85C136.66 104.679 136.953 104.495 137.198 104.63C137.278 104.684 137.345 104.755 137.394 104.838C138.349 106.27 137.504 108.18 137.59 109.893C138.825 110.076 140.084 109.797 141.127 109.11C141.516 109.555 141.782 110.094 141.9 110.673C142.018 111.253 141.984 111.853 141.8 112.415C141.494 114.378 140.646 116.218 139.352 117.727C138.128 119.085 135.754 118.951 134.163 118.314C134.068 118.266 133.963 118.24 133.857 118.241C133.685 118.241 133.563 118.4 133.44 118.535C132.642 119.31 131.671 119.884 130.607 120.212C129.543 120.54 128.417 120.611 127.32 120.42C125.105 120.175 122.987 119.355 120.797 118.951C119.95 118.761 119.072 118.761 118.226 118.951C117.198 119.245 116.867 119.881 116.292 120.738C116.02 121.124 115.782 121.534 115.582 121.962C115.418 122.426 115.303 122.906 115.24 123.394C115.056 124.483 114.652 131.656 112.816 131.558Z" fill="#263238"/>
<path d="M124.946 145.255C124.946 145.255 118.826 143.786 116.757 142.562C115.517 141.856 114.522 140.789 113.905 139.502C114.181 140.773 114.71 141.976 115.46 143.039C116.941 145.096 124.885 146.883 124.885 146.883L124.946 145.255Z" fill="#F28F8F"/>
<path d="M125.276 129.061C125.255 129.297 125.165 129.522 125.018 129.709C124.872 129.895 124.674 130.035 124.449 130.111C124.224 130.187 123.983 130.196 123.753 130.137C123.523 130.078 123.315 129.953 123.155 129.779C122.995 129.604 122.889 129.386 122.85 129.152C122.811 128.918 122.841 128.678 122.936 128.461C123.031 128.243 123.187 128.058 123.385 127.928C123.583 127.798 123.815 127.728 124.052 127.727C124.222 127.726 124.391 127.761 124.547 127.83C124.704 127.898 124.844 127.998 124.959 128.124C125.074 128.249 125.162 128.397 125.216 128.559C125.271 128.72 125.291 128.891 125.276 129.061Z" fill="#263238"/>
<path d="M123.195 123.21L120.515 124.569C120.338 124.203 120.311 123.782 120.439 123.396C120.567 123.01 120.84 122.689 121.2 122.501C121.377 122.41 121.57 122.357 121.768 122.344C121.966 122.331 122.164 122.359 122.351 122.426C122.537 122.492 122.709 122.596 122.854 122.731C122.999 122.866 123.115 123.029 123.195 123.21Z" fill="#263238"/>
<path d="M124.236 137.103L127.296 138.388C127.221 138.595 127.106 138.785 126.956 138.947C126.806 139.108 126.624 139.237 126.423 139.327C126.221 139.416 126.004 139.463 125.784 139.466C125.564 139.469 125.345 139.427 125.141 139.343C124.729 139.16 124.405 138.824 124.236 138.406C124.067 137.988 124.067 137.521 124.236 137.103Z" fill="#F28F8F"/>
<path d="M136.219 124.912L133.893 122.978C134.013 122.82 134.163 122.688 134.335 122.59C134.507 122.492 134.697 122.43 134.894 122.407C135.09 122.384 135.289 122.401 135.479 122.457C135.669 122.513 135.846 122.607 135.998 122.733C136.307 122.999 136.502 123.373 136.543 123.779C136.584 124.184 136.468 124.59 136.219 124.912Z" fill="#263238"/>
<path d="M135.24 128.914C135.24 129.239 135.111 129.55 134.881 129.78C134.652 130.009 134.34 130.138 134.016 130.138C133.676 130.125 133.356 129.978 133.126 129.729C132.895 129.48 132.773 129.149 132.786 128.81C132.799 128.471 132.946 128.151 133.195 127.92C133.444 127.689 133.774 127.567 134.114 127.58C134.276 127.592 134.434 127.637 134.578 127.711C134.723 127.785 134.852 127.887 134.956 128.011C135.061 128.135 135.14 128.279 135.189 128.434C135.238 128.589 135.255 128.752 135.24 128.914Z" fill="#263238"/>
<path d="M128.985 127.923L129.107 135.328L133.636 133.982L128.985 127.923Z" fill="#F28F8F"/>
<path d="M87.9442 196.981C88.2502 188.499 92.3506 172.599 93.489 165.573C94.7986 157.531 96.7326 152.525 105.35 151.24C108.067 153.186 111.017 162.66 106.745 173.48C105.276 179.453 102.84 196.736 102.84 196.736C103.403 198.107 111.69 215.537 115.337 219.772C116.029 220.532 116.973 221.015 117.993 221.13C120.809 221.522 123.293 223.052 125.692 223.995C127.565 224.717 128.838 224.582 128.838 225.059C128.838 225.537 128.226 226.871 126.39 227.067C125.085 227.109 123.78 227.007 122.498 226.761C124.104 228.319 125.957 229.601 127.981 230.555C132.657 232.807 133.11 235.549 126.757 238.12C122.743 239.735 118.569 238.768 112.069 232C110.221 230.053 107.736 227.104 105.68 224.447C100.857 218.058 97.0018 213.86 93.7827 209.6C87.7851 201.657 87.8341 200.2 87.9442 196.981Z" fill="#FFA8A7"/>
<path d="M185.35 213.456C183.454 212.268 181.766 210.775 180.356 209.037C181.599 209.438 182.885 209.693 184.187 209.796C184.761 209.874 185.345 209.746 185.833 209.435C186.322 209.123 186.684 208.648 186.856 208.095C186.856 207.63 185.632 207.618 183.857 206.663C181.58 205.439 179.303 203.64 176.513 202.991C175.522 202.744 174.653 202.149 174.065 201.314C169.352 195.941 162.62 184.435 159.058 178.964L158.177 154.263C158.177 154.263 161.2 138.792 153.575 134.9C147.541 136.246 145.472 138.731 144.505 144.484C143.538 150.236 144.885 177.96 145.374 181.999C145.695 183.651 146.395 185.205 147.418 186.54C147.418 186.54 151.09 191.02 152.057 192.036C155.729 196.271 160.442 201.583 162.694 203.994C165.203 206.981 167.798 210.935 169.414 213.089C175.007 220.58 179.034 222.036 183.208 220.91C189.867 219.013 189.72 216.247 185.35 213.456Z" fill="#B16668"/>
</svg>
