<svg width="94" height="24" viewBox="0 0 94 24" fill="none" xmlns="http://www.w3.org/2000/svg">
<path d="M89.645 4.54403V18.624H93.517V22.784H80.557V18.624H84.461V4.54403H80.557V0.384033H93.517V4.54403H89.645Z" fill="#3A3A3A"/>
<path d="M71.1336 11.232H75.8696V22.784H71.9656V21.44C70.4083 22.592 68.4029 23.168 65.9496 23.168C63.8803 23.168 61.9816 22.72 60.2536 21.824C58.5256 20.928 57.1496 19.6267 56.1256 17.92C55.1016 16.192 54.5896 14.144 54.5896 11.776C54.5896 9.49333 55.1123 7.46667 56.1576 5.696C57.2243 3.904 58.6963 2.50667 60.5736 1.504C62.4509 0.501333 64.5629 0 66.9096 0C68.8723 0 70.6536 0.330666 72.2536 0.991999C73.8536 1.65333 75.1976 2.61333 76.2856 3.872L72.9576 6.944C71.3576 5.25867 69.4269 4.416 67.1656 4.416C65.7363 4.416 64.4669 4.72533 63.3576 5.344C62.2483 5.94133 61.3843 6.79467 60.7656 7.904C60.1469 9.01333 59.8376 10.2933 59.8376 11.744C59.8376 13.2587 60.1363 14.5493 60.7336 15.616C61.3523 16.6827 62.1736 17.4933 63.1976 18.048C64.2216 18.5813 65.3416 18.848 66.5576 18.848C68.3709 18.848 69.8963 18.336 71.1336 17.312V11.232Z" fill="#3A3A3A"/>
<path d="M38.5656 23.168C36.2402 23.168 34.1389 22.6667 32.2616 21.664C30.4056 20.6613 28.9442 19.2853 27.8776 17.536C26.8322 15.7653 26.3096 13.7813 26.3096 11.584C26.3096 9.38667 26.8322 7.41333 27.8776 5.664C28.9442 3.89333 30.4056 2.50667 32.2616 1.504C34.1389 0.501333 36.2402 0 38.5656 0C40.8909 0 42.9816 0.501333 44.8376 1.504C46.6936 2.50667 48.1549 3.89333 49.2216 5.664C50.2882 7.41333 50.8216 9.38667 50.8216 11.584C50.8216 13.7813 50.2882 15.7653 49.2216 17.536C48.1549 19.2853 46.6936 20.6613 44.8376 21.664C42.9816 22.6667 40.8909 23.168 38.5656 23.168ZM38.5656 18.752C39.8882 18.752 41.0829 18.4533 42.1496 17.856C43.2162 17.2373 44.0482 16.384 44.6456 15.296C45.2642 14.208 45.5736 12.9707 45.5736 11.584C45.5736 10.1973 45.2642 8.96 44.6456 7.872C44.0482 6.784 43.2162 5.94133 42.1496 5.344C41.0829 4.72533 39.8882 4.416 38.5656 4.416C37.2429 4.416 36.0482 4.72533 34.9816 5.344C33.9149 5.94133 33.0722 6.784 32.4536 7.872C31.8562 8.96 31.5576 10.1973 31.5576 11.584C31.5576 12.9707 31.8562 14.208 32.4536 15.296C33.0722 16.384 33.9149 17.2373 34.9816 17.856C36.0482 18.4533 37.2429 18.752 38.5656 18.752Z" fill="#3A3A3A"/>
<path d="M0 0.384033H10.176C12.608 0.384033 14.752 0.853367 16.608 1.79203C18.4853 2.70937 19.936 4.0107 20.96 5.69603C22.0053 7.38137 22.528 9.34403 22.528 11.584C22.528 13.824 22.0053 15.7867 20.96 17.472C19.936 19.1574 18.4853 20.4694 16.608 21.408C14.752 22.3254 12.608 22.784 10.176 22.784H0V0.384033ZM9.92 18.528C12.16 18.528 13.9413 17.9094 15.264 16.672C16.608 15.4134 17.28 13.7174 17.28 11.584C17.28 9.4507 16.608 7.76537 15.264 6.52803C13.9413 5.26937 12.16 4.64003 9.92 4.64003H5.184V18.528H9.92Z" fill="#3A3A3A"/>
</svg>
