<svg width="500" height="380" viewBox="0 0 500 380" fill="none" xmlns="http://www.w3.org/2000/svg">
<path d="M266 342.3L269.54 330.41C270.16 327.83 270.98 324.79 272.08 321.32C273.08 318.2 275.62 314.92 277.94 312.56C281.55 308.89 283.27 308.87 285.69 306.92C285.91 306.78 286.16 306.57 286.37 306.46C286.828 306.211 287.229 305.87 287.55 305.46C289.64 303.2 287.63 299.69 283.38 300.03C280.19 300.28 274.97 301.19 266.49 309.94C266.38 310.08 266.27 310.19 266.17 310.32C261.72 316.11 257.54 299.59 256.78 293.44C256.633 292.487 256.273 291.579 255.727 290.784C255.181 289.989 254.463 289.327 253.627 288.846C252.79 288.366 251.857 288.08 250.895 288.01C249.933 287.94 248.967 288.087 248.07 288.44L227.41 298.1C225.439 297.528 223.338 297.598 221.41 298.3C219.964 298.807 218.76 299.835 218.031 301.183C217.302 302.531 217.102 304.102 217.47 305.59L225.86 339L201.25 420.9H254.3L266 342.3Z" fill="#FFBE9D"/>
<path d="M306.8 267.08L290.4 299.22L282.2 296.94L241 330.47C239.318 331.846 237.166 332.511 235.002 332.324C232.837 332.138 230.831 331.114 229.41 329.47L213.71 311.24C213.71 311.24 245.36 297.61 251.21 286.33C257.06 275.05 250.3 272.48 250.3 272.48L265.19 255.56L306.8 267.08Z" fill="#FF725E"/>
<path d="M285.53 201.44C285.53 201.44 261.53 196.13 227.74 163.65C193.95 131.17 178.09 88 174 88.24C169.91 88.48 151.81 80.07 117.47 154.76C83.1298 229.45 96.6598 246.76 103.47 246.66C110.28 246.56 156.69 233.59 185.67 236.88C214.65 240.17 251.9 255.28 251.9 255.28L285.53 201.44Z" fill="#FF725E"/>
<path d="M336.52 242.15L328.33 257.72L324.66 264.72C322.237 269.328 318.139 272.83 313.21 274.505C308.281 276.18 302.898 275.899 298.17 273.72L246.72 255.79L276.72 187.39L328.12 214.78C332.848 217.31 336.385 221.608 337.959 226.735C339.532 231.862 339.015 237.403 336.52 242.15Z" fill="#FF725E"/>
<g opacity="0.4">
<path d="M336.52 242.15L328.33 257.72L324.66 264.72C322.237 269.328 318.139 272.83 313.21 274.505C308.281 276.18 302.898 275.899 298.17 273.72L246.72 255.79L276.72 187.39L328.12 214.78C332.848 217.31 336.385 221.608 337.959 226.735C339.532 231.862 339.015 237.403 336.52 242.15Z" fill="black"/>
</g>
<path d="M120.21 156.12C101.94 196.58 94.3298 232.64 103.21 236.65C112.09 240.66 134.12 211.12 152.39 170.65C170.66 130.18 178.27 94.1401 169.39 90.1201C160.51 86.1001 138.48 115.66 120.21 156.12Z" fill="#FF725E"/>
<g opacity="0.5">
<path d="M120.21 156.12C101.94 196.58 94.3298 232.64 103.21 236.65C112.09 240.66 134.12 211.12 152.39 170.65C170.66 130.18 178.27 94.1401 169.39 90.1201C160.51 86.1001 138.48 115.66 120.21 156.12Z" fill="black"/>
</g>
<path d="M340.94 264.65L326.99 260.27L335.62 243.87L346.08 250.37L340.94 264.65Z" fill="#FF725E"/>
<g opacity="0.6">
<path d="M335.62 243.87L326.99 260.27L329.86 261.17L336.87 244.64L335.62 243.87Z" fill="black"/>
</g>
<path d="M326 247.65C325.8 248.1 318.84 245.4 310.46 241.65C302.08 237.9 295.46 234.42 295.65 233.97C295.84 233.52 302.81 236.23 311.2 240.02C319.59 243.81 326.21 247.2 326 247.65Z" fill="#FF725E"/>
<path d="M330.3 237.88C330.08 238.32 323.78 235.67 316.23 231.95C308.68 228.23 302.74 224.86 302.96 224.41C303.18 223.96 309.47 226.62 317.02 230.34C324.57 234.06 330.52 237.43 330.3 237.88Z" fill="#FF725E"/>
<path d="M320.6 257.9C320.53 258.14 318.87 257.76 316.23 256.9C314.91 256.49 313.34 255.97 311.61 255.38C309.88 254.79 308.11 253.85 306.2 252.98C298.57 249.44 292.74 245.98 292.93 245.56C293.12 245.14 299.39 247.85 306.93 251.36C308.83 252.22 310.59 253.16 312.25 253.85C313.91 254.54 315.4 255.15 316.65 255.71C319.15 256.86 320.67 257.66 320.6 257.9Z" fill="#FF725E"/>
<path d="M157.46 147.13C157.46 147.13 136.6 134.19 125.19 162.38C113.78 190.57 135.72 195.2 135.72 195.2C145.194 180.281 152.513 164.097 157.46 147.13Z" fill="#FF725E"/>
<g opacity="0.5">
<path d="M179.65 113.53C179.78 113.53 179.48 115.47 178.84 118.92C178.2 122.37 177.24 127.36 175.9 133.5L173 143.37C172.473 145.137 171.93 146.967 171.37 148.86L170.52 151.73C170.21 152.73 169.8 153.64 169.44 154.61L164.73 166.77C164.32 167.83 163.9 168.89 163.49 169.96C163.08 171.03 162.49 172.05 162.02 173.11L158.92 179.51L155.81 185.9C155.28 186.9 154.81 188.02 154.24 189C153.67 189.98 153.07 191 152.5 191.95L145.85 203.18C145.31 204.06 144.85 204.97 144.25 205.81L142.52 208.26L139.2 212.94L133.2 221.31C129.2 226.14 125.86 229.95 123.56 232.6C122.43 234.035 121.183 235.373 119.83 236.6C120.77 235.039 121.841 233.56 123.03 232.18C125.25 229.35 128.38 225.39 132.22 220.52L137.97 212.09L141.19 207.4C141.75 206.6 142.31 205.78 142.88 204.95C143.45 204.12 143.88 203.21 144.43 202.32L151 191.1L152.71 188.16C153.3 187.16 153.71 186.16 154.26 185.08L157.34 178.73C158.34 176.58 159.41 174.47 160.43 172.38C160.91 171.38 161.49 170.32 161.89 169.26L163.14 166.1L167.92 154.1C168.29 153.1 168.71 152.21 169.03 151.25C169.35 150.29 169.62 149.35 169.91 148.41L171.61 142.98L174.68 133.23L178.15 118.83C178.498 117.024 179 115.251 179.65 113.53Z" fill="black"/>
</g>
<g opacity="0.4">
<path d="M218.69 309C220.6 312.46 222.54 316 225.35 318.73C228.16 321.46 232 323.4 236 323C240 322.6 243.65 319.34 243.69 315.4C245.57 316.81 248.46 316.05 250.02 314.28C251.58 312.51 252.09 310.06 252.27 307.71C254.83 309.22 258.39 308.03 260.1 305.6C260.885 304.334 261.382 302.911 261.555 301.431C261.727 299.952 261.572 298.453 261.1 297.04C260.126 294.228 258.741 291.576 256.99 289.17C258.99 289.33 261.05 289.47 262.81 288.58C264.57 287.69 265.81 285.35 264.74 283.67C264.037 282.732 263.017 282.081 261.87 281.84C258.78 280.84 256.62 280.1 253.4 280.47C252.66 280.47 254.69 288.95 234.52 300.53C222.55 307.38 218.69 309 218.69 309Z" fill="black"/>
</g>
<path d="M264.11 321.2C264.11 321.29 262.76 321.03 260.58 321.09C257.747 321.158 254.961 321.827 252.406 323.052C249.851 324.278 247.585 326.033 245.76 328.2C244.35 329.86 243.76 331.07 243.63 331.02C243.713 330.708 243.845 330.411 244.02 330.14C244.448 329.378 244.933 328.65 245.47 327.96C247.268 325.679 249.564 323.84 252.184 322.585C254.803 321.33 257.675 320.692 260.58 320.72C261.452 320.726 262.322 320.806 263.18 320.96C263.502 320.985 263.816 321.066 264.11 321.2Z" fill="#EB996E"/>
<path d="M220 303.59C223.25 306.71 225.47 310.16 228.88 313.3C230.43 314.73 232.88 317.43 234.88 317.79C236.88 318.15 238.28 317.88 239.1 315.94C239.77 314.37 238.57 312.22 237.75 310.94C235.58 307.53 233.5 304.87 231.88 302.22C231.11 300.98 232.1 300.72 232.46 301.3C234.02 302.92 236.36 304.3 237.76 306.09C239.68 308.5 240.02 311.71 245.04 310.69C245.711 310.581 246.348 310.318 246.9 309.92C248.79 308.47 248.9 305.92 248.08 303.92C247.372 302.376 246.427 300.953 245.28 299.7C247.42 302.11 249.75 304.7 253.15 304.92C254.11 305.037 255.083 304.852 255.934 304.391C256.785 303.931 257.472 303.218 257.9 302.35C258.9 300.07 257.47 297.86 256.02 296.08C253.453 292.915 250.598 289.996 247.49 287.36C246.329 286.385 244.866 285.844 243.35 285.83C241.59 285.83 239.35 286.15 238.35 287.67C237.779 288.403 237.363 289.245 237.127 290.144C236.892 291.043 236.842 291.981 236.98 292.9C236.98 292.9 232.58 290.67 229.04 293C226.861 294.531 225.295 296.784 224.62 299.36L220 303.59Z" fill="#FFBE9D"/>
<path d="M243.45 284.87C242.746 284.053 242.31 283.04 242.199 281.967C242.088 280.895 242.308 279.814 242.83 278.87C243.58 277.4 244.52 275.97 245.48 275.65C249.67 274.24 267.99 277.41 267.82 281.47C267.65 285.53 266.31 287.47 256.38 286.04C254.63 285.79 251.89 285.45 251.89 285.45L249.49 289.05L243.45 284.87Z" fill="#FFBE9D"/>
<path d="M246.73 301.89C244.325 297.926 240.82 294.746 236.64 292.74C237.322 292.85 237.978 293.08 238.58 293.42C241.59 294.875 244.117 297.167 245.86 300.02C246.263 300.584 246.558 301.218 246.73 301.89Z" fill="#EB996E"/>
<path d="M249.81 289.4C249.72 289.48 248.51 288.5 246.86 287.49C246.17 287.053 245.455 286.656 244.72 286.3C244.15 286.04 243.77 285.97 243.78 285.89C243.79 285.81 244.21 285.77 244.84 285.96C245.651 286.221 246.425 286.587 247.14 287.05C248.83 288.08 249.94 289.29 249.81 289.4Z" fill="#EB996E"/>
<path d="M252.89 285.62C251.698 285.759 250.49 285.622 249.36 285.22C248.533 284.967 247.765 284.552 247.1 284C246.6 283.57 246.39 283.22 246.44 283.17C247.402 283.792 248.432 284.302 249.51 284.69C250.656 284.924 251.785 285.235 252.89 285.62Z" fill="#EB996E"/>
<path d="M235.09 306.92C234.459 306.258 233.899 305.53 233.42 304.75C232.278 302.903 230.835 301.26 229.15 299.89C227.404 298.613 225.239 298.041 223.09 298.29C222.208 298.448 221.351 298.72 220.54 299.1C220.54 299.1 220.72 298.89 221.13 298.64C221.714 298.286 222.358 298.042 223.03 297.92C224.149 297.739 225.294 297.783 226.396 298.049C227.498 298.315 228.536 298.798 229.45 299.47C231.19 300.868 232.643 302.59 233.73 304.54C234.249 305.294 234.704 306.09 235.09 306.92Z" fill="#EB996E"/>
<path d="M249.1 347.42C246.633 347.945 244.134 348.302 241.62 348.49C239.119 348.852 236.596 349.039 234.07 349.05C236.54 348.526 239.042 348.168 241.56 347.98C244.058 347.624 246.577 347.437 249.1 347.42Z" fill="#EB996E"/>
</svg>
