<svg width="64" height="32" viewBox="0 0 64 32" fill="none" xmlns="http://www.w3.org/2000/svg">
<path d="M31.6667 17.8125C35.9681 17.8125 39.7681 18.8417 42.8556 20.1875C45.7056 21.4542 47.5 24.3042 47.5 27.3917V31.6667H15.8333V27.4181C15.8333 24.3042 17.6278 21.4542 20.4778 20.2139C23.5653 18.8417 27.3653 17.8125 31.6667 17.8125ZM10.5556 18.4722C13.4583 18.4722 15.8333 16.0972 15.8333 13.1944C15.8333 10.2917 13.4583 7.91667 10.5556 7.91667C7.65278 7.91667 5.27778 10.2917 5.27778 13.1944C5.27778 16.0972 7.65278 18.4722 10.5556 18.4722ZM13.5375 21.375C12.5611 21.2167 11.5847 21.1111 10.5556 21.1111C7.94306 21.1111 5.4625 21.6653 3.21944 22.6417C1.26667 23.4861 0 25.3861 0 27.5236V31.6667H11.875V27.4181C11.875 25.2278 12.4819 23.1694 13.5375 21.375ZM52.7778 18.4722C55.6806 18.4722 58.0556 16.0972 58.0556 13.1944C58.0556 10.2917 55.6806 7.91667 52.7778 7.91667C49.875 7.91667 47.5 10.2917 47.5 13.1944C47.5 16.0972 49.875 18.4722 52.7778 18.4722ZM63.3333 27.5236C63.3333 25.3861 62.0667 23.4861 60.1139 22.6417C57.8708 21.6653 55.3903 21.1111 52.7778 21.1111C51.7486 21.1111 50.7722 21.2167 49.7958 21.375C50.8514 23.1694 51.4583 25.2278 51.4583 27.4181V31.6667H63.3333V27.5236ZM31.6667 0C36.0472 0 39.5833 3.53611 39.5833 7.91667C39.5833 12.2972 36.0472 15.8333 31.6667 15.8333C27.2861 15.8333 23.75 12.2972 23.75 7.91667C23.75 3.53611 27.2861 0 31.6667 0Z" fill="#998565"/>
</svg>
