<svg width="20" height="20" viewBox="0 0 20 20" fill="none" xmlns="http://www.w3.org/2000/svg">
<path d="M8.27178 1.96718C9.04325 0.642641 10.9568 0.642642 11.7282 1.96718L13.4358 4.89892C13.7184 5.38412 14.192 5.72818 14.7408 5.84701L18.0567 6.56507C19.5548 6.88947 20.1461 8.70933 19.1248 9.85234L16.8642 12.3823C16.4901 12.801 16.3092 13.3577 16.3658 13.9164L16.7075 17.2919C16.8619 18.8169 15.3139 19.9416 13.9112 19.3235L10.8065 17.9554C10.2927 17.729 9.70733 17.729 9.1935 17.9554L6.0888 19.3235C4.68613 19.9416 3.13807 18.8169 3.29248 17.2919L3.63425 13.9164C3.69081 13.3577 3.50993 12.801 3.1358 12.3823L0.875223 9.85234C-0.146086 8.70933 0.44522 6.88947 1.94332 6.56507L5.25925 5.84701C5.80803 5.72818 6.28159 5.38412 6.56419 4.89892L8.27178 1.96718Z" fill="#775B2F"/>
</svg>
