<svg width="64" height="64" viewBox="0 0 64 64" fill="none" xmlns="http://www.w3.org/2000/svg">
<path d="M9.61656 61.5738V32.4405L8.78201 31.606C8.22565 30.999 7.79573 30.3162 7.49226 29.5575C7.18878 28.7988 7.03705 28.0402 7.03705 27.2815C7.03705 26.4722 7.18878 25.7014 7.49226 24.969C7.79573 24.2346 8.22565 23.5892 8.78201 23.0329L18.7207 13.0183H30.8596L42.9985 0.879395L49.2197 7.10058C51.344 9.1743 52.9119 11.5131 53.9235 14.1169C54.9351 16.7227 55.4409 19.3912 55.4409 22.1224C55.4409 24.8537 54.9351 27.5091 53.9235 30.0886C52.9119 32.6681 51.344 35.02 49.2197 37.1443L42.9985 43.3655V61.5738H9.61656ZM15.686 55.5044H36.9291V40.8619L44.8952 32.8957C46.362 31.4289 47.4747 29.7467 48.2334 27.849C48.9921 25.9533 49.3714 24.0444 49.3714 22.1224C49.3714 20.2005 48.9921 18.3038 48.2334 16.4323C47.4747 14.5609 46.362 12.8918 44.8952 11.4251L42.9985 9.45248L33.3633 19.0877H21.2244L19.4794 20.8327L24.5626 25.9159C26.0293 27.3826 27.1421 29.0517 27.9008 30.9231C28.6594 32.7946 29.0388 34.6913 29.0388 36.6132C29.0388 38.5352 28.6594 40.4451 27.9008 42.3428C27.1421 44.2385 26.0293 45.9197 24.5626 47.3865L15.686 38.5099V55.5044Z" fill="#998565"/>
</svg>
