<svg width="64" height="64" viewBox="0 0 64 64" fill="none" xmlns="http://www.w3.org/2000/svg">
<path d="M10.5555 52.7776V29.0276C9.10416 29.0276 7.86168 28.5108 6.82812 27.4772C5.79455 26.4436 5.27777 25.2012 5.27777 23.7498V18.472C5.27777 17.0206 5.79455 15.7781 6.82812 14.7446C7.86168 13.711 9.10416 13.1942 10.5555 13.1942H19C18.7801 12.7984 18.6371 12.3806 18.5712 11.9408C18.5052 11.5009 18.4722 11.0391 18.4722 10.5553C18.4722 8.35626 19.2419 6.48705 20.7812 4.9477C22.3206 3.40835 24.1898 2.63867 26.3889 2.63867C27.4005 2.63867 28.3461 2.82559 29.2257 3.19944C30.1053 3.57328 30.919 4.09006 31.6667 4.74978C32.4143 4.04608 33.228 3.5183 34.1076 3.16645C34.9873 2.8146 35.9329 2.63867 36.9444 2.63867C39.1435 2.63867 41.0127 3.40835 42.5521 4.9477C44.0914 6.48705 44.8611 8.35626 44.8611 10.5553C44.8611 11.0391 44.8171 11.4899 44.7292 11.9078C44.6412 12.3256 44.5092 12.7544 44.3333 13.1942H52.7778C54.2292 13.1942 55.4716 13.711 56.5052 14.7446C57.5388 15.7781 58.0555 17.0206 58.0555 18.472V23.7498C58.0555 25.2012 57.5388 26.4436 56.5052 27.4772C55.4716 28.5108 54.2292 29.0276 52.7778 29.0276V52.7776C52.7778 54.2289 52.261 55.4714 51.2274 56.505C50.1939 57.5386 48.9514 58.0553 47.5 58.0553H15.8333C14.3819 58.0553 13.1395 57.5386 12.1059 56.505C11.0723 55.4714 10.5555 54.2289 10.5555 52.7776ZM36.9444 7.91645C36.1967 7.91645 35.57 8.16934 35.0642 8.67513C34.5584 9.18092 34.3055 9.80765 34.3055 10.5553C34.3055 11.303 34.5584 11.9298 35.0642 12.4355C35.57 12.9413 36.1967 13.1942 36.9444 13.1942C37.6921 13.1942 38.3189 12.9413 38.8246 12.4355C39.3304 11.9298 39.5833 11.303 39.5833 10.5553C39.5833 9.80765 39.3304 9.18092 38.8246 8.67513C38.3189 8.16934 37.6921 7.91645 36.9444 7.91645ZM23.75 10.5553C23.75 11.303 24.0029 11.9298 24.5087 12.4355C25.0145 12.9413 25.6412 13.1942 26.3889 13.1942C27.1366 13.1942 27.7633 12.9413 28.2691 12.4355C28.7749 11.9298 29.0278 11.303 29.0278 10.5553C29.0278 9.80765 28.7749 9.18092 28.2691 8.67513C27.7633 8.16934 27.1366 7.91645 26.3889 7.91645C25.6412 7.91645 25.0145 8.16934 24.5087 8.67513C24.0029 9.18092 23.75 9.80765 23.75 10.5553ZM10.5555 18.472V23.7498H29.0278V18.472H10.5555ZM29.0278 52.7776V29.0276H15.8333V52.7776H29.0278ZM34.3055 52.7776H47.5V29.0276H34.3055V52.7776ZM52.7778 23.7498V18.472H34.3055V23.7498H52.7778Z" fill="#998565"/>
</svg>
