<svg width="500" height="500" viewBox="0 0 500 500" fill="none" xmlns="http://www.w3.org/2000/svg">
<path d="M410 415L396.88 415.27L390.21 415.39C387.99 415.39 385.75 415.39 383.52 415.39H383.08V415V403.81V403.3H383.58L396.82 403.36C401.23 403.36 405.65 403.47 410.06 403.52H410.34V403.79C410.34 405.68 410.26 407.57 410.21 409.44L410 415ZM410 415L409.86 409.34C409.81 407.48 409.75 405.64 409.73 403.81L410 404.08C405.59 404.08 401.17 404.24 396.76 404.24L383.52 404.31L384.02 403.81L384 415L383.55 414.55C385.73 414.55 387.91 414.55 390.1 414.6L396.67 414.72L410 415Z" fill="#EBEBEB"/>
<path d="M453.66 293.67L440.53 293.94L433.87 294.06C431.65 294.06 429.41 294.06 427.18 294.11H426.73V293.67L426.68 282.48V282H427.18L440.42 282.06C444.83 282.06 449.25 282.17 453.66 282.22H453.93V282.49C453.93 284.38 453.85 286.27 453.8 288.14L453.66 293.67ZM453.66 293.67L453.52 288.01C453.52 286.15 453.4 284.31 453.39 282.48L453.66 282.75C449.25 282.8 444.83 282.91 440.42 282.91L427.18 282.97L427.68 282.48L427.62 293.67L427.18 293.22C429.36 293.22 431.54 293.22 433.72 293.22L440.3 293.34L453.66 293.67Z" fill="#EBEBEB"/>
<path d="M72.82 55.2L59.7 55.48L53 55.59C50.77 55.59 48.53 55.59 46.3 55.65H45.9V55.2L45.84 44V43.5H46.34L59.58 43.56C63.99 43.56 68.41 43.68 72.82 43.73H73.1V44C73.1 45.9 73.02 47.79 72.97 49.65L72.82 55.2ZM72.82 55.2L72.68 49.55C72.63 47.68 72.57 45.84 72.55 44.01L72.82 44.28C68.41 44.28 63.99 44.44 59.58 44.45L46.34 44.51L46.84 44.01L46.79 55.2L46.34 54.75C48.52 54.75 50.7 54.75 52.89 54.81L59.47 54.92L72.82 55.2Z" fill="#EBEBEB"/>
<path d="M251 255.59L237.87 255.87L231.21 255.99C228.99 255.99 226.75 255.99 224.52 256.04H224.08V255.59V244.41V243.9H224.58L237.82 243.96C242.23 243.96 246.65 244.07 251.06 244.12H251.33V244.39C251.33 246.28 251.25 248.17 251.2 250.04L251 255.59ZM251 255.59L250.86 249.94C250.81 248.08 250.75 246.24 250.73 244.41L251 244.68C246.59 244.68 242.17 244.84 237.76 244.84L224.52 244.9L225.02 244.41L225 255.59L224.56 255.15C226.74 255.15 228.92 255.15 231.1 255.15L237.68 255.27L251 255.59Z" fill="#EBEBEB"/>
<path d="M247.25 121.96H107.64V301.09H247.25V121.96Z" fill="white"/>
<path d="M247.25 301.09L107.64 301.18H107.55V301.09L107.42 122V121.78H107.64L247.25 121.88H247.37V122L247.25 301.09ZM247.25 301.09L247.13 122L247.25 122.12L107.64 122.22L107.86 122L107.74 301.13L107.64 301.03L247.25 301.09Z" fill="#263238"/>
<path d="M121.86 136.25C121.509 136.472 121.124 136.635 120.72 136.73C119.742 136.973 118.709 136.838 117.827 136.352C116.945 135.866 116.278 135.065 115.961 134.109C115.643 133.154 115.697 132.113 116.113 131.196C116.529 130.279 117.276 129.552 118.204 129.161C119.132 128.77 120.174 128.744 121.121 129.088C122.067 129.431 122.85 130.119 123.311 131.014C123.773 131.91 123.88 132.946 123.611 133.916C123.342 134.887 122.717 135.72 121.86 136.25Z" fill="#EBEBEB"/>
<path d="M121 132.43C121.002 132.67 120.932 132.905 120.8 133.106C120.668 133.307 120.479 133.463 120.258 133.556C120.036 133.649 119.792 133.674 119.556 133.627C119.321 133.581 119.104 133.465 118.934 133.296C118.765 133.126 118.649 132.909 118.603 132.674C118.556 132.438 118.581 132.194 118.674 131.972C118.767 131.751 118.923 131.562 119.124 131.43C119.324 131.298 119.56 131.228 119.8 131.23C120.117 131.233 120.421 131.36 120.646 131.584C120.87 131.809 120.997 132.113 121 132.43Z" fill="white"/>
<path d="M121.86 135.76V136.25C121.509 136.472 121.124 136.635 120.72 136.73C120.213 136.853 119.687 136.873 119.172 136.791C118.657 136.708 118.163 136.525 117.72 136.25V135.76C117.72 135.208 117.939 134.679 118.329 134.289C118.719 133.899 119.248 133.68 119.8 133.68C120.352 133.68 120.881 133.899 121.271 134.289C121.661 134.679 121.88 135.208 121.88 135.76H121.86Z" fill="white"/>
<path d="M234.41 132.44C234.507 132.443 234.6 132.482 234.669 132.551C234.738 132.62 234.777 132.713 234.78 132.81C234.78 132.908 234.741 133.002 234.672 133.072C234.602 133.141 234.508 133.18 234.41 133.18C234.312 133.18 234.218 133.141 234.148 133.072C234.079 133.002 234.04 132.908 234.04 132.81C234.042 132.713 234.082 132.62 234.151 132.551C234.22 132.482 234.313 132.443 234.41 132.44Z" fill="#EBEBEB"/>
<path d="M235.56 132.44C235.657 132.443 235.75 132.482 235.819 132.551C235.888 132.62 235.927 132.713 235.93 132.81C235.93 132.908 235.891 133.002 235.822 133.072C235.752 133.141 235.658 133.18 235.56 133.18C235.511 133.181 235.462 133.173 235.417 133.155C235.371 133.137 235.33 133.109 235.295 133.075C235.261 133.04 235.233 132.999 235.215 132.953C235.197 132.908 235.189 132.859 235.19 132.81C235.19 132.712 235.229 132.618 235.298 132.548C235.368 132.479 235.462 132.44 235.56 132.44Z" fill="#EBEBEB"/>
<path d="M236.7 132.44C236.798 132.44 236.892 132.479 236.962 132.548C237.031 132.618 237.07 132.712 237.07 132.81C237.071 132.859 237.063 132.908 237.045 132.953C237.026 132.999 236.999 133.04 236.965 133.075C236.93 133.109 236.889 133.137 236.843 133.155C236.798 133.173 236.749 133.181 236.7 133.18C236.602 133.18 236.508 133.141 236.438 133.072C236.369 133.002 236.33 132.908 236.33 132.81C236.332 132.713 236.372 132.62 236.441 132.551C236.51 132.482 236.603 132.443 236.7 132.44Z" fill="#EBEBEB"/>
<path d="M127.84 132.81C129.79 132.63 131.74 132.54 133.69 132.47C135.64 132.4 137.59 132.38 139.54 132.37C141.49 132.36 143.44 132.37 145.39 132.47L148.31 132.59C149.31 132.67 150.26 132.71 151.23 132.81C150.23 132.91 149.28 132.95 148.31 133.02L145.39 133.15C143.44 133.22 141.49 133.24 139.54 133.25C137.59 133.26 135.64 133.25 133.69 133.14C131.74 133.03 129.79 133 127.84 132.81Z" fill="#EBEBEB"/>
<path d="M243.08 143.75H111.8V258.98H243.08V143.75Z" fill="#EBEBEB"/>
<path d="M123 271.33C122.476 272.239 121.799 273.05 121 273.73C120.568 274.117 120.11 274.475 119.63 274.8H119.27C117.914 273.881 116.755 272.702 115.86 271.33C115.521 270.791 115.323 270.175 115.283 269.539C115.242 268.903 115.362 268.268 115.63 267.69C115.788 267.406 116.02 267.17 116.302 267.008C116.584 266.846 116.905 266.764 117.23 266.77C117.71 266.791 118.175 266.949 118.568 267.226C118.961 267.502 119.267 267.885 119.45 268.33C119.635 267.887 119.941 267.505 120.334 267.229C120.727 266.953 121.19 266.794 121.67 266.77C121.996 266.764 122.318 266.846 122.602 267.008C122.885 267.17 123.12 267.406 123.28 267.69C123.54 268.272 123.65 268.91 123.602 269.546C123.553 270.181 123.346 270.795 123 271.33Z" fill="#EBEBEB"/>
<path d="M148.1 275.26L147.53 275.15L146.37 270.82L143.68 267.88L143.92 267.34H153.4L153.66 267.86L148.1 275.26ZM144.65 268L146.9 270.46L146.97 270.59L147.97 274.37L152.75 268H144.65Z" fill="#EBEBEB"/>
<path d="M153.576 267.229L146.245 270.482L146.505 271.067L153.835 267.814L153.576 267.229Z" fill="#EBEBEB"/>
<path d="M133.78 274.85C132.929 274.85 132.099 274.582 131.409 274.084C130.719 273.585 130.203 272.882 129.935 272.075C129.668 271.267 129.661 270.395 129.917 269.583C130.173 268.771 130.678 268.06 131.36 267.552C132.043 267.043 132.868 266.763 133.72 266.75C134.571 266.738 135.404 266.994 136.102 267.482C136.799 267.97 137.325 268.665 137.605 269.469C137.884 270.273 137.904 271.144 137.66 271.96L138.27 274.46L137.88 274.85L135.75 274.35C135.146 274.68 134.468 274.852 133.78 274.85ZM133.78 267.41C132.878 267.41 132.013 267.768 131.376 268.406C130.738 269.043 130.38 269.908 130.38 270.81C130.38 271.712 130.738 272.577 131.376 273.214C132.013 273.852 132.878 274.21 133.78 274.21C134.399 274.208 135.006 274.043 135.54 273.73H135.78L137.52 274.14L137 272V271.83C137.161 271.319 137.2 270.778 137.114 270.249C137.028 269.721 136.819 269.22 136.504 268.787C136.188 268.354 135.776 268.001 135.299 267.757C134.823 267.512 134.295 267.383 133.76 267.38L133.78 267.41Z" fill="#EBEBEB"/>
<path d="M233.9 274.8L233.39 274.54V267.66L233.71 267.34H239.3L239.62 267.66V274.54L239.11 274.8L236.51 272.43L233.9 274.8ZM234 268V273.92L236.28 271.79H236.65L239 273.9V268H234Z" fill="#EBEBEB"/>
<path d="M115.27 281.19C119.94 281.01 124.6 280.93 129.27 280.86C133.94 280.79 138.6 280.79 143.27 280.76C147.94 280.73 152.6 280.76 157.27 280.86L164.27 280.98C166.61 281.05 168.94 281.09 171.27 281.19C168.94 281.29 166.61 281.33 164.27 281.41L157.27 281.53C152.6 281.6 147.94 281.59 143.27 281.63C138.6 281.67 133.94 281.63 129.27 281.53C124.6 281.43 119.94 281.37 115.27 281.19Z" fill="#EBEBEB"/>
<path d="M115.27 287.91C124.08 287.73 132.89 287.64 141.7 287.57L168.14 287.47L194.57 287.57L207.78 287.7L221 287.91L207.78 288.12L194.57 288.25L168.14 288.35L141.7 288.24C132.89 288.17 124.08 288.09 115.27 287.91Z" fill="#EBEBEB"/>
<path d="M115.27 291.27C122.27 291.09 129.37 291 136.42 290.93L157.57 290.83L178.72 290.93L189.29 291.05L199.86 291.27L189.29 291.48L178.72 291.6L157.57 291.7L136.42 291.6C129.37 291.53 122.32 291.45 115.27 291.27Z" fill="#EBEBEB"/>
<path d="M459.98 448.72L407.49 448.97L354.99 449.06L250 449.22L145.01 449.06L92.52 448.97L40.02 448.72L92.52 448.48L145.01 448.39L250 448.23L354.99 448.39L407.49 448.48L459.98 448.72Z" fill="#263238"/>
<path d="M377.84 50.04H40.55V218.48H377.84V50.04Z" fill="white"/>
<path d="M377.84 218.47L40.55 218.56H40.32V218.47L40 50V49.79H40.53L377.82 49.88H378.12V50L377.84 218.47ZM377.84 218.47L377.54 50L377.84 50.11L40.55 50.2L41.07 50L40.78 218.43L40.55 218.34L377.84 218.47Z" fill="#263238"/>
<path d="M225.64 67.76C225.208 68.0369 224.731 68.2365 224.23 68.35C223.601 68.5072 222.946 68.536 222.305 68.4346C221.664 68.3333 221.05 68.1038 220.5 67.76C219.592 67.2005 218.891 66.36 218.504 65.366C218.117 64.3719 218.065 63.2788 218.356 62.2525C218.646 61.2262 219.264 60.3228 220.115 59.6795C220.966 59.0361 222.003 58.688 223.07 58.688C224.137 58.688 225.174 59.0361 226.025 59.6795C226.876 60.3228 227.494 61.2262 227.785 62.2525C228.075 63.2788 228.023 64.3719 227.636 65.366C227.249 66.36 226.548 67.2005 225.64 67.76Z" fill="#37474F"/>
<path d="M224.56 63C224.56 63.2946 224.473 63.5827 224.309 63.8278C224.145 64.0728 223.912 64.2638 223.64 64.3765C223.368 64.4893 223.068 64.5188 222.779 64.4613C222.49 64.4038 222.225 64.2619 222.016 64.0535C221.808 63.8452 221.666 63.5797 221.609 63.2906C221.551 63.0016 221.581 62.702 221.693 62.4298C221.806 62.1575 221.997 61.9248 222.242 61.7611C222.487 61.5973 222.775 61.5099 223.07 61.5099C223.465 61.5099 223.844 61.6669 224.124 61.9464C224.403 62.2258 224.56 62.6048 224.56 63Z" fill="white"/>
<path d="M225.64 67.15V67.76C225.208 68.0368 224.731 68.2365 224.23 68.35C223.601 68.5072 222.946 68.536 222.305 68.4346C221.664 68.3332 221.05 68.1038 220.5 67.76V67.15C220.5 66.4683 220.771 65.8147 221.253 65.3327C221.735 64.8507 222.388 64.58 223.07 64.58C223.752 64.58 224.405 64.8507 224.887 65.3327C225.369 65.8147 225.64 66.4683 225.64 67.15Z" fill="white"/>
<path d="M364.68 63.05C364.801 63.0525 364.917 63.1018 365.002 63.1875C365.088 63.2733 365.137 63.3888 365.14 63.51C365.14 63.632 365.092 63.749 365.005 63.8353C364.919 63.9215 364.802 63.97 364.68 63.97C364.558 63.97 364.441 63.9215 364.355 63.8353C364.268 63.749 364.22 63.632 364.22 63.51C364.223 63.3888 364.272 63.2733 364.358 63.1875C364.443 63.1018 364.559 63.0525 364.68 63.05Z" fill="black"/>
<path d="M366.09 63.05C366.211 63.0525 366.327 63.1018 366.412 63.1875C366.498 63.2733 366.547 63.3888 366.55 63.51C366.547 63.6302 366.498 63.7447 366.412 63.8288C366.326 63.9129 366.21 63.96 366.09 63.96C365.971 63.96 365.856 63.9126 365.772 63.8282C365.687 63.7438 365.64 63.6293 365.64 63.51C365.64 63.3897 365.687 63.2742 365.771 63.1882C365.855 63.1022 365.97 63.0526 366.09 63.05Z" fill="black"/>
<path d="M367.51 63.05C367.631 63.0525 367.747 63.1018 367.833 63.1875C367.918 63.2733 367.968 63.3888 367.97 63.51C367.97 63.632 367.922 63.749 367.835 63.8353C367.749 63.9215 367.632 63.97 367.51 63.97C367.388 63.97 367.271 63.9215 367.185 63.8353C367.099 63.749 367.05 63.632 367.05 63.51C367.053 63.3888 367.102 63.2733 367.188 63.1875C367.273 63.1018 367.389 63.0525 367.51 63.05Z" fill="black"/>
<path d="M233 63.51C235.41 63.28 237.82 63.18 240.23 63.09C242.64 63 245.04 62.98 247.45 62.97C249.86 62.96 252.27 62.97 254.68 63.09L258.29 63.24C259.49 63.33 260.7 63.38 261.9 63.51C260.7 63.63 259.49 63.68 258.29 63.77L254.68 63.92C252.27 64.02 249.86 64.03 247.45 64.05C245.04 64.07 242.63 64.05 240.23 63.92C237.83 63.79 235.44 63.73 233 63.51Z" fill="#263238"/>
<path d="M227.78 185.23C227.119 186.368 226.267 187.383 225.26 188.23C224.724 188.707 224.16 189.151 223.57 189.56H223.13C221.453 188.423 220.021 186.961 218.92 185.26C218.498 184.597 218.249 183.837 218.199 183.052C218.148 182.267 218.296 181.482 218.63 180.77C218.825 180.413 219.115 180.117 219.468 179.916C219.821 179.715 220.224 179.616 220.63 179.63C221.225 179.656 221.8 179.851 222.287 180.193C222.774 180.535 223.154 181.009 223.38 181.56C223.606 181.011 223.984 180.538 224.469 180.196C224.954 179.854 225.527 179.658 226.12 179.63C226.526 179.619 226.927 179.719 227.279 179.92C227.632 180.121 227.923 180.415 228.12 180.77C228.441 181.482 228.578 182.264 228.519 183.043C228.459 183.823 228.205 184.574 227.78 185.23Z" fill="#F7DB8C"/>
<path d="M258.74 190.09L258 190L256.56 184.64L253.28 181L253.57 180.34H265.28L265.6 180.97L258.74 190.09ZM254.47 181.09L257.25 184.09L257.34 184.26L258.59 188.92L264.49 181.06L254.47 181.09Z" fill="#EBEBEB"/>
<path d="M265.492 180.185L256.434 184.205L256.758 184.936L265.816 180.917L265.492 180.185Z" fill="#EBEBEB"/>
<path d="M241.05 189.59C240.061 189.59 239.094 189.297 238.272 188.747C237.45 188.198 236.809 187.417 236.431 186.503C236.052 185.59 235.953 184.584 236.146 183.615C236.339 182.645 236.815 181.754 237.515 181.054C238.214 180.355 239.105 179.879 240.075 179.686C241.045 179.493 242.05 179.592 242.963 179.971C243.877 180.349 244.658 180.99 245.207 181.812C245.757 182.634 246.05 183.601 246.05 184.59C246.05 185.071 245.979 185.549 245.84 186.01L246.59 189.09L246.12 189.57L243.48 188.95C242.738 189.367 241.901 189.587 241.05 189.59ZM241.05 180.39C239.936 180.39 238.868 180.832 238.08 181.62C237.293 182.408 236.85 183.476 236.85 184.59C236.85 185.704 237.293 186.772 238.08 187.56C238.868 188.347 239.936 188.79 241.05 188.79C241.813 188.791 242.563 188.587 243.22 188.2H243.51L245.67 188.71L245 186.1V185.88C245.131 185.466 245.198 185.034 245.2 184.6C245.2 183.494 244.765 182.432 243.988 181.644C243.212 180.856 242.156 180.406 241.05 180.39Z" fill="#EBEBEB"/>
<path d="M364.73 189.52L364.1 189.19V180.7L364.49 180.31H371.39L371.79 180.7V189.19L371.16 189.52L367.94 186.6L364.73 189.52ZM364.89 181.1V188.41L367.71 185.78H368.18L370.99 188.41V181.1H364.89Z" fill="#EBEBEB"/>
<path d="M218.18 80.21C223.95 79.99 229.71 79.88 235.48 79.8C241.25 79.72 247.01 79.72 252.77 79.67C258.53 79.62 264.3 79.67 270.07 79.79L278.71 79.95C281.6 80.03 284.48 80.09 287.36 80.21C284.48 80.33 281.6 80.38 278.71 80.47L270.07 80.63C264.3 80.71 258.54 80.71 252.77 80.75C247 80.79 241.24 80.75 235.48 80.62C229.72 80.49 224 80.43 218.18 80.21Z" fill="#EBEBEB"/>
<path d="M218.18 88.51C229.07 88.28 239.95 88.18 250.83 88.09L283.49 88L316.14 88.12L332.46 88.27L348.79 88.54L332.46 88.8L316.14 88.95L283.49 89.08L250.83 88.95C240 88.83 229.07 88.73 218.18 88.51Z" fill="#EBEBEB"/>
<path d="M218.18 92.92C226.89 92.7 235.6 92.6 244.31 92.51L270.43 92.38L296.56 92.51L309.62 92.66L322.68 92.92L309.62 93.19L296.56 93.34L270.43 93.46L244.31 93.34C235.6 93.25 226.89 93.15 218.18 92.92Z" fill="#EBEBEB"/>
<path d="M218.18 97.24C227.87 97.01 237.56 96.91 247.25 96.82L276.33 96.7L305.4 96.82L319.94 96.97L334.48 97.24L319.94 97.5L305.4 97.65L276.33 97.78L247.25 97.65C237.56 97.56 227.87 97.46 218.18 97.24Z" fill="#EBEBEB"/>
<path d="M218.18 101.39C226.89 101.16 235.6 101.06 244.31 100.97L270.43 100.85L296.56 100.97L309.62 101.12L322.68 101.39L309.62 101.65L296.56 101.8L270.43 101.93L244.31 101.8C235.6 101.71 226.89 101.61 218.18 101.39Z" fill="#EBEBEB"/>
<path d="M218.18 109.26C226.89 109.04 235.6 108.93 244.31 108.85L270.43 108.72L296.56 108.85L309.62 109L322.68 109.26L309.62 109.53L296.56 109.68L270.43 109.8L244.31 109.67C235.6 109.59 226.89 109.48 218.18 109.26Z" fill="#EBEBEB"/>
<path d="M218.18 113.57C227.87 113.35 237.56 113.25 247.25 113.16L276.33 113.03L305.4 113.16L319.94 113.31L334.48 113.57L319.94 113.84L305.4 114L276.33 114.12L247.25 114C237.56 113.9 227.87 113.8 218.18 113.57Z" fill="#EBEBEB"/>
<path d="M218.18 117.72C226.89 117.5 235.6 117.4 244.31 117.31L270.43 117.18L296.56 117.31L309.62 117.46L322.68 117.72L309.62 117.99L296.56 118.14L270.43 118.26L244.31 118.14C235.6 118.05 226.89 118 218.18 117.72Z" fill="#EBEBEB"/>
<path d="M209.06 49.96H40.55V218.47H209.06V49.96Z" fill="#78CDF3"/>
<path d="M171.88 218.47H54.75C60.64 212.76 66.12 208.12 68.16 207.02C72.43 204.73 83.43 189.21 91.04 177.94C91.16 177.75 91.29 177.56 91.42 177.38C95.75 170.95 98.9 166.05 98.9 166.05L118.9 165.8L146.56 165.46H149.89L163.57 165.29C163.57 165.29 163.92 167.18 164.48 170.29L165.08 173.59C165.2 174.3 165.34 175.04 165.47 175.81C165.76 177.39 166.06 179.1 166.37 180.89C168.7 194.1 171.66 212.06 171.88 218.47Z" fill="#F7DB8C"/>
<path opacity="0.5" d="M171.88 218.47H54.75C60.64 212.76 66.12 208.12 68.16 207.02C72.43 204.73 83.43 189.21 91.04 177.94C91.16 177.75 91.29 177.56 91.42 177.38C95.75 170.95 98.9 166.05 98.9 166.05L118.9 165.8L146.56 165.46H149.89L163.57 165.29C163.57 165.29 163.92 167.18 164.48 170.29L165.08 173.59C165.2 174.3 165.34 175.04 165.47 175.81C165.76 177.39 166.06 179.1 166.37 180.89C168.7 194.1 171.66 212.06 171.88 218.47Z" fill="white"/>
<path d="M90.53 177.45C90.53 177.45 110 197.1 144 192.22C168.87 188.66 172.18 169.45 172.18 169.45L90.53 177.45Z" fill="#455A64"/>
<path d="M138.05 96.33C137.24 93.43 144.46 83.13 147.21 79.66C149.96 76.19 165.21 70.95 170.05 73.6C171.96 74.6 175.53 81.94 180.34 88.27C187.78 98.08 196.48 108.37 193.34 111.15C185.73 117.92 168.34 107.35 162.64 103.8C156.94 100.25 151.81 95.92 150.43 96.08C148.62 96.29 144.8 99.18 143.28 99.35C139.65 99.77 138.05 96.33 138.05 96.33Z" fill="#F7DB8C"/>
<path d="M103.67 84.66C85.94 95.34 78.15 123.66 77.67 128.15C77.29 131.84 68.86 144.91 70.42 158.93C71.42 167.93 87.67 179.87 100.85 179.71C103.28 179.71 123.85 187.05 141.15 185.79C158.45 184.53 171.65 170.5 172.15 169.45C172.65 168.4 187.22 164.1 188.05 149.6C189.38 126.47 165.05 91.07 158.27 85.71C147.09 76.83 115.72 77.4 103.67 84.66Z" fill="#F7DB8C"/>
<path opacity="0.5" d="M103.67 84.66C85.94 95.34 78.15 123.66 77.67 128.15C77.29 131.84 68.86 144.91 70.42 158.93C71.42 167.93 87.67 179.87 100.85 179.71C103.28 179.71 123.85 187.05 141.15 185.79C158.45 184.53 171.65 170.5 172.15 169.45C172.65 168.4 187.22 164.1 188.05 149.6C189.38 126.47 165.05 91.07 158.27 85.71C147.09 76.83 115.72 77.4 103.67 84.66Z" fill="white"/>
<path d="M145.08 137.07C134.18 136.76 128.79 148.25 127.37 151.24C125.95 154.23 118.97 160.94 118.52 168.24C118.07 175.54 131.58 184.12 146.25 182.1C160.92 180.08 168.84 172.18 169.03 164.8C169.18 158.85 163.77 153.5 163.21 151.91C162.65 150.32 155 137.34 145.08 137.07Z" fill="#F7DB8C"/>
<path opacity="0.2" d="M145.08 137.07C134.18 136.76 128.79 148.25 127.37 151.24C125.95 154.23 118.97 160.94 118.52 168.24C118.07 175.54 131.58 184.12 146.25 182.1C160.92 180.08 168.84 172.18 169.03 164.8C169.18 158.85 163.77 153.5 163.21 151.91C162.65 150.32 155 137.34 145.08 137.07Z" fill="white"/>
<path d="M95.0001 137.93C93.7025 133.906 93.2364 129.66 93.6301 125.45C93.813 123.272 94.315 121.132 95.1201 119.1C95.5308 118.043 96.0609 117.037 96.7001 116.1C97.3247 115.138 98.0671 114.258 98.9101 113.48C99.3304 113.081 99.7818 112.717 100.26 112.39C100.73 112.06 101.26 111.79 101.71 111.5L102.44 111.08L103.23 110.76C103.743 110.526 104.271 110.326 104.81 110.16C106.946 109.529 109.182 109.308 111.4 109.51C115.669 109.892 119.74 111.481 123.14 114.09C119.351 112.686 115.34 111.978 111.3 112C109.399 112.034 107.515 112.372 105.72 113C105.284 113.164 104.857 113.351 104.44 113.56L103.8 113.84L103.21 114.21C102.82 114.46 102.41 114.68 102.04 114.94C101.674 115.211 101.324 115.501 100.99 115.81C99.6265 117.061 98.5398 118.584 97.8001 120.28C96.9844 122.046 96.3802 123.902 96.0001 125.81C95.2545 129.805 94.9195 133.866 95.0001 137.93Z" fill="#F7DB8C"/>
<path d="M175.74 130.58C175.876 127.127 175.628 123.669 175 120.27C174.31 117.01 173 113.95 170.74 111.93C170.172 111.427 169.556 110.981 168.9 110.6C168.269 110.256 167.597 109.993 166.9 109.82C165.33 109.485 163.722 109.364 162.12 109.46C158.669 109.723 155.245 110.262 151.88 111.07C153.356 110.048 154.938 109.19 156.6 108.51C157.44 108.17 158.29 107.86 159.16 107.59C160.03 107.32 160.92 107.12 161.83 106.95C163.709 106.578 165.641 106.55 167.53 106.87C168.544 107.047 169.523 107.384 170.43 107.87C171.306 108.346 172.12 108.931 172.85 109.61C174.299 110.952 175.427 112.603 176.15 114.44C176.837 116.196 177.246 118.048 177.36 119.93C177.609 123.556 177.056 127.192 175.74 130.58Z" fill="#F7DB8C"/>
<path d="M125.49 132.65C125.43 132.47 125.07 132.91 125.08 133.12C125.49 138.12 125.08 143.89 120.16 145.78C120.01 145.84 120.04 146.09 120.22 146.06C126.23 145 126.75 137.31 125.49 132.65Z" fill="#263238"/>
<path d="M120.35 127.67C111.5 127.47 111.57 143.67 119.77 143.8C127.97 143.93 127.76 127.83 120.35 127.67Z" fill="#263238"/>
<path d="M155.22 129.56C155.22 129.36 155.67 129.75 155.69 129.95C156.01 134.95 157.31 140.6 162.41 141.76C162.57 141.76 162.58 142.05 162.41 142.04C156.29 141.87 154.65 134.35 155.22 129.56Z" fill="#263238"/>
<path d="M159.58 123.87C168.3 122.38 170.58 138.37 162.51 139.75C154.44 141.13 152.27 125.11 159.58 123.87Z" fill="#263238"/>
<path d="M144.57 144.29C143.16 144.65 134.23 141.45 135.15 138.57C136.15 135.46 149.74 134.4 151.32 136.57C152.9 138.74 146.05 143.91 144.57 144.29Z" fill="#263238"/>
<path d="M131.24 150.32C132.977 151.727 134.842 152.969 136.81 154.03C137.728 154.556 138.754 154.867 139.81 154.94C140.44 155.07 140.96 154.15 141.32 153.29C141.978 151.448 142.437 149.54 142.69 147.6C143 145.66 143.18 143.68 143.36 141.73L143.86 136.32L145.39 141.57C145.86 143.19 146.39 144.81 146.96 146.41C147.523 148.019 148.191 149.589 148.96 151.11C149.155 151.479 149.372 151.837 149.61 152.18C149.816 152.502 150.077 152.786 150.38 153.02C150.519 153.097 150.672 153.145 150.83 153.162C150.988 153.179 151.148 153.165 151.3 153.12C151.717 153.003 152.115 152.824 152.48 152.59C153.976 151.534 155.298 150.252 156.4 148.79C155.616 150.471 154.488 151.97 153.09 153.19C152.664 153.541 152.18 153.815 151.66 154C151.336 154.097 150.998 154.144 150.66 154.14C150.31 154.142 149.965 154.053 149.66 153.88C149.187 153.603 148.77 153.24 148.43 152.81C148.132 152.446 147.854 152.066 147.6 151.67C146.659 150.153 145.859 148.553 145.21 146.89C144.53 145.27 143.97 143.64 143.45 141.97L145.45 141.81C145.322 143.822 145.078 145.826 144.72 147.81C144.55 148.81 144.31 149.81 144.04 150.81C143.774 151.843 143.409 152.847 142.95 153.81C142.686 154.344 142.35 154.839 141.95 155.28C141.696 155.555 141.395 155.782 141.06 155.95C140.847 156.057 140.617 156.124 140.38 156.15C140.177 156.175 139.973 156.175 139.77 156.15C138.481 156 137.25 155.529 136.19 154.78C134.337 153.535 132.67 152.034 131.24 150.32Z" fill="#263238"/>
<path d="M142.69 153.13C142.69 153.13 143.07 160.5 145.92 160.13C148.77 159.76 148.59 152.13 148.59 152.13L144.39 143.52L142.69 153.13Z" fill="#263238"/>
<path d="M143 155.67C143.409 155.271 143.934 155.012 144.5 154.93C145.065 155.044 145.608 155.247 146.11 155.53C146.253 155.354 146.435 155.214 146.642 155.12C146.848 155.027 147.073 154.982 147.3 154.99C148.53 155.14 150 157.99 150.3 160.56C150.6 163.13 150.37 166.83 147.96 166.68C145.55 166.53 145.91 160.08 145.91 160.08C145.91 160.08 143.72 160.75 143 155.67Z" fill="#FF98B9"/>
<path d="M146.11 155.53C146.757 155.942 147.288 156.514 147.65 157.19C148.015 157.861 148.291 158.577 148.47 159.32C148.188 158.629 147.854 157.96 147.47 157.32C147.139 156.64 146.676 156.032 146.11 155.53Z" fill="#263238"/>
<path d="M145.92 160.08C145.582 159.642 145.2 159.24 144.78 158.88C145.053 158.973 145.299 159.13 145.498 159.339C145.697 159.548 145.841 159.803 145.92 160.08Z" fill="#263238"/>
<path d="M138.63 133.58C138.57 133.22 138.51 132.86 138.43 132.5C138.31 131.93 138.16 131.36 138 130.81C136.873 127.117 134.709 123.825 131.766 121.326C128.824 118.826 125.225 117.223 121.399 116.708C117.572 116.194 113.678 116.788 110.179 118.421C106.68 120.054 103.723 122.656 101.66 125.92C98.8216 130.37 97.8515 135.759 98.96 140.92C99.5121 143.518 100.571 145.981 102.077 148.168C103.583 150.356 105.506 152.225 107.736 153.667C109.966 155.11 112.458 156.099 115.071 156.576C117.683 157.054 120.364 157.011 122.96 156.45C123.3 156.38 123.63 156.3 123.96 156.21C127.114 155.373 130.015 153.776 132.41 151.56L132.64 151.34C135.268 148.845 137.175 145.688 138.16 142.2C138.525 140.93 138.759 139.627 138.86 138.31C138.91 137.66 138.93 137.01 138.92 136.31C138.892 135.394 138.795 134.481 138.63 133.58ZM135.77 140.46C135.095 143.527 133.607 146.355 131.462 148.648C129.316 150.941 126.593 152.614 123.577 153.49C120.562 154.367 117.366 154.415 114.326 153.629C111.285 152.844 108.513 151.254 106.299 149.027C104.086 146.799 102.513 144.017 101.747 140.972C100.98 137.926 101.048 134.731 101.944 131.721C102.839 128.711 104.529 125.998 106.835 123.867C109.141 121.736 111.979 120.265 115.05 119.61C116.472 119.307 117.927 119.179 119.38 119.23C123.262 119.391 126.981 120.836 129.953 123.339C132.925 125.843 134.981 129.262 135.8 133.06C136.107 134.499 136.228 135.971 136.16 137.44C136.125 138.3 136.025 139.156 135.86 140L135.77 140.46Z" fill="#455A64"/>
<path d="M178.79 131.72C178.609 129.264 178.081 126.847 177.22 124.54C176.631 122.922 175.855 121.379 174.91 119.94C174.467 119.242 173.98 118.574 173.45 117.94C170.31 114.26 166.35 112.39 162.25 112.72C158.15 113.05 154.52 115.49 151.99 119.61C150.113 122.768 149.025 126.332 148.82 130C148.745 131.132 148.745 132.268 148.82 133.4C148.82 133.63 148.82 133.86 148.82 134.09C148.82 134.62 148.92 135.09 148.99 135.65C149.1 136.46 149.24 137.25 149.42 138.02C149.6 138.79 149.78 139.46 150.01 140.15C151.087 143.714 153.088 146.93 155.81 149.47C155.848 149.518 155.892 149.562 155.94 149.6C158.113 151.608 160.9 152.824 163.85 153.05H164.04C164.48 153.075 164.92 153.075 165.36 153.05C173.64 152.36 179.65 142.82 178.79 131.72ZM165.17 150.32C164.186 150.4 163.195 150.312 162.24 150.06C158.1 149 154.52 145.06 152.71 139.7C152.069 137.808 151.669 135.842 151.52 133.85C151.093 129.406 152.061 124.939 154.29 121.07C156.36 117.7 159.29 115.71 162.46 115.46C162.8 115.46 163.14 115.46 163.46 115.46C165.005 115.587 166.507 116.035 167.869 116.775C169.231 117.516 170.423 118.532 171.37 119.76C173.626 122.513 175.132 125.803 175.74 129.31C175.79 129.59 175.83 129.87 175.88 130.14C175.96 130.73 176.03 131.33 176.08 131.93C176.85 141.54 171.94 149.79 165.17 150.32Z" fill="#455A64"/>
<path d="M137.65 134.26L136 132.14C139.14 129.66 146.32 126.43 151.08 131.85L149.08 133.63C144.78 128.76 137.94 134 137.65 134.26Z" fill="#455A64"/>
<path d="M68.57 132.41L66.47 130.72C67.26 129.72 74.35 121.15 80.47 121.39C86.17 121.64 101.76 125.9 103.24 126.39L102.45 128.97C92.45 125.97 84.77 124.3 80.36 124.13C76.32 123.93 70.48 130 68.57 132.41Z" fill="#455A64"/>
<path d="M107.16 93.69C107 90.52 96.4501 82.59 92.5701 80C88.6901 77.41 71.7901 77.17 67.7801 81.4C66.2101 83.06 65.0201 91.52 62.2901 99.4C58.0501 111.62 52.7201 124.73 56.7601 126.5C66.5701 130.77 80.5401 114.5 85.0301 109.13C89.5201 103.76 93.2901 97.73 94.7101 97.44C96.5901 97.05 101.34 98.69 102.92 98.37C106.68 97.64 107.16 93.69 107.16 93.69Z" fill="#F7DB8C"/>
<path d="M459.83 111.37H287.37V332.65H459.83V111.37Z" fill="white"/>
<path d="M459.83 332.65L287.37 332.77H287.25V332.65L287.1 111.37V111.1H287.37L459.83 111.22H460V111.37L459.83 332.65ZM459.83 332.65L459.68 111.37L459.83 111.53L287.37 111.64L287.64 111.37L287.49 332.65L287.37 332.53L459.83 332.65Z" fill="#263238"/>
<path d="M304.94 129C304.506 129.273 304.029 129.473 303.53 129.59C302.905 129.744 302.257 129.773 301.621 129.676C300.985 129.578 300.375 129.357 299.825 129.023C299.275 128.69 298.797 128.251 298.416 127.732C298.036 127.213 297.762 126.625 297.61 126C297.397 125.124 297.43 124.207 297.706 123.349C297.982 122.491 298.489 121.726 299.173 121.138C299.856 120.55 300.688 120.163 301.578 120.018C302.468 119.874 303.38 119.978 304.214 120.319C305.048 120.661 305.771 121.226 306.305 121.953C306.838 122.679 307.159 123.539 307.235 124.437C307.31 125.335 307.135 126.237 306.73 127.042C306.325 127.847 305.706 128.525 304.94 129Z" fill="#37474F"/>
<path d="M303.85 124.31C303.85 124.605 303.763 124.893 303.599 125.138C303.435 125.383 303.202 125.574 302.93 125.687C302.658 125.799 302.358 125.829 302.069 125.771C301.78 125.714 301.515 125.572 301.306 125.364C301.098 125.155 300.956 124.89 300.899 124.601C300.841 124.312 300.871 124.012 300.983 123.74C301.096 123.467 301.287 123.235 301.532 123.071C301.777 122.907 302.065 122.82 302.36 122.82C302.755 122.82 303.134 122.977 303.414 123.256C303.693 123.536 303.85 123.915 303.85 124.31Z" fill="white"/>
<path d="M304.94 128.42V129C304.506 129.273 304.029 129.473 303.53 129.59C302.899 129.747 302.243 129.776 301.6 129.675C300.958 129.574 300.342 129.344 299.79 129V128.39C299.831 127.735 300.12 127.12 300.598 126.67C301.077 126.221 301.709 125.971 302.365 125.971C303.021 125.971 303.653 126.221 304.132 126.67C304.61 127.12 304.899 127.735 304.94 128.39V128.42Z" fill="white"/>
<path d="M444 124.32C444.091 124.32 444.18 124.347 444.256 124.397C444.331 124.448 444.39 124.52 444.425 124.604C444.46 124.688 444.469 124.78 444.451 124.87C444.433 124.959 444.39 125.041 444.325 125.105C444.261 125.17 444.179 125.213 444.09 125.231C444.001 125.249 443.908 125.24 443.824 125.205C443.74 125.17 443.668 125.111 443.618 125.036C443.567 124.96 443.54 124.871 443.54 124.78C443.543 124.659 443.592 124.543 443.678 124.458C443.763 124.372 443.879 124.322 444 124.32Z" fill="black"/>
<path d="M445.38 124.32C445.471 124.318 445.561 124.343 445.638 124.393C445.715 124.442 445.776 124.513 445.812 124.597C445.848 124.681 445.859 124.774 445.842 124.863C445.826 124.953 445.783 125.036 445.719 125.102C445.655 125.167 445.573 125.212 445.483 125.23C445.394 125.249 445.301 125.24 445.216 125.206C445.132 125.171 445.059 125.112 445.008 125.037C444.957 124.961 444.93 124.871 444.93 124.78C444.93 124.66 444.977 124.544 445.061 124.458C445.145 124.372 445.26 124.323 445.38 124.32Z" fill="black"/>
<path d="M446.8 124.32C446.891 124.32 446.98 124.347 447.056 124.397C447.131 124.448 447.19 124.52 447.225 124.604C447.26 124.688 447.269 124.78 447.251 124.87C447.233 124.959 447.19 125.041 447.125 125.105C447.061 125.17 446.979 125.213 446.89 125.231C446.8 125.249 446.708 125.24 446.624 125.205C446.54 125.17 446.468 125.111 446.417 125.036C446.367 124.96 446.34 124.871 446.34 124.78C446.343 124.659 446.392 124.543 446.478 124.458C446.563 124.372 446.679 124.322 446.8 124.32Z" fill="black"/>
<path d="M312.32 124.78C314.73 124.55 317.14 124.45 319.55 124.36C321.96 124.27 324.36 124.25 326.77 124.24C329.18 124.23 331.59 124.24 334 124.36L337.61 124.51C338.81 124.6 340.02 124.65 341.22 124.78C340.02 124.9 338.81 124.95 337.61 125.04L334 125.19C331.59 125.29 329.18 125.3 326.77 125.32C324.36 125.34 321.96 125.32 319.55 125.19C317.14 125.06 314.73 125 312.32 124.78Z" fill="#263238"/>
<path d="M454.68 138.29H292.51V280.63H454.68V138.29Z" fill="#78CDF3"/>
<path d="M306.4 295.89C305.73 297.021 304.879 298.035 303.88 298.89C303.343 299.363 302.779 299.804 302.19 300.21H301.74C300.062 299.079 298.63 297.619 297.53 295.92C297.11 295.254 296.864 294.493 296.813 293.707C296.762 292.921 296.909 292.135 297.24 291.42C297.438 291.066 297.729 290.774 298.082 290.575C298.434 290.375 298.835 290.277 299.24 290.29C299.834 290.314 300.408 290.509 300.894 290.851C301.38 291.194 301.757 291.669 301.98 292.22C302.205 291.67 302.582 291.196 303.068 290.854C303.553 290.512 304.127 290.316 304.72 290.29C305.124 290.281 305.523 290.382 305.875 290.58C306.227 290.779 306.519 291.069 306.72 291.42C307.039 292.134 307.177 292.915 307.122 293.695C307.066 294.475 306.818 295.229 306.4 295.89Z" fill="#F7DB8C"/>
<path d="M337.35 300.75L336.65 300.62L335.21 295.26L331.89 291.63L332.18 290.96H343.9L344.21 291.6L337.35 300.75ZM333.09 291.75L335.86 294.75L335.95 294.91L337.21 299.58L343.1 291.72L333.09 291.75Z" fill="#EBEBEB"/>
<path d="M344.101 290.847L335.042 294.867L335.367 295.598L344.425 291.578L344.101 290.847Z" fill="#EBEBEB"/>
<path d="M319.66 300.25C318.609 300.25 317.585 299.919 316.733 299.304C315.881 298.69 315.244 297.822 314.913 296.825C314.582 295.827 314.574 294.751 314.89 293.749C315.205 292.746 315.828 291.869 316.671 291.241C317.513 290.613 318.532 290.266 319.583 290.251C320.634 290.235 321.663 290.55 322.524 291.152C323.385 291.754 324.035 292.613 324.38 293.605C324.726 294.597 324.75 295.673 324.45 296.68L325.21 299.75L324.73 300.23L322.1 299.62C321.353 300.032 320.513 300.249 319.66 300.25ZM319.66 291.05C319.013 291.051 318.375 291.202 317.796 291.49C317.216 291.778 316.711 292.196 316.32 292.712C315.929 293.227 315.663 293.826 315.541 294.462C315.42 295.097 315.447 295.752 315.62 296.376C315.794 296.999 316.109 297.574 316.541 298.055C316.973 298.537 317.511 298.912 318.112 299.152C318.713 299.391 319.361 299.489 320.006 299.436C320.651 299.384 321.275 299.183 321.83 298.85H322.12L324.28 299.35L323.65 296.8V296.58C323.787 296.164 323.854 295.728 323.85 295.29C323.854 294.736 323.749 294.187 323.54 293.674C323.331 293.161 323.024 292.695 322.635 292.301C322.245 291.907 321.782 291.594 321.272 291.379C320.761 291.164 320.214 291.053 319.66 291.05Z" fill="#EBEBEB"/>
<path d="M443.34 300.17L442.71 299.85V291.36L443.11 290.96H450L450.39 291.36V299.85L449.76 300.17L446.55 297.25L443.34 300.17ZM443.5 291.76V299.07L446.32 296.44H446.79L449.61 299.07V291.76H443.5Z" fill="#EBEBEB"/>
<path d="M296.79 308.07C302.56 307.85 308.32 307.75 314.09 307.66C319.86 307.57 325.62 307.58 331.38 307.54C337.14 307.5 342.91 307.54 348.68 307.66L357.33 307.81C360.21 307.9 363.09 307.95 365.97 308.07C363.09 308.2 360.21 308.25 357.33 308.34L348.68 308.49C342.91 308.58 337.15 308.57 331.38 308.61C325.61 308.65 319.85 308.61 314.09 308.49C308.33 308.37 302.56 308.3 296.79 308.07Z" fill="#EBEBEB"/>
<path d="M296.79 316.37C307.68 316.15 318.56 316.04 329.45 315.96L362.1 315.83L394.75 315.96L411.08 316.11L427.4 316.37L411.08 316.64L394.75 316.79L362.1 316.91L329.45 316.79C318.56 316.7 307.68 316.59 296.79 316.37Z" fill="#EBEBEB"/>
<path d="M296.79 320.52C305.5 320.3 314.21 320.19 322.92 320.11L349 320L375.13 320.13L388.19 320.28L401.25 320.54L388.19 320.8L375.13 320.96L349 321.08L322.88 320.95C314.21 320.85 305.5 320.74 296.79 320.52Z" fill="#EBEBEB"/>
<path d="M418.06 280.63H318.86C324.08 275.31 332.59 263.22 338.86 253.98C338.98 253.79 339.11 253.6 339.24 253.42C343.57 246.99 346.72 242.09 346.72 242.09L366.72 241.84L394.38 241.5H397.71L411.39 241.33C411.39 241.33 411.74 243.22 412.3 246.33L412.9 249.62C413.02 250.33 413.16 251.08 413.29 251.85C413.58 253.43 413.88 255.14 414.19 256.93C415.46 264.26 417 273.13 418.06 280.63Z" fill="#F7DB8C"/>
<path opacity="0.5" d="M418.06 280.63H318.86C324.08 275.31 332.59 263.22 338.86 253.98C338.98 253.79 339.11 253.6 339.24 253.42C343.57 246.99 346.72 242.09 346.72 242.09L366.72 241.84L394.38 241.5H397.71L411.39 241.33C411.39 241.33 411.74 243.22 412.3 246.33L412.9 249.62C413.02 250.33 413.16 251.08 413.29 251.85C413.58 253.43 413.88 255.14 414.19 256.93C415.46 264.26 417 273.13 418.06 280.63Z" fill="white"/>
<path d="M338.31 253.49C338.31 253.49 357.75 273.14 391.79 268.26C416.66 264.7 420 245.49 420 245.49L338.31 253.49Z" fill="#455A64"/>
<path d="M385.84 172.37C385.03 169.47 392.24 159.16 395 155.7C397.76 152.24 413 146.99 417.83 149.64C419.74 150.64 423.32 157.97 428.13 164.31C435.57 174.12 444.26 184.4 441.13 187.19C433.52 193.96 416.08 183.39 410.43 179.84C404.78 176.29 399.59 171.96 398.22 172.12C396.4 172.33 392.59 175.21 391.07 175.39C387.44 175.81 385.84 172.37 385.84 172.37Z" fill="#F7DB8C"/>
<path d="M351.46 160.7C333.73 171.38 325.94 199.7 325.46 204.19C325.08 207.88 316.66 220.95 318.22 234.97C319.22 243.97 335.46 255.91 348.65 255.74C351.07 255.74 371.65 263.09 388.95 261.83C406.25 260.57 419.44 246.54 419.95 245.49C420.46 244.44 435.03 240.13 435.86 225.64C437.19 202.51 412.86 167.11 406.08 161.75C394.88 152.87 363.5 153.44 351.46 160.7Z" fill="#F7DB8C"/>
<path opacity="0.5" d="M351.46 160.7C333.73 171.38 325.94 199.7 325.46 204.19C325.08 207.88 316.66 220.95 318.22 234.97C319.22 243.97 335.46 255.91 348.65 255.74C351.07 255.74 371.65 263.09 388.95 261.83C406.25 260.57 419.44 246.54 419.95 245.49C420.46 244.44 435.03 240.13 435.86 225.64C437.19 202.51 412.86 167.11 406.08 161.75C394.88 152.87 363.5 153.44 351.46 160.7Z" fill="white"/>
<path d="M392.86 213.1C381.97 212.8 376.58 224.28 375.15 227.27C373.72 230.26 366.75 236.98 366.31 244.27C365.87 251.56 379.37 260.16 394.03 258.13C408.69 256.1 416.62 248.22 416.81 240.83C416.97 234.89 411.55 229.54 410.99 227.95C410.43 226.36 402.79 213.38 392.86 213.1Z" fill="#F7DB8C"/>
<path opacity="0.2" d="M392.86 213.1C381.97 212.8 376.58 224.28 375.15 227.27C373.72 230.26 366.75 236.98 366.31 244.27C365.87 251.56 379.37 260.16 394.03 258.13C408.69 256.1 416.62 248.22 416.81 240.83C416.97 234.89 411.55 229.54 410.99 227.95C410.43 226.36 402.79 213.38 392.86 213.1Z" fill="white"/>
<path d="M342.76 214C341.453 209.978 340.984 205.731 341.38 201.52C341.568 199.343 342.069 197.204 342.87 195.17C343.287 194.116 343.816 193.11 344.45 192.17C345.08 191.209 345.822 190.326 346.66 189.54C347.089 189.152 347.54 188.788 348.01 188.45C348.48 188.13 349.01 187.86 349.46 187.57L350.2 187.15L350.98 186.82C351.497 186.589 352.028 186.392 352.57 186.23C354.706 185.598 356.942 185.378 359.16 185.58C363.428 185.964 367.499 187.552 370.9 190.16C367.124 188.727 363.119 187.995 359.08 188C357.178 188.029 355.294 188.367 353.5 189C353.06 189.14 352.65 189.38 352.22 189.55L351.59 189.84L351 190.21C350.61 190.46 350.19 190.68 349.82 190.94C349.469 191.209 349.135 191.5 348.82 191.81C347.456 193.063 346.367 194.585 345.62 196.28C344.808 198.046 344.207 199.903 343.83 201.81C343.051 205.825 342.693 209.911 342.76 214Z" fill="#F7DB8C"/>
<path d="M423.53 206.62C423.663 203.166 423.411 199.708 422.78 196.31C422.1 193.05 420.78 189.99 418.52 187.97C417.956 187.467 417.343 187.022 416.69 186.64C416.063 186.288 415.39 186.025 414.69 185.86C413.124 185.524 411.519 185.403 409.92 185.5C406.469 185.763 403.045 186.302 399.68 187.11C401.156 186.088 402.738 185.23 404.4 184.55C405.23 184.21 406.08 183.9 406.95 183.63C407.82 183.36 408.71 183.16 409.63 182.99C411.509 182.617 413.441 182.59 415.33 182.91C416.342 183.092 417.32 183.429 418.23 183.91C419.105 184.392 419.918 184.98 420.65 185.66C422.099 186.999 423.224 188.651 423.94 190.49C424.635 192.244 425.047 194.097 425.16 195.98C425.4 199.603 424.843 203.235 423.53 206.62Z" fill="#F7DB8C"/>
<path d="M373.27 208.69C373.27 208.5 372.85 208.95 372.87 209.15C373.28 214.15 372.87 219.93 367.95 221.82C367.8 221.88 367.82 222.13 368.01 222.1C374 221 374.54 213.35 373.27 208.69Z" fill="#263238"/>
<path d="M368.13 203.7C359.29 203.51 359.36 219.7 367.55 219.84C375.74 219.98 375.54 203.87 368.13 203.7Z" fill="#263238"/>
<path d="M403 205.59C403 205.4 403.45 205.79 403.46 205.99C403.79 210.99 405.08 216.64 410.19 217.8C410.34 217.8 410.35 218.09 410.19 218.08C404.07 217.91 402.44 210.39 403 205.59Z" fill="#263238"/>
<path d="M407.36 199.91C416.08 198.42 418.36 214.41 410.3 215.78C402.24 217.15 400.06 201.15 407.36 199.91Z" fill="#263238"/>
<path d="M392.36 220.33C390.94 220.69 382.02 217.49 382.94 214.61C383.94 211.5 397.52 210.44 399.1 212.61C400.68 214.78 393.84 219.94 392.36 220.33Z" fill="#263238"/>
<path d="M379 226.35C380.731 227.761 382.593 229.004 384.56 230.06C385.477 230.59 386.503 230.904 387.56 230.98C388.19 231.11 388.71 230.19 389.07 229.32C389.729 227.482 390.185 225.577 390.43 223.64C390.75 221.7 390.93 219.72 391.11 217.77L391.6 212.36L393.13 217.61C393.6 219.22 394.13 220.85 394.71 222.45C395.273 224.059 395.941 225.629 396.71 227.15C396.902 227.521 397.119 227.879 397.36 228.22C397.566 228.54 397.823 228.823 398.12 229.06C398.401 229.214 398.732 229.25 399.04 229.16C399.456 229.04 399.854 228.862 400.22 228.63C401.719 227.574 403.045 226.292 404.15 224.83C403.368 226.51 402.24 228.006 400.84 229.22C400.413 229.572 399.929 229.849 399.41 230.04C399.085 230.135 398.748 230.182 398.41 230.18C398.043 230.186 397.681 230.097 397.36 229.92C396.883 229.649 396.465 229.285 396.13 228.85C395.823 228.487 395.542 228.103 395.29 227.7C394.353 226.184 393.553 224.588 392.9 222.93C392.22 221.31 391.67 219.68 391.15 218.01L393.15 217.85C393.023 219.863 392.775 221.866 392.41 223.85C392.238 224.862 392.011 225.863 391.73 226.85C391.47 227.884 391.105 228.89 390.64 229.85C390.381 230.383 390.044 230.875 389.64 231.31C389.387 231.589 389.085 231.819 388.75 231.99C388.539 232.093 388.313 232.161 388.08 232.19C387.877 232.215 387.673 232.215 387.47 232.19C386.18 232.042 384.949 231.571 383.89 230.82C382.051 229.576 380.404 228.07 379 226.35Z" fill="#263238"/>
<path d="M390.48 229.17C390.48 229.17 390.85 236.54 393.7 236.17C396.55 235.8 396.37 228.17 396.37 228.17L392.18 219.56L390.48 229.17Z" fill="#263238"/>
<path d="M390.79 231.71C391.197 231.307 391.723 231.048 392.29 230.97C392.853 231.079 393.394 231.282 393.89 231.57C394.033 231.394 394.215 231.254 394.422 231.16C394.628 231.067 394.853 231.022 395.08 231.03C396.32 231.18 397.79 234.03 398.08 236.6C398.37 239.17 398.15 242.87 395.73 242.72C393.31 242.57 393.68 236.12 393.68 236.12C393.68 236.12 391.51 236.78 390.79 231.71Z" fill="#FF98B9"/>
<path d="M393.89 231.57C394.54 231.979 395.071 232.551 395.43 233.23C395.804 233.898 396.083 234.615 396.26 235.36C395.974 234.671 395.64 234.002 395.26 233.36C394.929 232.677 394.463 232.068 393.89 231.57Z" fill="#263238"/>
<path d="M393.7 236.12C393.362 235.679 392.98 235.273 392.56 234.91C392.835 235.001 393.084 235.16 393.283 235.371C393.482 235.582 393.625 235.84 393.7 236.12Z" fill="#263238"/>
<path d="M386.66 212.36C386.649 211.439 386.569 210.519 386.42 209.61C386.36 209.25 386.3 208.89 386.22 208.53C386.1 207.96 385.95 207.39 385.78 206.84C384.645 203.153 382.477 199.868 379.532 197.376C376.587 194.884 372.99 193.289 369.166 192.779C365.342 192.27 361.452 192.868 357.957 194.502C354.463 196.136 351.51 198.739 349.45 202C346.612 206.45 345.641 211.84 346.75 217C347.685 221.392 350.055 225.348 353.485 228.245C356.916 231.141 361.213 232.814 365.7 233C367.378 233.059 369.057 232.915 370.7 232.57C371.04 232.5 371.37 232.42 371.7 232.33C374.851 231.488 377.749 229.888 380.14 227.67C380.221 227.606 380.298 227.535 380.37 227.46C383 224.965 384.91 221.808 385.9 218.32C386.265 217.05 386.499 215.747 386.6 214.43C386.6 213.9 386.67 213.37 386.67 212.83C386.67 212.61 386.67 212.49 386.66 212.36ZM383.56 216.5C382.885 219.567 381.397 222.395 379.252 224.688C377.106 226.981 374.382 228.654 371.367 229.53C368.352 230.407 365.156 230.455 362.116 229.669C359.075 228.884 356.303 227.294 354.089 225.067C351.876 222.839 350.303 220.057 349.537 217.012C348.77 213.966 348.838 210.771 349.734 207.761C350.629 204.751 352.319 202.038 354.625 199.907C356.931 197.776 359.769 196.305 362.84 195.65C364.262 195.342 365.716 195.214 367.17 195.27C371.052 195.431 374.771 196.876 377.743 199.379C380.715 201.883 382.771 205.302 383.59 209.1C383.897 210.539 384.018 212.011 383.95 213.48C383.916 214.343 383.816 215.202 383.65 216.05L383.56 216.5Z" fill="#455A64"/>
<path d="M426.58 207.76C426.401 205.304 425.872 202.886 425.01 200.58C424.42 198.969 423.645 197.432 422.7 196C422.261 195.3 421.773 194.631 421.24 194C418.1 190.32 414.13 188.45 410.04 188.78C405.95 189.11 402.31 191.54 399.78 195.67C397.912 198.81 396.825 202.353 396.61 206C396.54 207.126 396.54 208.254 396.61 209.38C396.61 209.61 396.61 209.84 396.61 210.08C396.61 210.6 396.71 211.08 396.78 211.63C396.89 212.44 397.03 213.23 397.21 214.01C397.39 214.79 397.57 215.45 397.8 216.14C398.88 219.705 400.885 222.92 403.61 225.46L403.74 225.59C405.913 227.598 408.7 228.814 411.65 229.04H411.84C412.28 229.065 412.72 229.065 413.16 229.04C421.43 228.4 427.44 218.85 426.58 207.76ZM413 226.36C412.019 226.439 411.032 226.352 410.08 226.1C405.94 225.1 402.36 221.1 400.54 215.75C399.898 213.851 399.498 211.879 399.35 209.88C398.923 205.439 399.891 200.975 402.12 197.11C404.19 193.74 407.12 191.75 410.29 191.5C410.623 191.481 410.957 191.481 411.29 191.5C412.836 191.624 414.338 192.071 415.701 192.812C417.063 193.553 418.255 194.57 419.2 195.8C421.458 198.555 422.964 201.849 423.57 205.36C423.62 205.63 423.66 205.91 423.7 206.19C423.79 206.78 423.86 207.37 423.91 207.97C424.64 217.58 419.73 225.83 413 226.36Z" fill="#455A64"/>
<path d="M385.44 210.3L383.77 208.18C386.91 205.7 394.09 202.46 398.85 207.88L396.85 209.66C392.56 204.8 385.73 210.07 385.44 210.3Z" fill="#455A64"/>
<path d="M316.35 208.45L314.25 206.75C315.04 205.75 322.14 197.19 328.25 197.43C333.94 197.68 349.54 201.94 351.01 202.43L350.23 205.01C340.23 202.01 332.54 200.34 328.14 200.17C324.1 200 318.27 206.08 316.35 208.45Z" fill="#455A64"/>
<path d="M355 169.72C354.86 166.56 344.29 158.62 340.41 156.06C336.53 153.5 319.62 153.22 315.62 157.46C314.05 159.12 312.86 167.58 310.12 175.46C305.89 187.68 300.56 200.79 304.6 202.55C314.41 206.83 328.38 190.55 332.87 185.19C337.36 179.83 341.12 173.79 342.55 173.5C344.43 173.11 349.18 174.75 350.76 174.43C354.47 173.68 355 169.72 355 169.72Z" fill="#F7DB8C"/>
<path d="M50.7801 449.59C53.6701 450.7 137.6 452.22 140.88 450.35C141.24 450.14 141.14 446.43 142.37 436.85C142.44 436.39 144.37 434.62 147.37 432.11C158.59 422.7 184.96 402.87 184.96 402.87L143.08 366.48L102.5 406.38L91.9101 416.75C91.9101 416.75 57.6201 435.26 54.2301 437.75C50.8401 440.24 47.8901 448.48 50.7801 449.59Z" fill="#FFC4C0"/>
<path d="M50.7801 449.58C53.6801 450.7 137.6 452.22 140.88 450.35C141.23 450.14 141.13 446.44 142.38 436.85C142.43 436.39 144.38 434.62 147.38 432.1C151.28 428.83 153.14 427.34 158.94 422.82L105.7 403.24L102.5 406.38L91.9101 416.75C91.9101 416.75 57.6201 435.26 54.2301 437.75C50.8401 440.24 47.8901 448.47 50.7801 449.58Z" fill="#EBEBEB"/>
<path d="M45 450.74C47.91 451.74 137.33 452.74 140.55 450.74C141.31 450.28 142 445.09 142.55 437.97C142.62 437.08 151.67 429.84 152.91 428.5L98.13 410.05L91.21 416.56C91.21 416.56 50.89 435.33 47.59 437.88C44.29 440.43 42.08 449.73 45 450.74Z" fill="#F7DB8C"/>
<path d="M46.24 447.41C60.24 447.23 122.6 447.82 136.5 448.71C136.62 448.71 136.62 448.8 136.5 448.8C122.58 449.28 60.27 448.23 46.24 447.64C45.94 447.62 45.94 447.41 46.24 447.41Z" fill="#263238"/>
<path d="M86.74 417.16C92.28 416.16 99.03 417.16 103.2 421.1C103.37 421.26 103.2 421.49 102.97 421.43C97.7073 419.659 92.2694 418.458 86.75 417.85C86.6683 417.837 86.5938 417.796 86.5396 417.734C86.4854 417.671 86.455 417.592 86.4538 417.509C86.4526 417.427 86.4807 417.346 86.533 417.282C86.5854 417.218 86.6587 417.175 86.74 417.16Z" fill="#263238"/>
<path d="M82.72 419.51C88.26 418.51 95.01 419.51 99.19 423.46C99.35 423.62 99.13 423.84 98.95 423.78C93.689 422.017 88.255 420.82 82.74 420.21C82.6472 420.213 82.5571 420.178 82.4896 420.115C82.4221 420.051 82.3827 419.963 82.38 419.87C82.3774 419.777 82.4117 419.687 82.4755 419.62C82.5392 419.552 82.6272 419.513 82.72 419.51Z" fill="#263238"/>
<path d="M78.71 421.87C84.24 420.87 90.99 421.87 95.17 425.82C95.33 425.97 95.11 426.2 94.93 426.14C89.6691 424.377 84.235 423.18 78.72 422.57C78.6272 422.571 78.5376 422.536 78.4711 422.471C78.4045 422.406 78.3664 422.318 78.365 422.225C78.3637 422.132 78.3993 422.043 78.464 421.976C78.5287 421.91 78.6172 421.871 78.71 421.87Z" fill="#263238"/>
<path d="M74.69 424.23C80.23 423.23 86.98 424.23 91.15 428.18C91.32 428.33 91.09 428.56 90.91 428.5C85.6504 426.732 80.2158 425.535 74.7 424.93C74.654 424.931 74.6084 424.922 74.5657 424.905C74.523 424.888 74.484 424.863 74.4511 424.831C74.3845 424.766 74.3463 424.678 74.345 424.585C74.3437 424.492 74.3793 424.403 74.444 424.336C74.5087 424.27 74.5972 424.231 74.69 424.23Z" fill="#263238"/>
<path d="M79.07 412.16C82.94 415.24 88.01 416.54 92.56 418.29C92.6636 418.32 92.7728 418.326 92.8788 418.305C92.9847 418.285 93.0843 418.24 93.1693 418.173C93.2543 418.107 93.3223 418.021 93.3676 417.923C93.413 417.825 93.4343 417.718 93.43 417.61C93.52 417.61 93.6 417.52 93.56 417.41C91.9437 412.496 89.0601 408.094 85.2 404.65C82.92 402.65 78.89 401.29 76.68 404.26C74.59 407.06 76.81 410.35 79.07 412.16ZM77.71 407.69C76.81 401.62 83.28 404.88 84.91 406.39C85.9408 407.394 86.9061 408.463 87.8 409.59C89.5898 411.954 91.2586 414.407 92.8 416.94C90.62 415.94 88.37 415.15 86.16 414.23C83.57 413.15 78.21 411 77.71 407.69Z" fill="#263238"/>
<path d="M112.11 409.2C110.82 405.74 106.56 405.96 103.82 407.2C99.1545 409.44 95.1606 412.868 92.24 417.14C92.2281 417.159 92.2205 417.18 92.2176 417.201C92.2147 417.223 92.2167 417.246 92.2234 417.267C92.2301 417.288 92.2413 417.307 92.2563 417.323C92.2712 417.339 92.2896 417.352 92.31 417.36C92.2769 417.464 92.2688 417.574 92.2863 417.681C92.3038 417.789 92.3465 417.89 92.4109 417.978C92.4752 418.066 92.5594 418.137 92.6566 418.186C92.7538 418.235 92.8612 418.261 92.97 418.26C97.82 417.85 103.05 418.01 107.63 416.12C110.3 415 113.34 412.48 112.11 409.2ZM100.19 416.14C97.81 416.4 95.43 416.54 93.06 416.89C95.2607 414.893 97.5602 413.007 99.95 411.24C101.121 410.402 102.347 409.643 103.62 408.97C105.62 407.97 112.72 406.63 110.17 412.22C108.76 415.3 103 415.83 100.19 416.14Z" fill="#263238"/>
<path d="M101.89 404.15L153.66 431C153.66 431 207.59 382.18 212.53 381.82C217.47 381.46 290.03 430.69 326.53 430.82C364.36 430.98 366.27 391.34 366.27 391.34L311.08 378.67C271.3 359.06 229.86 323.84 202.76 327.13C173.35 330.7 101.89 404.15 101.89 404.15Z" fill="#263238"/>
<path d="M114.54 397.32C123.27 401.64 120.82 400.32 129.54 404.69C133.79 406.85 155.2 417.69 158.83 420.33C158.846 420.345 158.856 420.365 158.86 420.386C158.863 420.408 158.859 420.43 158.849 420.449C158.839 420.468 158.823 420.484 158.803 420.493C158.783 420.502 158.761 420.505 158.74 420.5C154.46 419.06 133.3 407.8 129.08 405.57C120.47 401 122.99 402.22 114.43 397.57C114.409 397.566 114.39 397.558 114.373 397.545C114.356 397.532 114.342 397.516 114.333 397.498C114.323 397.479 114.318 397.458 114.317 397.437C114.316 397.416 114.32 397.396 114.329 397.376C114.337 397.357 114.35 397.34 114.366 397.326C114.382 397.313 114.4 397.303 114.421 397.297C114.441 397.292 114.462 397.291 114.483 397.295C114.504 397.299 114.523 397.308 114.54 397.32Z" fill="#37474F"/>
<path d="M162.83 418.61C172.95 409.68 206.11 380.61 207.46 379.55C208.503 378.552 209.661 377.683 210.91 376.96C211.427 376.76 211.982 376.679 212.535 376.724C213.087 376.769 213.622 376.939 214.1 377.22C215.63 377.94 217.1 378.72 218.66 379.46L227.66 383.84C239.26 389.51 250.79 395.31 262.48 400.84C273.72 406.1 281.74 411.06 293.48 415.11C305.145 419.226 317.212 422.102 329.48 423.69C330.99 423.88 332.48 424.04 334.03 424.18C334.044 424.175 334.058 424.174 334.072 424.176C334.086 424.178 334.1 424.183 334.112 424.192C334.123 424.2 334.133 424.211 334.14 424.224C334.146 424.237 334.15 424.251 334.15 424.265C334.15 424.279 334.146 424.294 334.14 424.306C334.133 424.319 334.123 424.33 334.112 424.338C334.1 424.347 334.086 424.352 334.072 424.354C334.058 424.356 334.044 424.355 334.03 424.35C321.989 423.635 310.083 421.422 298.59 417.76C286.96 414.18 279.07 409.54 268.03 404.46C256.58 399.19 245.3 393.56 234.03 387.95C228.08 384.95 222.13 382 216.16 379.07C214.8 378.41 212.88 376.97 211.33 377.68C210.68 378.044 210.079 378.487 209.54 379L207.54 380.65C205 382.73 164.3 417.75 163 418.75C162.86 418.83 162.73 418.7 162.83 418.61Z" fill="#37474F"/>
<path d="M366.41 391.34C366.41 391.34 372.6 427.13 354.7 441.19C336.8 455.25 205.7 453.56 185.8 447.13C165.9 440.7 165.28 408.6 187.03 401.13C207.71 394.05 295.72 390.61 297.89 389.75C298.43 389.53 290.08 384.52 290.12 384.22L310.12 378.1L366.41 391.34Z" fill="#263238"/>
<path d="M339.24 390.44C339.24 390.28 339.51 390.33 339.51 390.44C339.509 394.597 340.971 398.623 343.64 401.81C346.69 405.33 351.18 407.3 355.25 409.35C355.65 409.55 355.35 410.16 354.94 410.04C352.441 409.277 350.033 408.24 347.76 406.95C345.669 405.834 343.828 404.303 342.35 402.45C341.031 400.771 340.074 398.837 339.538 396.77C339.003 394.703 338.902 392.548 339.24 390.44Z" fill="#37474F"/>
<path d="M299.33 386C300.24 384.84 301.23 383.74 302.17 382.61C304.42 379.94 306.67 377.26 309.02 374.69C309.24 374.45 309.67 374.79 309.47 375.06C307.89 377.13 306.21 379.13 304.57 381.15L302 384.24C301.114 385.16 300.32 386.165 299.63 387.24C299.01 388.39 299.82 389.37 301.01 389.49C302.063 389.522 303.088 389.146 303.87 388.44C305.646 386.866 307.27 385.128 308.72 383.25C309.67 382.19 310.61 381.13 311.57 380.08C312.53 379.03 313.67 377.91 314.69 376.79C314.76 376.72 314.88 376.79 314.82 376.9C313.94 378.12 313.12 379.39 312.23 380.61C311.34 381.83 310.44 383.04 309.52 384.24C308.6 385.44 307.75 386.48 306.82 387.57C306.053 388.53 305.13 389.355 304.09 390.01C302.39 391.01 299.43 391.23 298.53 389.01C298.385 388.482 298.383 387.926 298.523 387.397C298.664 386.868 298.942 386.386 299.33 386Z" fill="#37474F"/>
<path d="M188.52 447.25C195.37 447.38 202.21 447.77 209.06 447.92C215.91 448.07 222.65 448.1 229.45 448.04C243.103 447.913 256.74 447.383 270.36 446.45C284.12 445.5 298.96 444.13 312.63 442.23C319.17 441.33 325.8 440.57 332.27 439.18C338.081 438.081 343.455 435.336 347.75 431.27C356.61 422.69 360.05 410.06 361.46 398C361.653 396.38 361.813 394.76 361.94 393.14C361.94 393.03 362.12 393.03 362.11 393.14C361.31 405.51 359.39 418.4 351.61 428.34C348.328 432.68 343.957 436.074 338.94 438.18C332.81 440.64 326.02 441.18 319.56 442.09C305.83 443.95 290.93 445.39 277.13 446.46C263.33 447.53 249.31 448.21 235.39 448.46C221.47 448.71 207.52 448.46 193.6 447.79C191.9 447.7 190.21 447.6 188.51 447.45C188.42 447.4 188.42 447.25 188.52 447.25Z" fill="#37474F"/>
<path d="M231.7 394.64C236.02 394 240.32 393.38 244.7 392.93C249.08 392.48 253.47 392.08 257.85 391.71C266.53 390.98 275.22 390.32 283.92 389.91C288.86 389.68 293.8 389.66 298.75 389.72C298.9 389.72 298.89 389.95 298.75 389.96C290.05 390.75 281.35 391.3 272.64 391.87C263.93 392.44 255.27 393.22 246.64 394.04C241.72 394.51 236.8 394.87 231.88 395.27C231.41 395.3 231.34 394.69 231.7 394.64Z" fill="#37474F"/>
<path d="M289.1 383.81C292.578 385.309 295.923 387.099 299.1 389.16C302.328 391.093 305.416 393.252 308.34 395.62C308.42 395.69 308.34 395.79 308.23 395.75C304.84 394.19 301.59 392.23 298.36 390.35C295.09 388.517 291.934 386.486 288.91 384.27C288.68 384.11 288.81 383.69 289.1 383.81Z" fill="#37474F"/>
<path d="M324.65 258.12C324.65 258.12 335.83 251.12 348.53 261.93C361.23 272.74 353.66 309.29 350.59 314.57C350.59 314.57 322.3 322.57 300.79 308.38C300.79 308.38 318.11 283.57 318.34 270.38C318.47 262.73 324.65 258.12 324.65 258.12Z" fill="#263238"/>
<path d="M315.56 280.19C315.44 280.43 315.33 280.66 315.2 280.89C313.623 283.833 311.779 286.625 309.69 289.23C307.773 291.773 305.499 294.026 302.94 295.92C302.87 295.97 302.78 295.87 302.85 295.82C305.379 293.765 307.555 291.309 309.29 288.55C311.094 285.94 312.747 283.229 314.24 280.43C317.31 274.743 319.661 268.697 321.24 262.43C321.24 262.31 321.49 262.35 321.46 262.48C321.31 263.36 321.14 264.24 320.96 265.12C320.979 265.114 320.999 265.114 321.018 265.119C321.037 265.124 321.054 265.135 321.067 265.15C321.079 265.165 321.087 265.184 321.09 265.203C321.092 265.223 321.089 265.243 321.08 265.26C319.905 271.131 318.136 276.867 315.8 282.38C313.305 287.767 310.1 292.795 306.27 297.33C304.15 299.896 301.88 302.334 299.47 304.63C299.47 304.63 299.38 304.63 299.42 304.57C306.152 297.424 311.611 289.178 315.56 280.19Z" fill="#263238"/>
<path d="M345.88 260.05C357.46 270.14 358.57 286.32 356.16 300.1C355.457 304.354 354.335 308.528 352.81 312.56C352.81 312.63 352.67 312.56 352.7 312.51C354.866 305.376 355.987 297.966 356.03 290.51C356.03 283.51 355.35 276.18 352.46 269.64C350.933 266.054 348.643 262.843 345.75 260.23C345.64 260.13 345.77 260 345.88 260.05Z" fill="#263238"/>
<path d="M264.12 257.55L275.12 292.46C275.56 293.46 275.12 294.36 274.07 294.46L255.78 295.53C255.221 295.517 254.677 295.349 254.208 295.043C253.74 294.737 253.367 294.307 253.13 293.8L242.13 258.89C241.999 258.698 241.923 258.473 241.91 258.24C241.897 258.008 241.948 257.776 242.057 257.571C242.166 257.365 242.329 257.193 242.529 257.073C242.729 256.953 242.957 256.89 243.19 256.89L261.47 255.81C262.03 255.824 262.575 255.994 263.044 256.301C263.512 256.609 263.885 257.041 264.12 257.55Z" fill="#263238"/>
<path d="M262 257.66L273 292.57C273.134 292.761 273.213 292.985 273.228 293.218C273.243 293.451 273.194 293.684 273.085 293.89C272.977 294.097 272.813 294.27 272.613 294.39C272.413 294.51 272.183 294.572 271.95 294.57L253.66 295.64C253.101 295.627 252.557 295.459 252.088 295.153C251.62 294.847 251.247 294.417 251.01 293.91L240 259C239.56 258 240 257.1 241.06 257L259.34 255.92C259.902 255.932 260.449 256.101 260.919 256.409C261.39 256.716 261.764 257.15 262 257.66Z" fill="#455A64"/>
<path d="M257 259.57C257.023 259.878 257.137 260.173 257.327 260.416C257.517 260.659 257.776 260.841 258.069 260.937C258.363 261.034 258.679 261.041 258.976 260.957C259.274 260.874 259.54 260.704 259.741 260.47C259.942 260.235 260.069 259.946 260.105 259.639C260.141 259.332 260.086 259.021 259.946 258.746C259.805 258.471 259.586 258.244 259.316 258.093C259.047 257.942 258.738 257.875 258.43 257.9C258.02 257.933 257.639 258.128 257.371 258.44C257.103 258.753 256.97 259.159 257 259.57Z" fill="#263238"/>
<path d="M326.74 318.05C312.69 337.98 291.25 363.56 281.62 363.18C277.05 363 268.82 363.67 263.09 358.1C250.59 345.94 239.88 324.27 237.51 312.39C236.63 307.93 260.88 297.7 263.9 301.5C271 310.42 279.72 329.35 281 329C285.34 327.69 299.54 318 314.88 309.47C331.81 300 332.93 309.26 326.74 318.05Z" fill="#FFC4C0"/>
<path d="M236 291.41C237.69 282.19 239.53 280.09 236.82 271.55C235.04 265.95 237.82 262.41 242.2 266.71C249.31 273.71 249.64 286.08 248.52 290.4L236 291.41Z" fill="#FFC4C0"/>
<path d="M239.44 318.26C239.44 318.26 234.54 305.9 235.36 295.9C235.93 288.99 238.84 274.08 257.48 265.05C261.9 262.91 269.72 262.99 263.77 269.11C259.54 273.46 255.55 274.94 253.55 277.92C253.55 277.92 263.48 279.21 265.46 283.72C267.184 287.666 268.625 291.729 269.77 295.88C269.059 296.26 268.324 296.594 267.57 296.88C267.57 296.88 269.28 301.16 266.46 307.6L239.44 318.26Z" fill="#FFC4C0"/>
<path d="M237 289.39C239.6 286.85 245.22 281.58 251.32 278.85C258.09 275.85 271.95 271.85 274.13 276.85C275.73 280.53 270.57 282.52 270.57 282.52C270.57 282.52 276.65 282.08 277.37 285.72C278.02 289.04 273.94 290.34 273.94 290.34C273.94 290.34 277.67 290.71 277.68 294.02C277.68 298.02 269.87 296.6 266.39 300.65C265.57 301.57 237 289.39 237 289.39Z" fill="#FFC4C0"/>
<path d="M253.28 286.54C258.441 283.465 264.416 282.035 270.41 282.44C270.56 282.44 270.63 282.58 270.49 282.59C264.622 283.223 258.854 284.566 253.31 286.59C253.31 286.59 253.25 286.57 253.28 286.54Z" fill="#263238"/>
<path d="M256.53 293.29C259.16 291.83 267.13 289.29 273.87 290.22C274.02 290.22 274.08 290.37 273.94 290.38C268.048 290.716 262.214 291.722 256.55 293.38C256.55 293.38 256.49 293.31 256.53 293.29Z" fill="#263238"/>
<path d="M298.18 318.24L315.79 334.62C315.79 334.62 324.7 322.3 329.1 315.35C334.93 306.15 332.51 301.03 319.98 305.6C311.55 308.68 298.18 318.24 298.18 318.24Z" fill="#455A64"/>
<path d="M301.64 316.54C304.29 318.77 306.9 321.04 309.38 323.45C310.62 324.65 311.833 325.873 313.02 327.12C314.21 328.36 315.25 329.77 316.46 330.99C316.52 331.05 316.39 331.18 316.32 331.11C315.2 329.81 313.84 328.69 312.63 327.48C311.42 326.27 310.19 325.04 308.96 323.83C306.49 321.42 304.03 319 301.5 316.66C301.43 316.6 301.57 316.48 301.64 316.54Z" fill="#263238"/>
<path opacity="0.1" d="M304.82 324.42L315.82 334.61C315.82 334.61 324.73 322.29 329.14 315.34C331.71 311.34 332.67 308.04 331.88 306.05L304.82 324.42Z" fill="black"/>
<path d="M292 383.17L368 398C368.11 396.43 362.91 349.24 356.56 331.33C348.42 308.33 343.15 305.99 340.01 304.45C336.01 302.45 328.48 302.38 326.62 303.01C324.51 303.72 316.88 314.14 313.62 322.01C307.26 338 291.06 382.06 292 383.17Z" fill="#455A64"/>
<path d="M335.86 376.19C335.192 376.744 334.638 377.424 334.23 378.19C335.036 377.904 335.779 377.466 336.42 376.9C337.085 376.34 337.641 375.662 338.06 374.9C337.251 375.185 336.504 375.623 335.86 376.19ZM321.67 315.93C321.001 316.484 320.447 317.163 320.04 317.93C321.659 317.321 323.014 316.164 323.87 314.66C323.064 314.942 322.318 315.373 321.67 315.93ZM299.8 366.47C299.136 367.025 298.585 367.705 298.18 368.47C299.794 367.862 301.146 366.709 302 365.21C301.195 365.491 300.449 365.918 299.8 366.47ZM357 349.11C356.445 348.442 355.766 347.888 355 347.48C355.291 348.29 355.728 349.039 356.29 349.69C356.849 350.351 357.528 350.9 358.29 351.31C357.994 350.506 357.557 349.761 357 349.11ZM344.41 318.71C343.852 318.048 343.173 317.498 342.41 317.09C342.699 317.897 343.14 318.64 343.71 319.28C344.272 319.943 344.95 320.499 345.71 320.92C345.416 320.11 344.976 319.36 344.41 318.71ZM302.76 382.38C302.206 381.715 301.526 381.164 300.76 380.76C301.047 381.568 301.485 382.315 302.05 382.96C302.611 383.619 303.289 384.168 304.05 384.58C303.765 383.771 303.327 383.024 302.76 382.38ZM325.81 345.69C325.249 345.031 324.571 344.482 323.81 344.07C324.097 344.878 324.535 345.625 325.1 346.27C325.661 346.929 326.339 347.478 327.1 347.89C326.805 347.086 326.368 346.341 325.81 345.69ZM353.06 386.19C352.206 386.108 351.344 386.189 350.52 386.43C351.297 386.793 352.134 387.01 352.99 387.07C353.848 387.15 354.714 387.065 355.54 386.82C354.761 386.455 353.919 386.241 353.06 386.19ZM340.33 355.25C339.475 355.175 338.614 355.26 337.79 355.5C339.361 356.206 341.129 356.343 342.79 355.89C342.018 355.524 341.183 355.307 340.33 355.25ZM306.17 348.5C305.315 348.425 304.454 348.51 303.63 348.75C304.405 349.118 305.244 349.332 306.1 349.38C306.954 349.463 307.817 349.382 308.64 349.14C307.863 348.777 307.026 348.56 306.17 348.5ZM320.77 383.21C319.919 383.135 319.06 383.22 318.24 383.46C319.811 384.166 321.579 384.303 323.24 383.85C322.464 383.485 321.626 383.268 320.77 383.21ZM357 332.37C356.493 332.384 355.992 332.472 355.51 332.63C356.063 332.895 356.653 333.074 357.26 333.16C357.12 332.9 357 332.64 357 332.37ZM327.7 327.59C326.845 327.506 325.982 327.59 325.16 327.84C325.937 328.202 326.775 328.416 327.63 328.47C328.484 328.553 329.347 328.472 330.17 328.23C329.382 327.849 328.525 327.632 327.65 327.59H327.7ZM336.4 303.31C336.173 303.252 335.943 303.209 335.71 303.18C335.623 303.6 335.56 304.024 335.52 304.45C335.437 305.308 335.519 306.173 335.76 307C336.124 306.22 336.341 305.379 336.4 304.52C336.408 304.116 336.392 303.712 336.35 303.31H336.4ZM318.33 363.19C317.624 364.761 317.487 366.529 317.94 368.19C318.308 367.415 318.525 366.576 318.58 365.72C318.639 364.865 318.537 364.007 318.28 363.19H318.33ZM355.21 365.11C354.842 365.886 354.622 366.724 354.56 367.58C354.485 368.432 354.569 369.29 354.81 370.11C355.182 369.34 355.396 368.504 355.44 367.65C355.516 366.793 355.421 365.93 355.16 365.11H355.21ZM310.43 330.53L309.81 332.12C309.81 332.32 309.75 332.54 309.74 332.74C309.649 333.594 309.727 334.457 309.97 335.28C310.336 334.504 310.557 333.666 310.62 332.81C310.661 332.042 310.58 331.273 310.38 330.53H310.43ZM342.83 335.36C342.463 336.142 342.25 336.988 342.2 337.85C342.118 338.701 342.199 339.56 342.44 340.38C342.802 339.606 343.019 338.772 343.08 337.92C343.139 337.056 343.038 336.187 342.78 335.36H342.83Z" fill="white"/>
<path d="M346.25 309.74C372.11 336.65 409.8 404.79 414.45 414.57C417.62 421.2 382.94 438.68 381.45 433.86C379.56 427.68 349.36 351.42 341.33 322.64C336.93 306.78 340.91 304.18 346.25 309.74Z" fill="#FFC4C0"/>
<path d="M379.84 429.3C381.04 432.6 385.16 446.64 388.04 448.38C390.92 450.12 406.04 449.76 413.65 449.76C421.26 449.76 422.77 447.63 422.65 445.01C422.53 442.39 406.54 441.89 406.54 441.89C406.54 441.89 427.88 448 433.25 449C438.62 450 450.99 453.12 452.78 448.67C453.59 446.67 450.2 444.67 450.2 444.67C450.2 444.67 455.39 446.18 456.2 443.6C457.13 440.66 453.01 439.05 453.01 439.05C453.01 439.05 456.25 439.7 456.33 437.31C456.49 431.96 436.19 429.31 436.19 429.31C436.19 429.31 451.74 436.88 452.24 432.51C452.93 426.51 421.07 419.84 417.75 417.21C415.581 415.379 413.779 413.153 412.44 410.65L379.84 429.3Z" fill="#FFC4C0"/>
<path d="M422.53 446.34C422.574 445.973 422.531 445.6 422.405 445.253C422.278 444.905 422.071 444.592 421.8 444.34C421.255 443.839 420.629 443.434 419.95 443.14C418.54 442.533 417.078 442.057 415.58 441.72C412.58 440.96 409.5 440.42 406.44 439.63C409.609 439.579 412.772 439.935 415.85 440.69C417.418 441.051 418.929 441.627 420.34 442.4C421.067 442.808 421.703 443.359 422.21 444.02C422.456 444.348 422.615 444.733 422.671 445.139C422.727 445.545 422.678 445.958 422.53 446.34Z" fill="#263238"/>
<path d="M450.2 444.64C448 444.1 445.84 443.48 443.68 442.86C441.52 442.24 439.37 441.57 437.22 440.92L430.79 438.92C428.64 438.24 426.5 437.58 424.33 436.92C426.578 437.165 428.806 437.562 431 438.11C433.21 438.61 435.37 439.25 437.53 439.9C439.69 440.55 441.82 441.28 443.93 442.08C446.04 442.88 448.15 443.68 450.2 444.64Z" fill="#263238"/>
<path d="M429.49 431.59C431.561 431.724 433.62 432.008 435.65 432.44C437.675 432.853 439.678 433.37 441.65 433.99C443.633 434.605 445.58 435.333 447.48 436.17C449.385 436.982 451.229 437.927 453 439C451 438.32 449.12 437.57 447.17 436.92C445.22 436.27 443.28 435.59 441.32 434.99C439.36 434.39 437.4 433.8 435.42 433.22C433.44 432.64 431.49 432.13 429.49 431.59Z" fill="#263238"/>
<path d="M432.63 426.49C439.334 427.073 445.794 429.284 451.45 432.93C448.29 431.81 445.22 430.62 442.09 429.58C438.96 428.54 435.81 427.52 432.63 426.49Z" fill="#263238"/>
<path d="M372.4 337.82L343.13 338.82C343.13 338.82 339.13 324.66 338 316.51C336.51 305.72 340.17 302.64 350.24 311.4C357 317.29 372.4 337.82 372.4 337.82Z" fill="#455A64"/>
<path d="M346.7 338.73C346.39 338.68 343.38 338.73 343.16 338.73C342.73 337.06 342.32 335.37 341.87 333.73C341.65 332.9 341.41 332.06 341.16 331.23C340.91 330.4 340.61 329.23 340.37 328.46C340.37 328.436 340.361 328.413 340.344 328.396C340.327 328.38 340.304 328.37 340.28 328.37C340.256 328.37 340.233 328.38 340.216 328.396C340.2 328.413 340.19 328.436 340.19 328.46C340.41 329.54 340.6 330.34 340.79 331.27C340.98 332.2 341.15 332.94 341.36 333.77C341.8 335.52 342.19 337.4 342.72 339.13C344.059 339.113 345.395 339.006 346.72 338.81C346.728 338.797 346.73 338.781 346.726 338.766C346.722 338.751 346.713 338.738 346.7 338.73Z" fill="#263238"/>
<path d="M369.33 335.15C365.06 335 360.8 334.92 356.53 335.02C354.4 335.08 352.27 335.16 350.14 335.28C348.01 335.4 345.9 335.73 343.77 335.82C343.746 335.82 343.723 335.83 343.706 335.846C343.69 335.863 343.68 335.886 343.68 335.91C343.68 335.934 343.69 335.957 343.706 335.974C343.723 335.991 343.746 336 343.77 336C345.88 335.8 348.05 335.89 350.17 335.81L356.56 335.6C360.81 335.48 365.07 335.35 369.33 335.33C369.47 335.33 369.45 335.15 369.33 335.15Z" fill="#263238"/>
<path d="M325.45 318.73C329.84 319.85 337.52 313.25 340.61 307.85C340.82 307.48 340.31 303.52 339.93 298.69C339.71 295.76 339.53 292.49 339.59 289.49C339.59 288.87 320.71 293.72 320.71 293.72C321.713 297.487 322.254 301.362 322.32 305.26C322.304 305.671 322.251 306.079 322.16 306.48C322.163 306.55 322.163 306.62 322.16 306.69C321.71 309 321.21 317.64 325.45 318.73Z" fill="#FFC4C0"/>
<path d="M338.43 289.55C337.43 294.6 334.09 306.78 324.06 306.83C323.417 306.838 322.775 306.791 322.14 306.69C322.129 306.621 322.129 306.55 322.14 306.48C322.223 306.078 322.273 305.67 322.29 305.26C322.229 301.359 321.688 297.48 320.68 293.71C320.68 293.71 334.34 290.22 338.43 289.55Z" fill="#263238"/>
<path d="M344.54 269.84C345.64 276.72 339.54 295.32 334.25 298.93C326.59 304.16 315.36 303.21 311.25 294.3C307.25 285.67 315.66 261.57 321.43 258.43C330 253.8 342.9 259.67 344.54 269.84Z" fill="#FFC4C0"/>
<path d="M328.73 275.43C328.198 275.193 327.681 274.926 327.18 274.63C326.592 274.427 326.086 274.037 325.74 273.52C325.668 273.336 325.657 273.133 325.709 272.942C325.762 272.751 325.874 272.582 326.03 272.46C326.378 272.267 326.772 272.172 327.17 272.184C327.567 272.196 327.955 272.316 328.29 272.53C329.039 272.855 329.642 273.447 329.98 274.19C330.031 274.363 330.034 274.547 329.99 274.722C329.945 274.897 329.853 275.056 329.725 275.183C329.597 275.31 329.437 275.401 329.262 275.444C329.086 275.487 328.903 275.483 328.73 275.43Z" fill="#263238"/>
<path d="M315.61 271.47C316.188 271.533 316.769 271.567 317.35 271.57C317.96 271.695 318.594 271.61 319.15 271.33C319.31 271.211 319.426 271.042 319.478 270.85C319.531 270.658 319.517 270.454 319.44 270.27C319.234 269.927 318.94 269.646 318.588 269.456C318.236 269.266 317.84 269.174 317.44 269.19C316.631 269.097 315.817 269.303 315.15 269.77C315.019 269.894 314.924 270.052 314.875 270.225C314.826 270.399 314.825 270.583 314.872 270.757C314.919 270.932 315.013 271.09 315.143 271.216C315.273 271.341 315.434 271.429 315.61 271.47Z" fill="#263238"/>
<path d="M322.49 287.08C322.011 287.476 321.456 287.769 320.859 287.941C320.262 288.113 319.636 288.16 319.02 288.08C318.483 288.014 317.958 287.873 317.46 287.66C317.363 287.625 317.269 287.581 317.18 287.53L316.92 287.4C316.856 287.365 316.804 287.31 316.774 287.243C316.743 287.177 316.735 287.102 316.75 287.03C316.761 286.985 316.777 286.941 316.8 286.9V286.79C317.09 285.79 317.65 284.38 317.65 284.38C317.24 284.44 315.18 284.67 315.37 284.18C316.97 280.08 318.74 275.52 321.2 271.78C321.217 271.76 321.24 271.745 321.267 271.74C321.293 271.734 321.32 271.737 321.344 271.748C321.368 271.76 321.388 271.779 321.4 271.803C321.411 271.827 321.415 271.854 321.41 271.88C320.04 275.88 317.97 279.61 316.52 283.61C317.253 283.504 317.997 283.504 318.73 283.61C318.86 283.69 317.59 286.37 317.49 286.82V286.87C318.255 287.204 319.08 287.381 319.915 287.389C320.75 287.398 321.578 287.238 322.35 286.92C322.52 286.89 322.59 287 322.49 287.08Z" fill="#263238"/>
<path d="M318.19 287.33C318.497 288.192 319.02 288.96 319.71 289.56C320.099 289.871 320.573 290.056 321.07 290.09C322.16 290.15 322.48 289.24 322.55 288.39C322.584 287.939 322.563 287.486 322.49 287.04C321.124 287.593 319.618 287.694 318.19 287.33Z" fill="#263238"/>
<path d="M319.71 289.56C320.099 289.871 320.573 290.056 321.07 290.09C322.16 290.15 322.48 289.24 322.55 288.39C322.014 288.236 321.442 288.267 320.926 288.48C320.41 288.692 319.982 289.073 319.71 289.56Z" fill="#FF98B9"/>
<path d="M314.69 275.71C314.874 275.426 315.129 275.195 315.43 275.04C315.602 274.964 315.787 274.924 315.975 274.924C316.163 274.924 316.349 274.964 316.52 275.04C316.694 275.118 316.847 275.235 316.967 275.383C317.087 275.53 317.17 275.704 317.21 275.89C317.287 276.219 317.287 276.561 317.21 276.89C317.157 277.081 317.09 277.268 317.01 277.45C316.852 277.836 316.606 278.178 316.29 278.45C316.426 278.183 316.53 277.901 316.6 277.61C316.668 277.35 316.719 277.087 316.75 276.82C316.75 276.27 316.7 275.74 316.3 275.6C316.079 275.531 315.842 275.536 315.623 275.613C315.405 275.691 315.218 275.837 315.09 276.03C314.708 276.467 314.372 276.943 314.09 277.45C314.142 276.829 314.348 276.231 314.69 275.71Z" fill="#263238"/>
<path d="M324.31 279.07C324.449 278.76 324.671 278.494 324.95 278.3C325.108 278.2 325.284 278.135 325.468 278.107C325.652 278.08 325.84 278.091 326.02 278.14C326.203 278.195 326.371 278.292 326.512 278.422C326.652 278.552 326.761 278.712 326.83 278.89C326.938 279.212 326.972 279.553 326.93 279.89C326.93 280.08 326.85 280.28 326.8 280.47C326.694 280.871 326.495 281.241 326.22 281.55C326.32 281.269 326.387 280.977 326.42 280.68C326.444 280.411 326.444 280.139 326.42 279.87C326.42 279.32 326.23 278.81 325.82 278.73C325.591 278.685 325.354 278.718 325.146 278.823C324.937 278.928 324.77 279.099 324.67 279.31C324.365 279.796 324.104 280.308 323.89 280.84C323.884 280.225 324.028 279.617 324.31 279.07Z" fill="#263238"/>
<path d="M338.43 287.12C337.54 285.95 337.43 279.37 337.43 279.37C337.43 279.37 326.34 272.37 326.96 261.28C326.96 261.28 320.37 267.41 315.08 267.87C315.08 267.87 317.46 256.22 328.03 256.63C328.03 256.63 338.39 254.3 345.16 265.49C351.93 276.68 341.5 287.93 341.5 287.93L338.43 287.12Z" fill="#263238"/>
<path d="M327.62 259.29C326.905 261.033 326.67 262.936 326.94 264.8C327.134 266.645 327.588 268.453 328.29 270.17C328.952 271.949 329.901 273.608 331.1 275.08C332.587 276.656 334.299 278.004 336.18 279.08C336.24 279.08 336.18 279.22 336.12 279.18C334.135 278.137 332.302 276.828 330.67 275.29C329.327 273.842 328.241 272.175 327.46 270.36C326.57 268.565 326.072 266.602 326 264.6C326.035 262.714 326.519 260.863 327.41 259.2C327.422 259.172 327.444 259.15 327.473 259.139C327.501 259.128 327.532 259.128 327.56 259.14C327.588 259.152 327.61 259.175 327.621 259.203C327.632 259.231 327.632 259.262 327.62 259.29Z" fill="#263238"/>
<path d="M337.34 284.47C337.34 284.47 342.62 279 345.16 280.98C347.7 282.96 343.07 291.36 339.6 292.06C339.161 292.181 338.702 292.211 338.251 292.15C337.8 292.089 337.367 291.937 336.976 291.703C336.585 291.469 336.246 291.159 335.979 290.791C335.711 290.422 335.521 290.004 335.42 289.56L337.34 284.47Z" fill="#FFC4C0"/>
<path d="M343.77 283.35C343.83 283.35 343.83 283.43 343.77 283.44C341.32 284.01 339.77 285.95 338.58 288.03C338.75 287.821 338.962 287.651 339.204 287.532C339.445 287.414 339.71 287.349 339.979 287.342C340.248 287.335 340.515 287.387 340.762 287.494C341.009 287.601 341.23 287.76 341.41 287.96C341.46 288.01 341.41 288.1 341.33 288.07C340.946 287.878 340.512 287.81 340.088 287.874C339.664 287.939 339.27 288.133 338.96 288.43C338.447 288.931 337.988 289.484 337.59 290.08C337.45 290.27 337.1 290.08 337.21 289.88V289.83C337.66 286.89 340.58 283.15 343.77 283.35Z" fill="#263238"/>
<path d="M320.13 293.45C320.502 293.704 320.933 293.856 321.382 293.893C321.831 293.93 322.282 293.85 322.69 293.66C322.782 294.446 322.559 295.237 322.07 295.86L322.12 295.07C321.923 295.942 321.511 296.75 320.92 297.42C320.594 296.921 320.42 296.337 320.42 295.74L320.35 296.74C320.065 296.245 319.897 295.691 319.859 295.121C319.821 294.55 319.914 293.979 320.13 293.45Z" fill="#263238"/>
<path d="M200.29 414.51C199.4 416.33 202.36 429.65 203.29 432.39C204.22 435.13 207.5 450.39 209.29 451.1C211.08 451.81 219.67 451.85 220.89 451.42C222.11 450.99 220.98 448.36 219.6 447.42C218.22 446.48 216.6 445.04 216.6 445.04C216.6 445.04 219.75 421.69 219.35 419.04C218.95 416.39 202.7 409.61 200.29 414.51Z" fill="#F7DB8C"/>
<path opacity="0.1" d="M217.35 450.3C217.26 449.833 217.08 449.388 216.82 448.99C216.541 448.606 216.204 448.269 215.82 447.99C215.47 447.69 215.056 447.474 214.61 447.36C214.597 447.356 214.583 447.356 214.571 447.361C214.558 447.366 214.548 447.375 214.541 447.386C214.534 447.398 214.531 447.411 214.533 447.425C214.534 447.438 214.54 447.451 214.55 447.46C214.7 447.61 214.87 447.73 215.01 447.88L215.46 448.35C215.724 448.663 215.962 448.997 216.17 449.35C216.37 449.72 216.57 450.09 216.74 450.48C216.898 450.873 217.034 451.273 217.15 451.68C217.156 451.698 217.168 451.713 217.183 451.724C217.198 451.735 217.216 451.74 217.235 451.74C217.254 451.74 217.272 451.735 217.287 451.724C217.302 451.713 217.314 451.698 217.32 451.68C217.43 451.228 217.44 450.757 217.35 450.3Z" fill="black"/>
<path opacity="0.1" d="M219.9 449C219.444 448.161 218.723 447.497 217.85 447.11C217.79 447.11 217.73 447.11 217.78 447.19C218.43 447.736 218.979 448.393 219.4 449.13C219.611 449.505 219.743 449.92 219.788 450.348C219.833 450.776 219.789 451.209 219.66 451.62C219.66 451.62 219.66 451.67 219.72 451.62C219.986 451.241 220.143 450.797 220.175 450.335C220.207 449.873 220.112 449.412 219.9 449Z" fill="black"/>
<path d="M157.86 426.6C157.37 427.04 152.86 422.51 152.17 420.43C151.48 418.35 154.65 412.6 154.17 411.59C153.69 410.58 151.17 409.72 149.77 411.21C148.37 412.7 144.77 420.96 145.41 424.55C146.05 428.14 152.99 436.31 153.74 436.29C154.49 436.27 157.86 426.6 157.86 426.6Z" fill="#F7DB8C"/>
<path opacity="0.5" d="M157.86 426.6C157.37 427.04 152.86 422.51 152.17 420.43C151.48 418.35 154.65 412.6 154.17 411.59C153.69 410.58 151.17 409.72 149.77 411.21C148.37 412.7 144.77 420.96 145.41 424.55C146.05 428.14 152.99 436.31 153.74 436.29C154.49 436.27 157.86 426.6 157.86 426.6Z" fill="white"/>
<path d="M157.86 426.6C157.86 426.6 154.45 436.27 153.7 436.29C153.15 436.29 149.28 431.94 147 428.19L153.67 422.87C155.26 424.86 157.52 426.9 157.86 426.6Z" fill="#F7DB8C"/>
<path d="M184.74 388.44L218.74 388.02C218.74 388.02 223.5 413.55 223.09 416.91C222.68 420.27 205 444.78 199.66 447.86C194.32 450.94 166.66 450.34 159.3 448.52C153.61 447.1 149.03 439.66 151.71 428.46C152.89 423.56 165.98 411.38 168.56 410C172.14 408.07 184.74 388.44 184.74 388.44Z" fill="#F7DB8C"/>
<path opacity="0.5" d="M184.74 388.44L218.74 388.02C218.74 388.02 223.5 413.55 223.09 416.91C222.68 420.27 205 444.78 199.66 447.86C194.32 450.94 166.66 450.34 159.3 448.52C153.61 447.1 149.03 439.66 151.71 428.46C152.89 423.56 165.98 411.38 168.56 410C172.14 408.07 184.74 388.44 184.74 388.44Z" fill="white"/>
<path d="M159.14 427.43C159.14 427.43 169.97 421.05 177.39 422.43C184.81 423.81 187.04 439.23 183.23 447.75C183.23 447.75 189.98 449.96 189.89 453.25C189.89 455.13 185.94 455.62 180.33 455.33C174.72 455.04 163.57 454.63 163.33 453.21C163.312 452.048 163.595 450.901 164.15 449.88C164.15 449.88 154.15 448.47 152.32 441.74C150.49 435.01 157.43 428.52 159.14 427.43Z" fill="#F7DB8C"/>
<path opacity="0.5" d="M159.14 427.43C159.14 427.43 169.97 421.05 177.39 422.43C184.81 423.81 187.04 439.23 183.23 447.75C183.23 447.75 189.98 449.96 189.89 453.25C189.89 455.13 185.94 455.62 180.33 455.33C174.72 455.04 163.57 454.63 163.33 453.21C163.312 452.048 163.595 450.901 164.15 449.88C164.15 449.88 154.15 448.47 152.32 441.74C150.49 435.01 157.43 428.52 159.14 427.43Z" fill="white"/>
<path d="M183.43 447.73C184.675 445.464 185.36 442.934 185.43 440.35C185.505 438.719 185.425 437.085 185.19 435.47C185.07 434.62 184.94 433.77 184.74 432.94C184.492 432.061 184.309 431.165 184.19 430.26C184.19 430.18 184.07 430.2 184.09 430.26C184.265 431.127 184.365 432.006 184.39 432.89C184.45 433.71 184.54 434.54 184.6 435.36C184.735 436.94 184.785 438.525 184.75 440.11C184.715 443.083 183.997 446.009 182.65 448.66C182.65 448.72 182.71 448.77 182.75 448.71C182.958 448.423 183.152 448.126 183.33 447.82C184.77 448.347 186.154 449.017 187.46 449.82C187.46 449.82 187.53 449.82 187.51 449.82C186.383 448.74 184.965 448.014 183.43 447.73Z" fill="#F7DB8C"/>
<path d="M173.11 448.27C170.23 449.356 167.187 449.944 164.11 450.01C164.05 450.01 164.03 450.11 164.11 450.12C167.223 450.51 170.379 449.886 173.11 448.34C173.11 448.34 173.16 448.25 173.11 448.27Z" fill="#F7DB8C"/>
<path d="M185.45 455.54C185.113 454.275 184.314 453.183 183.21 452.48C182.613 452.058 181.96 451.722 181.27 451.48C180.48 451.18 179.66 451.01 178.87 450.74C178.8 450.74 178.75 450.82 178.82 450.84C179.512 451.119 180.181 451.454 180.82 451.84C181.458 452.196 182.075 452.586 182.67 453.01C183.652 453.762 184.506 454.666 185.2 455.69C185.26 455.74 185.48 455.69 185.45 455.54Z" fill="#F7DB8C"/>
<path d="M184.22 450.22C184.209 450.225 184.2 450.232 184.194 450.242C184.187 450.252 184.184 450.263 184.184 450.275C184.184 450.287 184.187 450.298 184.194 450.308C184.2 450.318 184.209 450.325 184.22 450.33C186.256 451.245 187.855 452.916 188.68 454.99C188.68 455.08 188.86 455.08 188.85 454.99C188.712 453.796 188.184 452.68 187.346 451.817C186.509 450.955 185.41 450.393 184.22 450.22Z" fill="#F7DB8C"/>
<path d="M163.05 425.44C164.728 424.63 166.454 423.925 168.22 423.33C169.988 422.716 171.809 422.267 173.66 421.99C174.604 421.86 175.558 421.819 176.51 421.87C177.507 421.909 178.479 422.195 179.34 422.7C180.918 423.832 182.195 425.332 183.06 427.07C184.855 430.431 185.773 434.19 185.73 438C185.694 439.885 185.428 441.759 184.94 443.58C184.44 445.38 183.718 447.11 182.79 448.73C184.269 445.354 184.986 441.694 184.89 438.01C184.8 434.364 183.88 430.787 182.2 427.55C181.416 425.946 180.281 424.538 178.88 423.43C178.139 422.983 177.303 422.715 176.44 422.65C175.542 422.555 174.637 422.555 173.74 422.65C170.076 423.139 166.486 424.076 163.05 425.44Z" fill="#F7DB8C"/>
<path d="M183.36 417.33C182.47 419.15 185.43 432.47 186.36 435.21C187.29 437.95 190.56 453.21 192.36 453.92C194.16 454.63 202.74 454.67 203.97 454.24C205.2 453.81 204.05 451.18 202.67 450.24C201.29 449.3 199.67 447.86 199.67 447.86C199.67 447.86 202.82 424.51 202.42 421.86C202.02 419.21 185.76 412.43 183.36 417.33Z" fill="#F7DB8C"/>
<path opacity="0.5" d="M183.36 417.33C182.47 419.15 185.43 432.47 186.36 435.21C187.29 437.95 190.56 453.21 192.36 453.92C194.16 454.63 202.74 454.67 203.97 454.24C205.2 453.81 204.05 451.18 202.67 450.24C201.29 449.3 199.67 447.86 199.67 447.86C199.67 447.86 202.82 424.51 202.42 421.86C202.02 419.21 185.76 412.43 183.36 417.33Z" fill="white"/>
<path d="M189.08 444.77C188.58 443.07 187.91 441.41 187.4 439.71C187.4 439.64 187.28 439.71 187.3 439.71C187.68 441.09 187.97 442.49 188.3 443.87C188.24 443.78 188.19 443.68 188.13 443.58C187.748 443.05 187.445 442.467 187.23 441.85C187.23 441.837 187.225 441.824 187.215 441.815C187.206 441.805 187.193 441.8 187.18 441.8C187.167 441.8 187.154 441.805 187.145 441.815C187.135 441.824 187.13 441.837 187.13 441.85C187.21 442.138 187.321 442.416 187.46 442.68L187.91 443.6C188.11 444 188.33 444.39 188.55 444.78C188.55 444.78 188.55 444.83 188.55 444.86C189.027 446.574 189.592 448.263 190.24 449.92C190.246 449.935 190.256 449.949 190.269 449.958C190.283 449.967 190.299 449.972 190.315 449.972C190.331 449.972 190.347 449.967 190.361 449.958C190.374 449.949 190.384 449.935 190.39 449.92C190.1 448.18 189.59 446.49 189.08 444.77Z" fill="#F7DB8C"/>
<path d="M201.82 430.88C201.82 430.88 201.75 430.83 201.75 430.88C201.54 432.23 201.43 433.6 201.28 434.95C201.13 436.3 200.92 437.76 200.75 439.16C200.4 441.96 199.91 444.74 199.64 447.55C199.64 447.67 199.82 447.69 199.85 447.55C200.514 444.84 200.985 442.087 201.26 439.31C201.43 437.94 201.54 436.56 201.64 435.18C201.74 433.8 201.85 432.32 201.82 430.88Z" fill="#F7DB8C"/>
<path d="M200.83 452.94C200.748 452.472 200.571 452.026 200.31 451.63C200.026 451.251 199.689 450.914 199.31 450.63C198.958 450.333 198.545 450.118 198.1 450C198.04 450 197.99 450.06 198.04 450.1C198.09 450.14 198.36 450.37 198.5 450.53L198.95 451C199.219 451.309 199.457 451.644 199.66 452C199.86 452.37 200.06 452.74 200.23 453.12C200.4 453.5 200.5 453.92 200.64 454.32C200.646 454.338 200.658 454.353 200.673 454.364C200.688 454.375 200.706 454.38 200.725 454.38C200.744 454.38 200.762 454.375 200.777 454.364C200.792 454.353 200.804 454.338 200.81 454.32C200.92 453.867 200.927 453.396 200.83 452.94Z" fill="#F7DB8C"/>
<path d="M203.39 451.63C202.944 450.802 202.242 450.139 201.39 449.74C201.33 449.74 201.27 449.74 201.32 449.83C201.97 450.372 202.518 451.026 202.94 451.76C203.149 452.136 203.28 452.551 203.324 452.978C203.369 453.406 203.327 453.839 203.2 454.25H203.26C203.517 453.866 203.665 453.419 203.688 452.958C203.711 452.497 203.608 452.038 203.39 451.63Z" fill="#F7DB8C"/>
<path d="M182.71 396C182.71 396 193.86 405.33 211.44 401.1C224.29 398 225.07 387.78 225.07 387.78L182.71 396Z" fill="#455A64"/>
<path d="M203.59 351.13C203.02 349.65 206.29 343.9 207.59 341.95C208.89 340 216.59 336.5 219.25 337.65C220.3 338.1 222.53 341.74 225.37 344.82C229.75 349.59 234.81 354.55 233.3 356.16C229.65 360.08 220 355.41 216.86 353.83C213.72 352.25 210.8 350.24 210.09 350.39C209.15 350.59 207.3 352.29 206.51 352.45C205.947 352.552 205.366 352.481 204.844 352.245C204.323 352.009 203.885 351.62 203.59 351.13Z" fill="#F7DB8C"/>
<path d="M185 346.72C176.25 353.19 173.57 368.39 173.55 370.72C173.55 372.72 169.76 379.93 171.27 387.2C172.27 391.87 181.34 397.31 188.27 396.57C189.54 396.44 200.66 399.28 209.67 397.77C218.68 396.26 224.89 388.25 225.1 387.68C225.31 387.11 232.73 384.13 232.45 376.5C232 364.32 217.51 346.99 213.7 344.5C207.36 340.48 191 342.32 185 346.72Z" fill="#F7DB8C"/>
<path opacity="0.5" d="M185 346.72C176.25 353.19 173.57 368.39 173.55 370.72C173.55 372.72 169.76 379.93 171.27 387.2C172.27 391.87 181.34 397.31 188.27 396.57C189.54 396.44 200.66 399.28 209.67 397.77C218.68 396.26 224.89 388.25 225.1 387.68C225.31 387.11 232.73 384.13 232.45 376.5C232 364.32 217.51 346.99 213.7 344.5C207.36 340.48 191 342.32 185 346.72Z" fill="white"/>
<path d="M210.7 371.57C205 372.18 203 378.57 202.47 380.2C201.94 381.83 198.77 385.85 199.05 389.67C199.33 393.49 206.98 397.03 214.48 394.94C221.98 392.85 225.56 388.18 225.13 384.31C224.8 381.21 221.6 378.8 221.19 378.01C220.78 377.22 215.9 371 210.7 371.57Z" fill="#F7DB8C"/>
<path opacity="0.2" d="M210.7 371.57C205 372.18 203 378.57 202.47 380.2C201.94 381.83 198.77 385.85 199.05 389.67C199.33 393.49 206.98 397.03 214.48 394.94C221.98 392.85 225.56 388.18 225.13 384.31C224.8 381.21 221.6 378.8 221.19 378.01C220.78 377.22 215.9 371 210.7 371.57Z" fill="white"/>
<path d="M188.32 375.66C187.436 373.618 186.98 371.416 186.98 369.19C186.968 368.043 187.127 366.901 187.45 365.8C187.613 365.229 187.841 364.679 188.13 364.16C188.4 363.627 188.736 363.13 189.13 362.68C189.332 362.452 189.549 362.238 189.78 362.04C190.01 361.85 190.25 361.68 190.49 361.51L190.86 361.25L191.25 361.04C191.507 360.892 191.775 360.762 192.05 360.65C193.136 360.209 194.298 359.985 195.47 359.99C197.723 359.972 199.933 360.6 201.84 361.8C199.792 361.246 197.661 361.066 195.55 361.27C194.556 361.384 193.587 361.657 192.68 362.08C192.46 362.185 192.247 362.302 192.04 362.43L191.72 362.61L191.43 362.83C191.24 362.98 191.03 363.12 190.85 363.28C190.673 363.437 190.507 363.603 190.35 363.78C189.694 364.502 189.197 365.354 188.89 366.28C188.555 367.251 188.333 368.258 188.23 369.28C188.037 371.404 188.067 373.542 188.32 375.66Z" fill="#F7DB8C"/>
<path d="M227.35 367.28C227.273 365.465 226.994 363.664 226.52 361.91C226.119 360.276 225.213 358.809 223.93 357.72C223.616 357.484 223.281 357.276 222.93 357.1C222.58 356.943 222.21 356.835 221.83 356.78C220.994 356.66 220.146 356.66 219.31 356.78C217.514 357.06 215.745 357.488 214.02 358.06C214.749 357.46 215.54 356.941 216.38 356.51C216.81 356.3 217.24 356.1 217.68 355.92C218.12 355.74 218.58 355.6 219.05 355.47C220.024 355.193 221.041 355.098 222.05 355.19C222.588 355.241 223.114 355.376 223.61 355.59C225.05 356.236 226.213 357.374 226.89 358.8C227.333 359.686 227.627 360.638 227.76 361.62C228.045 363.514 227.905 365.447 227.35 367.28Z" fill="#F7DB8C"/>
<path d="M203.35 370.77C203.35 370.67 203.14 370.93 203.16 371.03C203.62 373.62 203.67 376.67 201.21 377.91C201.191 377.91 201.174 377.917 201.16 377.931C201.147 377.944 201.14 377.962 201.14 377.98C201.14 377.999 201.147 378.016 201.16 378.03C201.174 378.043 201.191 378.05 201.21 378.05C204.35 377.2 204.24 373.15 203.35 370.77Z" fill="#263238"/>
<path d="M200.41 368.41C195.77 368.75 196.6 377.2 200.9 376.89C205.2 376.58 204.3 368.13 200.41 368.41Z" fill="#263238"/>
<path d="M218.76 367.68C218.76 367.58 219.01 367.76 219.03 367.86C219.44 370.46 220.4 373.36 223.13 373.71C223.21 373.71 223.23 373.86 223.13 373.86C219.93 374.08 218.7 370.22 218.76 367.68Z" fill="#263238"/>
<path d="M220.76 364.49C225.25 363.28 227.24 371.49 223.08 372.65C218.92 373.81 217 365.5 220.76 364.49Z" fill="#263238"/>
<path d="M213.91 375.92C213.19 376.18 208.36 374.92 208.7 373.39C209.04 371.86 216.13 370.49 217.06 371.54C217.99 372.59 214.67 375.65 213.91 375.92Z" fill="#263238"/>
<path d="M207.23 379.73C208.207 380.386 209.245 380.945 210.33 381.4C210.837 381.634 211.392 381.747 211.95 381.73C212.29 381.73 212.52 381.26 212.66 380.79C212.917 379.81 213.061 378.803 213.09 377.79C213.16 376.79 213.16 375.71 213.16 374.68V371.82L214.22 374.5C214.55 375.32 214.92 376.14 215.29 376.95C215.656 377.764 216.077 378.553 216.55 379.31C216.666 379.497 216.797 379.674 216.94 379.84C217.066 379.998 217.214 380.136 217.38 380.25C217.538 380.311 217.712 380.311 217.87 380.25C218.083 380.172 218.282 380.06 218.46 379.92C219.193 379.291 219.824 378.553 220.33 377.73C220.005 378.652 219.486 379.494 218.81 380.2C218.607 380.403 218.37 380.568 218.11 380.69C217.946 380.754 217.775 380.798 217.6 380.82C217.405 380.841 217.209 380.81 217.03 380.73C216.774 380.606 216.541 380.441 216.34 380.24C216.166 380.06 216.002 379.869 215.85 379.67C215.28 378.925 214.781 378.128 214.36 377.29C213.931 376.484 213.544 375.656 213.2 374.81L214.25 374.62C214.28 375.681 214.25 376.743 214.16 377.8C214.16 378.33 214.04 378.87 213.95 379.4C213.861 379.949 213.72 380.488 213.53 381.01C213.423 381.3 213.275 381.572 213.09 381.82C212.974 381.98 212.828 382.116 212.66 382.22C212.552 382.286 212.434 382.334 212.31 382.36C212.204 382.374 212.096 382.374 211.99 382.36C211.308 382.344 210.642 382.159 210.05 381.82C209.014 381.264 208.064 380.56 207.23 379.73Z" fill="#263238"/>
<path d="M213.37 380.64C213.37 380.64 213.93 384.48 215.37 384.12C216.81 383.76 216.37 379.79 216.37 379.79L213.75 375.49L213.37 380.64Z" fill="#263238"/>
<path d="M213.65 382C213.844 381.768 214.107 381.604 214.4 381.53C214.701 381.562 214.995 381.643 215.27 381.77C215.337 381.671 215.426 381.589 215.53 381.53C215.634 381.471 215.751 381.437 215.87 381.43C216.52 381.43 217.43 382.85 217.72 384.2C218.01 385.55 218.07 387.48 216.8 387.52C215.53 387.56 215.4 384.16 215.4 384.16C215.4 384.16 214.28 384.58 213.65 382Z" fill="#FF98B9"/>
<path d="M215.27 381.73C215.63 381.912 215.936 382.184 216.16 382.52C216.389 382.853 216.571 383.217 216.7 383.6C216.52 383.253 216.316 382.919 216.09 382.6C215.878 382.258 215.599 381.962 215.27 381.73Z" fill="#263238"/>
<path d="M215.4 384.12C215.199 383.909 214.978 383.718 214.74 383.55C214.888 383.584 215.026 383.654 215.141 383.753C215.256 383.852 215.345 383.978 215.4 384.12Z" fill="#263238"/>
<path d="M200.58 383.83C198.595 383.941 196.618 383.493 194.875 382.536C193.132 381.579 191.693 380.151 190.721 378.417C189.749 376.682 189.284 374.709 189.378 372.723C189.473 370.736 190.123 368.817 191.255 367.182C192.386 365.547 193.955 364.262 195.78 363.475C197.606 362.687 199.617 362.428 201.583 362.727C203.548 363.026 205.391 363.871 206.9 365.166C208.41 366.46 209.525 368.153 210.12 370.05C210.597 371.592 210.718 373.223 210.472 374.819C210.227 376.414 209.621 377.933 208.702 379.261C207.783 380.588 206.575 381.69 205.168 382.481C203.76 383.273 202.192 383.734 200.58 383.83ZM199.49 364.05C198.725 364.089 197.969 364.227 197.24 364.46C195.01 365.162 193.131 366.688 191.986 368.727C190.842 370.766 190.517 373.164 191.079 375.434C191.641 377.703 193.046 379.674 195.01 380.943C196.973 382.213 199.347 382.686 201.647 382.267C203.947 381.848 206.001 380.568 207.391 378.687C208.78 376.807 209.401 374.467 209.126 372.145C208.851 369.823 207.701 367.693 205.911 366.189C204.121 364.685 201.825 363.92 199.49 364.05Z" fill="#455A64"/>
<path d="M224.55 379.54C220.5 379.76 216.55 375.81 215.64 370.35C215.144 367.751 215.473 365.063 216.58 362.66C216.996 361.601 217.678 360.667 218.56 359.948C219.442 359.229 220.494 358.749 221.615 358.554C222.736 358.359 223.888 358.456 224.961 358.835C226.034 359.215 226.991 359.864 227.74 360.72C229.587 362.614 230.8 365.036 231.21 367.65C232.21 373.42 229.53 378.71 225.21 379.46C225 379.5 224.78 379.52 224.55 379.54ZM222.39 359.88C222.212 359.89 222.035 359.91 221.86 359.94C220.974 360.135 220.148 360.54 219.452 361.121C218.756 361.703 218.21 362.443 217.86 363.28C216.877 365.414 216.59 367.804 217.04 370.11C217.91 375.11 221.47 378.68 225.04 378.06C228.61 377.44 230.72 372.89 229.85 367.89C229.498 365.571 228.428 363.42 226.79 361.74C226.227 361.14 225.545 360.664 224.787 360.344C224.029 360.024 223.213 359.866 222.39 359.88Z" fill="#455A64"/>
<path d="M209.8 371L208.8 370C210.32 368.55 213.92 366.5 216.68 369.1L215.68 370.1C213.25 367.78 209.94 370.88 209.8 371Z" fill="#455A64"/>
<path d="M167.7 372.25L166.52 371.47C166.88 370.92 170.17 366.07 173.38 365.9C176.38 365.74 190.58 368.41 191.38 368.57L191.1 369.96C185.73 368.87 175.78 367.19 173.46 367.32C171.34 367.43 168.58 370.92 167.7 372.25Z" fill="#455A64"/>
<path d="M191.63 350.32C191.19 348.72 184.83 345.9 182.54 345.04C180.25 344.18 171.54 346.04 170 348.69C169.39 349.69 169.79 354.2 169.32 358.57C168.59 365.34 167.41 372.69 169.69 373.11C175.23 374.11 180.46 364.17 182.13 360.87C183.8 357.57 185.01 354.05 185.7 353.73C186.62 353.32 189.25 353.59 190.02 353.24C190.547 352.967 190.981 352.544 191.268 352.024C191.555 351.505 191.681 350.911 191.63 350.32Z" fill="#F7DB8C"/>
<path d="M275.52 208.65H229.15V243.32H275.52V208.65Z" fill="#F7DB8C"/>
<path d="M243.49 243.32H261.17L252.33 252.87L243.49 243.32Z" fill="#F7DB8C"/>
<path d="M261.33 228.28C258.925 231.499 255.856 234.163 252.33 236.09C248.806 234.16 245.737 231.497 243.33 228.28C240.16 224.09 240.33 217.52 244.85 216.1C249.85 214.53 252.33 222.1 252.33 222.1C252.33 222.1 254.83 214.51 259.81 216.1C264.33 217.57 264.5 224.09 261.33 228.28Z" fill="white"/>
<path d="M302.43 172.27H272.31V194.79H302.43V172.27Z" fill="#F7DB8C"/>
<path d="M281.63 194.79H293.11L287.37 201L281.63 194.79Z" fill="#F7DB8C"/>
<path d="M293.22 185C291.655 187.092 289.661 188.824 287.37 190.08C285.081 188.825 283.09 187.093 281.53 185C279.47 182.28 279.53 178 282.53 177.09C285.79 176.09 287.39 180.97 287.39 180.97C287.39 180.97 289.01 176.04 292.25 177.09C295.16 178.07 295.28 182.3 293.22 185Z" fill="white"/>
<path d="M433.5 61.01H387.13V95.68H433.5V61.01Z" fill="#F7DB8C"/>
<path d="M401.47 95.68H419.16L410.32 105.24L401.47 95.68Z" fill="#F7DB8C"/>
<path d="M419.32 80.64C416.914 83.8607 413.845 86.5274 410.32 88.46C406.795 86.5274 403.726 83.8607 401.32 80.64C398.15 76.45 398.32 69.88 402.84 68.46C407.84 66.89 410.32 74.46 410.32 74.46C410.32 74.46 412.82 66.86 417.8 68.46C422.32 69.93 422.49 76.45 419.32 80.64Z" fill="white"/>
</svg>
