<svg width="405" height="380" viewBox="0 0 405 380" fill="none" xmlns="http://www.w3.org/2000/svg">
<path d="M202.5 353.792C126.312 353.792 64.5488 347.34 64.5488 339.382C64.5488 331.424 126.312 324.972 202.5 324.972C278.688 324.972 340.451 331.424 340.451 339.382C340.451 347.34 278.688 353.792 202.5 353.792Z" fill="#EBEBEB"/>
<path d="M72.414 311.372C72.3628 310.858 72.4627 310.341 72.7016 309.883C72.9405 309.426 73.3079 309.048 73.7586 308.796C73.326 308.532 72.989 308.136 72.7967 307.667C72.6044 307.198 72.5668 306.68 72.6894 306.188C73.1754 304.568 75.1761 304.746 75.1761 304.746C74.7873 304.418 74.528 303.963 74.4449 303.461C74.3618 302.959 74.4602 302.444 74.7225 302.009C75.4191 300.583 77.5575 301.336 77.5575 301.336C77.1528 300.906 76.9053 300.352 76.8554 299.764C76.8054 299.176 76.9558 298.588 77.2821 298.096C77.7438 297.286 79.218 297.408 79.3152 297.286C82.62 292.936 89.6508 284.148 106.92 288.417C120.074 291.657 124.197 304.349 123.647 315.398C123.647 315.568 124.546 315.657 124.546 316.848C124.572 317.138 124.514 317.43 124.377 317.687C124.24 317.945 124.032 318.157 123.776 318.298C124.049 318.539 124.233 318.865 124.298 319.224C124.362 319.583 124.304 319.952 124.133 320.274C123.968 320.622 123.69 320.905 123.344 321.075C122.999 321.246 122.606 321.294 122.229 321.214C122.464 321.651 123.582 322.356 122.958 323.96C122.774 324.41 122.441 324.785 122.016 325.022C121.591 325.259 121.097 325.344 120.617 325.264C120.864 325.607 121.004 326.016 121.017 326.439C121.03 326.862 120.916 327.279 120.69 327.637C120.479 327.985 119.005 328.082 118.762 328.236C132.953 335.526 155.091 335.364 159.578 337.146C174.255 342.946 156.986 357.113 144.31 352.706C143.5 352.423 144.812 350.908 145.662 350.989C159.935 352.293 166.609 341.917 158.031 339.511C152.466 337.956 130.685 338.224 117.62 330.796C116.551 330.188 115.871 331.695 115.587 331.979C108.84 338.766 94.6566 340.743 85.6818 335.737C74.2122 329.346 73.1835 319.116 73.4751 313.502C73.1208 313.278 72.8347 312.961 72.6477 312.585C72.4606 312.21 72.3799 311.79 72.414 311.372Z" fill="#455A64"/>
<path d="M79.704 305.062C83.025 311.542 90.0396 315.592 96.714 317.925C103.773 320.427 111.354 321.085 118.738 319.837C119.289 319.747 119.548 320.598 118.973 320.687C111.186 322.013 103.188 321.265 95.7825 318.516C89.181 316.038 82.3041 311.98 78.9912 305.508C78.6915 305.005 79.4529 304.56 79.704 305.062Z" fill="#263238"/>
<path d="M77.4442 312.725C82.2276 318.038 88.1962 322.148 94.8657 324.722C101.535 327.296 108.718 328.262 115.83 327.54C116.397 327.483 116.389 328.35 115.83 328.423C108.602 329.143 101.306 328.153 94.5307 325.533C87.7557 322.913 81.6918 318.736 76.8286 313.34C76.4479 312.927 77.0635 312.304 77.4442 312.725Z" fill="#263238"/>
<path d="M79.1532 297.221C83.2599 290.174 91.4409 287.85 99.1845 287.761C99.262 287.758 99.3385 287.778 99.4047 287.818C99.471 287.858 99.5239 287.917 99.5571 287.987C99.9529 287.745 100.374 287.547 100.813 287.396C101.347 287.218 101.623 288.06 101.047 288.247C99.8748 288.625 98.8785 289.415 98.2428 290.47C97.6071 291.526 97.3748 292.776 97.5888 293.989C97.5888 293.989 97.5888 294.038 97.5888 294.062C98.223 293.936 98.864 293.847 99.5085 293.795C99.5008 293.76 99.5008 293.724 99.5085 293.69C99.558 292.401 99.9873 291.157 100.743 290.112C101.498 289.067 102.545 288.268 103.753 287.817C103.806 287.792 103.864 287.78 103.922 287.782C103.981 287.785 104.038 287.801 104.088 287.831C104.138 287.861 104.181 287.902 104.211 287.952C104.242 288.002 104.26 288.059 104.263 288.117H104.368C104.419 288.062 104.483 288.02 104.553 287.996C104.624 287.972 104.7 287.966 104.773 287.979C113.505 289.453 118.155 296.249 120.593 304.139L120.674 303.993C120.733 303.892 120.83 303.819 120.943 303.789C121.056 303.759 121.176 303.776 121.277 303.835C121.378 303.894 121.452 303.991 121.481 304.104C121.511 304.217 121.494 304.337 121.435 304.438C121.249 304.771 121.046 305.103 120.844 305.427V305.475C118.732 308.968 116.117 312.131 113.084 314.863C113.035 314.948 112.962 315.015 112.873 315.058C112.234 315.625 111.577 316.183 110.897 316.718C111.707 316.718 112.517 316.718 113.327 316.718C113.33 316.648 113.35 316.579 113.385 316.519C113.42 316.458 113.47 316.407 113.53 316.37C117.264 313.846 120.232 310.343 122.107 306.245C122.342 305.734 123.104 306.18 122.869 306.69C121.038 310.69 118.196 314.143 114.623 316.71C116.902 316.523 119.157 316.111 121.354 315.479C121.41 315.463 121.468 315.459 121.526 315.466C121.583 315.473 121.639 315.492 121.689 315.52C121.74 315.549 121.784 315.587 121.82 315.633C121.855 315.678 121.881 315.731 121.897 315.787C121.912 315.842 121.917 315.901 121.909 315.958C121.902 316.016 121.884 316.071 121.855 316.122C121.827 316.172 121.789 316.216 121.743 316.252C121.697 316.288 121.645 316.314 121.589 316.329C105.6 320.914 89.3268 313.689 79.8174 300.502C79.4853 300.048 80.2548 299.603 80.5788 300.064L80.7003 300.218C82.0637 296.952 84.4093 294.191 87.4121 292.317C90.4149 290.444 93.9261 289.55 97.4592 289.761C97.5306 289.762 97.6005 289.781 97.6617 289.818C97.9418 289.4 98.2738 289.019 98.6499 288.684C91.2141 288.87 83.4462 291.179 79.6635 298.129C79.6344 298.181 79.5959 298.228 79.5501 298.266C79.5906 298.525 79.6392 298.777 79.6878 299.036C79.7931 299.587 78.9426 299.846 78.8373 299.271L78.57 297.78C78.5516 297.701 78.5541 297.618 78.5774 297.54C78.6006 297.462 78.6438 297.391 78.7026 297.335C78.7614 297.278 78.8339 297.238 78.9129 297.218C78.9919 297.199 79.0747 297.2 79.1532 297.221ZM119.985 305.216C117.847 297.78 113.862 291.276 106.215 289.243C112.541 293.244 118.365 300.064 118.365 307.711C118.932 306.901 119.467 306.067 119.985 305.216ZM117.45 308.934C118.049 301.207 112.379 294.289 106.11 290.199C109.14 292.766 111.57 295.968 113.227 299.578C114.884 303.187 115.729 307.117 115.7 311.089C116.275 310.392 116.859 309.671 117.45 308.934ZM113.206 313.648C113.764 313.122 114.307 312.571 114.826 312.028C114.792 311.963 114.775 311.891 114.777 311.818C114.935 307.352 113.949 302.92 111.914 298.942C109.878 294.965 106.86 291.573 103.145 289.089L102.943 289.202C106.357 292.262 109.048 296.043 110.82 300.271C112.593 304.499 113.402 309.069 113.189 313.648H113.206ZM108.451 316.629C108.451 316.216 108.451 315.819 108.491 315.382C108.491 314.823 109.39 314.815 109.374 315.382L109.326 316.694H109.828C109.83 316.623 109.848 316.554 109.88 316.491C109.912 316.428 109.958 316.372 110.014 316.329C110.824 315.73 111.545 315.098 112.274 314.45C112.624 309.828 111.899 305.188 110.159 300.893C108.418 296.597 105.707 292.763 102.238 289.688C101.906 289.994 101.609 290.336 101.355 290.709C101.392 290.731 101.424 290.758 101.452 290.79C106.835 297.22 109.648 305.414 109.35 313.794C109.35 314.361 108.451 314.361 108.475 313.794C108.757 305.698 106.056 297.78 100.885 291.543C100.664 292.013 100.511 292.512 100.432 293.026C100.488 293.037 100.541 293.06 100.587 293.094C100.633 293.127 100.671 293.17 100.699 293.22C105.18 300.103 107.324 308.246 106.815 316.443C107.349 316.516 107.892 316.58 108.435 316.629H108.451ZM93.5226 296.46C92.9617 296.769 92.4207 297.112 91.9026 297.489C93.3494 300.491 95.4402 303.138 98.0262 305.24C98.0876 305.248 98.1458 305.273 98.1943 305.311C98.2429 305.35 98.2799 305.401 98.3016 305.459C100.496 307.181 102.993 308.478 105.664 309.282C105.608 308.837 105.543 308.383 105.47 307.938C100.319 305.551 96.114 301.511 93.5226 296.46ZM95.8554 298.647C95.941 297.34 96.4086 296.086 97.2 295.042C96.201 295.279 95.2292 295.618 94.3002 296.055C94.7681 296.943 95.2873 297.803 95.8554 298.631V298.647ZM90.4608 298.971C89.8346 300.331 89.5613 301.827 89.6661 303.32C89.7709 304.814 90.2503 306.257 91.0602 307.516C91.5466 307.231 91.9932 306.882 92.3886 306.48C91.5553 305.518 91.0439 304.32 90.9263 303.053C90.8086 301.787 91.0905 300.515 91.7325 299.416C91.7623 299.357 91.807 299.307 91.8621 299.271C91.6353 298.874 91.4247 298.461 91.2222 298.056C90.963 298.274 90.7281 298.501 90.4932 298.728C90.5035 298.805 90.4923 298.884 90.4608 298.955V298.971ZM92.9637 305.799C93.5711 304.954 93.9707 303.977 94.1301 302.948C94.1437 302.861 94.1865 302.781 94.2516 302.721C93.5647 301.892 92.9342 301.018 92.3643 300.105C91.8942 301.005 91.7004 302.024 91.807 303.034C91.9136 304.045 92.316 305.001 92.9637 305.783V305.799ZM102.87 305.313C102.848 305.357 102.821 305.398 102.789 305.435C103.574 305.951 104.385 306.427 105.219 306.86C105.049 305.977 104.83 305.119 104.595 304.252C104.232 304.219 103.867 304.305 103.556 304.496C103.246 304.687 103.005 304.974 102.87 305.313ZM104.385 303.369C104.012 302.149 103.58 300.942 103.089 299.749C102.269 299.899 101.51 300.279 100.898 300.844C100.285 301.409 99.8459 302.135 99.63 302.94C99.6315 302.959 99.6315 302.978 99.63 302.997C100.417 303.716 101.253 304.379 102.133 304.981C102.318 304.519 102.633 304.121 103.04 303.835C103.447 303.549 103.928 303.387 104.425 303.369H104.385ZM98.8767 302.308C99.1779 301.461 99.6912 300.705 100.368 300.112C101.044 299.519 101.861 299.11 102.74 298.922C102.505 298.388 102.246 297.853 101.987 297.302C101.003 297.507 100.103 298.002 99.4039 298.724C98.7048 299.446 98.2389 300.362 98.0667 301.352C98.3421 301.709 98.6256 302.027 98.9172 302.308H98.8767ZM105.899 316.297C105.972 315.098 105.972 313.907 105.899 312.725C105.107 314.035 103.88 315.027 102.433 315.527C103.587 315.848 104.758 316.104 105.94 316.297H105.899ZM101.299 315.187C101.311 315.111 101.347 315.04 101.4 314.983C101.453 314.927 101.523 314.888 101.598 314.871C102.48 314.663 103.3 314.249 103.991 313.664C104.682 313.078 105.225 312.337 105.575 311.502C105.597 311.445 105.633 311.395 105.68 311.357C105.727 311.318 105.783 311.293 105.843 311.283C105.843 310.902 105.786 310.513 105.745 310.133C105.664 310.162 105.576 310.162 105.494 310.133C104.131 309.73 102.808 309.201 101.542 308.553C101.522 309.679 101.213 310.781 100.646 311.754C100.079 312.727 99.2717 313.538 98.3016 314.11C99.3222 314.515 100.318 314.871 101.339 315.187H101.299ZM97.2486 313.689C97.2875 313.647 97.3343 313.614 97.3863 313.591C98.414 313.101 99.2715 312.315 99.8489 311.333C100.426 310.352 100.697 309.22 100.626 308.083C99.7659 307.598 98.938 307.056 98.1477 306.463C97.9095 307.701 97.3271 308.846 96.4674 309.767C95.6077 310.688 94.5056 311.349 93.2877 311.672C94.5931 312.42 95.9399 313.093 97.3215 313.689H97.2486ZM92.2914 311.08C92.3475 311.008 92.4283 310.959 92.5182 310.943C93.7684 310.732 94.917 310.123 95.7928 309.206C96.6686 308.29 97.2247 307.114 97.3782 305.856C97.0218 305.572 96.6816 305.273 96.3495 304.965C95.2722 307.395 93.8304 309.825 91.0926 310.279C91.53 310.554 91.9512 310.821 92.34 311.08H92.2914ZM90.2421 309.703C90.2758 309.637 90.3265 309.58 90.389 309.539C90.4515 309.497 90.5238 309.473 90.5985 309.469C93.3525 309.242 94.6485 306.585 95.661 304.325C95.3856 304.05 95.1102 303.758 94.851 303.466C94.5811 304.828 93.9227 306.083 92.9554 307.079C91.9881 308.075 90.7532 308.77 89.3997 309.08L90.2421 309.703ZM87.48 303.499C87.3414 304.345 87.3807 305.21 87.5955 306.04C87.8103 306.87 88.1958 307.646 88.7274 308.318C89.2332 308.235 89.7278 308.093 90.2016 307.897C89.5062 306.797 89.039 305.568 88.8275 304.284C88.616 303 88.6646 301.686 88.9704 300.421C88.3554 301.278 87.8135 302.186 87.3504 303.134C87.4104 303.175 87.46 303.229 87.4951 303.292C87.5303 303.356 87.5501 303.426 87.5529 303.499H87.48ZM87.0831 307.225C86.7837 306.517 86.6056 305.764 86.5566 304.997C86.3784 305.427 86.2083 305.856 86.0382 306.301C86.4513 306.617 86.7996 306.917 87.156 307.225H87.0831ZM85.3578 305.605C86.67 302.219 88.2252 299.125 91.1979 296.833C92.8277 295.6 94.6903 294.71 96.6735 294.216C96.5434 293.479 96.5434 292.726 96.6735 291.989C93.6362 292.478 90.7995 293.817 88.4916 295.851C86.1837 297.885 84.499 300.531 83.6325 303.483C83.6026 303.569 83.5493 303.644 83.4786 303.701C84.1752 304.374 84.7908 305.022 85.4307 305.645L85.3578 305.605ZM81.3078 300.866C81.3078 300.866 81.3078 300.915 81.2592 300.939C81.7938 301.636 82.3365 302.324 82.8792 302.98C83.8332 299.869 85.6529 297.094 88.1257 294.978C90.5984 292.862 93.6221 291.494 96.8436 291.033C96.8755 291.025 96.9089 291.025 96.9408 291.033C96.9999 290.868 97.0675 290.705 97.1433 290.547C93.7578 290.405 90.413 291.328 87.5796 293.187C84.7462 295.045 82.5669 297.745 81.3483 300.907L81.3078 300.866ZM96.6978 299.813C96.9003 300.073 97.0947 300.324 97.3053 300.567C97.5941 299.577 98.1395 298.68 98.8863 297.969C99.6332 297.258 100.555 296.757 101.558 296.517C101.218 295.869 100.853 295.221 100.464 294.589C99.8245 294.6 99.186 294.651 98.5527 294.743C97.8688 295.391 97.3495 296.192 97.0381 297.081C96.7267 297.97 96.6323 298.921 96.7626 299.854L96.6978 299.813Z" fill="#263238"/>
<path d="M77.5089 317.69C77.5292 317.648 77.5566 317.61 77.5899 317.577C77.3793 317.172 77.9301 316.67 78.2785 317.058C82.5039 321.816 87.8113 325.488 93.7532 327.764C99.6951 330.041 106.097 330.856 112.42 330.14C112.987 330.075 112.979 330.95 112.42 331.015C112.112 331.015 111.796 331.079 111.48 331.104C111.352 333.157 110.421 335.077 108.888 336.45C108.467 336.83 107.843 336.215 108.265 335.834C109.62 334.643 110.454 332.968 110.589 331.169C109.82 331.217 109.042 331.25 108.273 331.25C107.768 333.706 106.616 335.982 104.936 337.843C104.563 338.264 103.939 337.64 104.32 337.219C105.836 335.53 106.885 333.476 107.366 331.258C106.871 331.258 106.369 331.258 105.875 331.209C105.447 333.891 104.129 336.35 102.133 338.191C101.72 338.58 101.096 337.956 101.509 337.568C103.351 335.876 104.577 333.619 104.992 331.152L104.182 331.088C103.416 333.873 101.972 336.425 99.9783 338.515C99.5895 338.928 98.9658 338.305 99.3546 337.892C101.211 335.947 102.563 333.578 103.291 330.99C102.716 330.926 102.141 330.853 101.574 330.764C101.597 330.843 101.597 330.927 101.574 331.007C100.237 334.085 97.9717 336.667 95.094 338.394C94.608 338.685 94.1706 337.924 94.6485 337.632C97.3539 335.982 99.4817 333.534 100.74 330.626C100.213 330.537 99.6867 330.431 99.1683 330.31C99.1617 330.405 99.1215 330.494 99.0549 330.561C97.5588 332.18 95.7378 333.464 93.7111 334.331C91.6845 335.198 89.4977 335.627 87.2937 335.591C87.1777 335.591 87.0665 335.545 86.9844 335.463C86.9024 335.381 86.8563 335.27 86.8563 335.154C86.8563 335.038 86.9024 334.926 86.9844 334.844C87.0665 334.762 87.1777 334.716 87.2937 334.716C89.3447 334.751 91.3803 334.358 93.2713 333.563C95.1622 332.769 96.8671 331.589 98.2773 330.099C97.4673 329.913 96.7302 329.694 95.9688 329.459C93.0433 332.015 89.3876 333.585 85.5198 333.947C85.5076 334.035 85.4701 334.118 85.4118 334.186C85.3534 334.253 85.2767 334.302 85.1911 334.327C85.1054 334.352 85.0143 334.351 84.9289 334.326C84.8435 334.3 84.7674 334.25 84.7098 334.182C83.6507 332.613 82.9656 330.823 82.7072 328.948C82.4488 327.074 82.6241 325.165 83.2194 323.368C83.2413 323.295 83.2833 323.23 83.3407 323.18C83.398 323.13 83.4683 323.097 83.5435 323.085C83.0332 322.696 82.5309 322.275 82.0368 321.886C81.0096 323.565 80.5057 325.511 80.5894 327.478C80.673 329.444 81.3405 331.341 82.5066 332.926C82.8306 333.396 82.0693 333.833 81.7453 333.372C80.4835 331.628 79.7729 329.547 79.705 327.396C79.6372 325.244 80.2152 323.122 81.3645 321.303C80.8218 320.833 80.2953 320.347 79.7445 319.853C78.9702 321.216 78.4779 322.721 78.297 324.278C78.1161 325.835 78.2503 327.413 78.6915 328.917C78.6928 329.013 78.6627 329.106 78.6057 329.183C78.5487 329.26 78.468 329.316 78.376 329.343C78.284 329.369 78.1859 329.365 78.0965 329.331C78.0072 329.296 77.9317 329.233 77.8815 329.152C77.3967 327.498 77.2573 325.762 77.4719 324.053C77.6865 322.343 78.2505 320.695 79.1289 319.213C78.8211 318.905 78.5214 318.589 78.2217 318.273C77.0248 320.648 76.5169 323.311 76.7556 325.96C76.7556 326.527 75.9456 326.519 75.8727 325.96C75.6259 323.104 76.1932 320.237 77.5089 317.69ZM90.4041 331.865C92.0593 331.196 93.6026 330.278 94.9806 329.144C93.1622 328.526 91.3894 327.782 89.6751 326.916C89.4225 328.602 89.6762 330.324 90.4041 331.865ZM89.5941 332.173C88.7894 330.424 88.527 328.475 88.8408 326.576V326.503C88.1685 326.147 87.5043 325.758 86.8563 325.361C86.3988 327.837 86.6487 330.392 87.5772 332.732C88.2561 332.581 88.9267 332.394 89.586 332.173H89.5941ZM85.1553 333.258C85.1918 333.205 85.2399 333.16 85.296 333.128C85.3521 333.096 85.4148 333.077 85.4793 333.072C85.9005 333.032 86.2893 332.967 86.7429 332.902C85.7822 330.416 85.5408 327.71 86.0463 325.094C86.0592 325.022 86.0898 324.955 86.1354 324.899C85.4388 324.454 84.7422 323.976 84.0699 323.482C84.0778 323.522 84.0778 323.563 84.0699 323.603C83.5298 325.193 83.3463 326.882 83.5325 328.551C83.7187 330.219 84.27 331.827 85.1472 333.258H85.1553Z" fill="#263238"/>
<path d="M96.3171 322.501C103.834 326.001 112.177 325.353 120.204 324.632C120.771 324.583 120.763 325.442 120.204 325.507C111.983 326.252 103.55 326.843 95.904 323.255C95.3613 323.02 95.8068 322.258 96.3171 322.501Z" fill="#263238"/>
<path d="M120.374 317.909L123.711 317.536C124.278 317.48 124.27 318.346 123.711 318.419L120.374 318.792C119.815 318.857 119.815 317.974 120.374 317.909Z" fill="#263238"/>
<path d="M75.2572 304.738C78.3046 311.617 83.9252 317.028 90.9144 319.812C91.4328 320.023 91.2061 320.873 90.6796 320.663C83.4621 317.822 77.646 312.265 74.4796 305.184C74.269 304.665 75.0304 304.22 75.2572 304.738Z" fill="#263238"/>
<path d="M78.0435 300.656C83.2872 307.49 90.126 312.936 97.9614 316.516C98.4717 316.751 98.0262 317.504 97.5159 317.269C89.5387 313.613 82.5841 308.049 77.2659 301.069C76.95 300.648 77.7033 300.21 78.0435 300.656Z" fill="#263238"/>
<path d="M99.4356 317.058C99.5424 317.073 99.6403 317.126 99.7112 317.207C99.7821 317.288 99.8212 317.392 99.8212 317.5C99.8212 317.608 99.7821 317.712 99.7112 317.793C99.6403 317.874 99.5424 317.927 99.4356 317.941C99.3288 317.927 99.2309 317.874 99.16 317.793C99.0891 317.712 99.0501 317.608 99.0501 317.5C99.0501 317.392 99.0891 317.288 99.16 317.207C99.2309 317.126 99.3288 317.073 99.4356 317.058Z" fill="#263238"/>
<path d="M98.6013 320.525C106.175 323.022 114.3 323.334 122.043 321.424C122.155 321.393 122.276 321.408 122.378 321.466C122.48 321.523 122.554 321.619 122.585 321.732C122.617 321.845 122.602 321.965 122.544 322.067C122.486 322.169 122.39 322.244 122.278 322.275C114.381 324.225 106.095 323.913 98.3664 321.376C97.8318 321.197 98.0586 320.355 98.6013 320.525Z" fill="#263238"/>
<path d="M94.1626 321.643C94.2786 321.643 94.3898 321.689 94.4719 321.771C94.5539 321.853 94.6 321.964 94.6 322.08C94.6 322.196 94.5539 322.308 94.4719 322.39C94.3898 322.472 94.2786 322.518 94.1626 322.518C94.0466 322.518 93.9353 322.472 93.8533 322.39C93.7713 322.308 93.7252 322.196 93.7252 322.08C93.7252 321.964 93.7713 321.853 93.8533 321.771C93.9353 321.689 94.0466 321.643 94.1626 321.643Z" fill="#263238"/>
<path d="M74.2366 314.037C74.0804 313.75 73.945 313.452 73.8316 313.146C73.6372 312.611 74.4877 312.385 74.6821 312.911C75.1243 314.131 75.9336 315.183 76.9987 315.924C77.4604 316.248 76.9987 317.01 76.5532 316.686L76.2858 316.483C75.4568 318.274 75.1265 320.255 75.3301 322.218C75.3868 322.777 74.5201 322.769 74.4472 322.218C74.2244 320.044 74.6114 317.85 75.565 315.884C75.2667 315.602 74.9956 315.293 74.755 314.96C74.5202 315.669 74.3733 316.403 74.3176 317.147C74.269 317.706 73.3942 317.714 73.4347 317.147C73.5332 316.074 73.804 315.024 74.2366 314.037Z" fill="#263238"/>
<path d="M114.024 329.945L116.284 329.613C116.356 329.602 116.43 329.608 116.499 329.632C116.569 329.656 116.631 329.697 116.681 329.751C116.829 329.33 117.072 328.948 117.391 328.635C117.709 328.322 118.095 328.086 118.519 327.945C119.062 327.766 119.289 328.617 118.754 328.795C118.387 328.92 118.063 329.147 117.82 329.45C117.577 329.753 117.427 330.118 117.385 330.504C117.329 331.063 116.454 331.063 116.502 330.504L114.242 330.836C113.7 330.877 113.465 330.034 114.024 329.945Z" fill="#263238"/>
<path d="M187.604 290.247C184.607 294.548 177.649 318.889 175.624 320.112C173.599 321.335 165.459 324.583 164.041 326.406C162.624 328.228 161.198 331.079 162.616 331.889C164.033 332.699 187.807 332.1 191.873 331.889C195.939 331.679 213.581 319.91 215.638 316.856C217.696 313.802 243.065 290.045 240.829 283.946C238.594 277.846 199.795 272.776 187.604 290.247Z" fill="#F2E4C9"/>
<path opacity="0.1" d="M187.604 290.247C184.607 294.548 177.649 318.889 175.624 320.112C173.599 321.335 165.459 324.583 164.041 326.406C162.624 328.228 161.198 331.079 162.616 331.889C164.033 332.699 187.807 332.1 191.873 331.889C195.939 331.679 213.581 319.91 215.638 316.856C217.696 313.802 243.065 290.045 240.829 283.946C238.594 277.846 199.795 272.776 187.604 290.247Z" fill="black"/>
<path opacity="0.1" d="M180.581 308.254C186.324 311.024 192.253 313.924 192.253 313.924L204.679 325.328C209.798 321.991 214.618 318.362 215.638 316.856C217.696 313.802 243.073 290.037 240.829 283.937C238.585 277.838 199.795 272.768 187.612 290.239C185.96 292.604 183.133 300.972 180.581 308.254Z" fill="black"/>
<path d="M167.67 328.633C168.221 328.171 168.831 327.784 169.484 327.483C170.168 327.188 170.872 326.942 171.59 326.746C171.601 326.742 171.613 326.741 171.625 326.743C171.636 326.744 171.647 326.749 171.657 326.755C171.666 326.762 171.674 326.771 171.679 326.781C171.684 326.792 171.687 326.803 171.687 326.815C171.687 326.826 171.684 326.838 171.679 326.848C171.674 326.858 171.666 326.867 171.657 326.874C171.647 326.881 171.636 326.885 171.625 326.887C171.613 326.889 171.601 326.887 171.59 326.884C170.292 327.39 169.124 328.182 168.172 329.2C167.208 330.083 166.389 331.11 165.742 332.246C165.677 332.367 165.499 332.246 165.523 332.165C165.84 330.787 166.593 329.548 167.67 328.633Z" fill="#263238"/>
<path d="M164.122 327.394C164.675 326.937 165.285 326.553 165.937 326.252C166.62 325.957 167.324 325.711 168.043 325.515C168.052 325.51 168.063 325.507 168.073 325.507C168.084 325.507 168.094 325.509 168.104 325.513C168.114 325.517 168.123 325.524 168.13 325.532C168.137 325.54 168.142 325.549 168.145 325.559C168.148 325.57 168.149 325.58 168.147 325.591C168.146 325.601 168.142 325.612 168.136 325.62C168.13 325.629 168.122 325.637 168.113 325.642C168.104 325.648 168.094 325.651 168.083 325.652C166.787 326.155 165.621 326.944 164.673 327.961C163.708 328.845 162.888 329.875 162.243 331.015C162.178 331.136 162 331.015 162.024 330.926C162.327 329.554 163.063 328.316 164.122 327.394Z" fill="#263238"/>
<path d="M226.986 303.604C231.15 299.392 235.896 295.796 240.181 291.738C242.709 289.511 244.948 286.978 246.847 284.197C246.904 284.107 247.042 284.197 246.985 284.278C245.462 286.742 243.765 289.094 241.906 291.316C239.968 293.556 237.899 295.679 235.71 297.675C231.474 301.628 226.913 305.289 223.139 309.712C220.975 312.122 219.14 314.807 217.679 317.698C217.679 317.787 217.493 317.698 217.525 317.633C219.51 312.223 222.952 307.678 226.986 303.604Z" fill="#263238"/>
<path d="M206.979 323.652C209.863 322.153 211.904 319.723 214.01 317.318C215.031 316.143 216.019 314.928 217.08 313.794C218.433 312.36 219.826 310.991 221.057 309.452C221.122 309.371 221.251 309.452 221.187 309.542C218.919 312.377 217.193 315.592 214.747 318.298C212.634 320.691 210.002 322.569 207.052 323.789C207.035 323.793 207.017 323.791 207.001 323.784C206.985 323.776 206.972 323.764 206.964 323.748C206.956 323.733 206.953 323.715 206.955 323.697C206.958 323.68 206.967 323.664 206.979 323.652Z" fill="#263238"/>
<path d="M253.376 251.351C249.723 260.204 263.096 284.658 267.802 288.927C272.508 293.196 287.299 303.75 288.319 305.791C289.34 307.832 287.85 320.906 286.627 322.323C285.403 323.741 280.608 324.818 279.288 326.065C278.146 327.151 276.202 329.638 277.725 331.152C279.247 332.667 298.671 331.962 300.502 331.152C302.332 330.342 313.308 303.961 313.308 299.084C313.308 294.208 317.698 250.93 302.332 244.223C286.967 237.516 258.657 238.553 253.376 251.351Z" fill="#F2E4C9"/>
<path opacity="0.1" d="M253.376 251.351C249.723 260.204 263.096 284.658 267.802 288.927C272.508 293.196 287.299 303.75 288.319 305.791C289.34 307.832 287.85 320.906 286.627 322.323C285.403 323.741 280.608 324.818 279.288 326.065C278.146 327.151 276.202 329.638 277.725 331.152C279.247 332.667 298.671 331.962 300.502 331.152C302.332 330.342 313.308 303.961 313.308 299.084C313.308 294.208 317.698 250.93 302.332 244.223C286.967 237.516 258.657 238.553 253.376 251.351Z" fill="black"/>
<path d="M258.827 274.055C259.801 276.091 260.883 278.073 262.067 279.993C262.643 280.924 263.234 281.831 263.849 282.739C264.465 283.646 265.226 284.537 265.947 285.428C267.475 287.187 269.121 288.84 270.872 290.377C271.771 291.235 272.695 292.07 273.569 292.945C274.444 293.819 275.424 294.897 276.437 295.755C276.518 295.82 276.396 295.925 276.323 295.861C275.254 294.953 274.031 294.184 272.897 293.366C271.763 292.548 270.799 291.794 269.762 290.992C267.862 289.612 266.13 288.014 264.603 286.23C261.752 282.641 260.334 278.3 258.722 274.08C258.665 274.039 258.787 273.991 258.827 274.055Z" fill="#263238"/>
<path d="M244.563 249.634C250.671 257.264 254.972 266.215 257.961 275.481C258.374 276.777 258.771 278.081 259.16 279.393C259.548 280.705 259.808 282.196 260.285 283.549C260.285 283.646 260.164 283.686 260.131 283.589C259.726 282.382 259.143 281.248 258.649 280.082C258.155 278.915 257.734 277.846 257.28 276.728C256.357 274.487 255.439 272.241 254.526 269.989C252.712 265.502 250.816 261.031 248.613 256.713C247.353 254.31 245.954 251.981 244.426 249.739C244.369 249.658 244.507 249.553 244.563 249.634Z" fill="#263238"/>
<path d="M282.86 328.633C283.411 328.171 284.021 327.784 284.674 327.483C285.358 327.188 286.062 326.942 286.78 326.746C286.791 326.742 286.803 326.741 286.815 326.743C286.826 326.744 286.837 326.749 286.847 326.755C286.856 326.762 286.864 326.771 286.869 326.781C286.875 326.792 286.877 326.803 286.877 326.815C286.877 326.826 286.875 326.838 286.869 326.848C286.864 326.858 286.856 326.867 286.847 326.874C286.837 326.881 286.826 326.885 286.815 326.887C286.803 326.889 286.791 326.887 286.78 326.884C285.482 327.39 284.314 328.182 283.362 329.2C282.401 330.085 281.582 331.112 280.932 332.246C280.876 332.367 280.689 332.246 280.722 332.165C281.03 330.786 281.781 329.546 282.86 328.633Z" fill="#263238"/>
<path d="M279.304 327.394C279.857 326.937 280.467 326.553 281.119 326.252C281.802 325.957 282.506 325.71 283.225 325.515C283.322 325.515 283.354 325.62 283.265 325.652C281.967 326.155 280.798 326.944 279.847 327.961C278.883 328.847 278.064 329.877 277.417 331.015C277.352 331.136 277.174 331.015 277.198 330.925C277.504 329.553 278.242 328.315 279.304 327.394Z" fill="#263238"/>
<path opacity="0.1" d="M267.802 288.927C272.476 293.22 287.307 303.75 288.319 305.799C289.332 307.849 287.85 320.906 286.627 322.323C285.403 323.741 280.6 324.818 279.288 326.074C278.413 326.884 277.069 328.552 277.174 329.97C281.345 329.338 285.541 328.406 286.983 327.086C293.803 320.841 301.563 314.717 302.827 314.717C303.637 314.717 306.067 314.823 308.278 314.936C310.967 308.165 313.308 301.328 313.308 299.093C313.308 294.233 317.698 250.938 302.332 244.231C286.967 237.524 258.657 238.561 253.376 251.351C249.715 260.204 263.128 284.65 267.802 288.927Z" fill="black"/>
<path d="M169.663 239.76C169.663 239.76 189.248 188.989 197.956 184.777C206.663 180.565 217.534 236.447 212.317 244.677C207.101 252.906 185.717 257.831 184.162 257.531C182.606 257.232 169.039 246.669 169.663 239.76Z" fill="#F2E4C9"/>
<g opacity="0.1">
<path d="M169.663 239.76C169.663 239.76 189.248 188.989 197.956 184.777C206.663 180.565 217.534 236.447 212.317 244.677C207.101 252.906 185.717 257.831 184.162 257.531C182.606 257.232 169.039 246.669 169.663 239.76Z" fill="black"/>
</g>
<path opacity="0.1" d="M184.162 257.58C185.709 257.872 207.093 252.955 212.317 244.725C214.512 241.258 213.856 229.335 211.71 217.039C205.967 216.699 190.31 215.784 189.289 216.229C188.536 216.578 180.249 223.835 173.777 229.578C171.275 235.621 169.663 239.784 169.663 239.784C169.031 246.669 182.606 257.248 184.162 257.58Z" fill="black"/>
<path d="M301.15 206.493C299.295 203.942 303.296 199.535 308.067 199.341C312.838 199.147 322.469 207.951 321.359 209.312C320.25 210.673 304.803 211.531 301.15 206.493Z" fill="#F2E4C9"/>
<path d="M184.769 302.276C189.102 301.628 206.55 328.86 215.46 332.157C224.37 335.453 275.902 331.525 283.702 326.357C291.503 321.189 308.618 297.845 313.195 291.195C317.771 284.545 335.534 273.78 338.58 264.238C341.626 254.696 334.984 227.845 329.864 220.45C324.745 213.054 307.257 201.107 295.731 204.031C284.205 206.955 247.131 236.431 239.104 232.624C231.393 228.963 208.227 214.196 193.379 220.352C178.532 226.508 162.17 245.325 161.595 256.632C161.02 267.94 164.308 276.072 163.393 276.826C162.291 277.757 143.791 284.634 141.102 285.914C138.834 286.983 145.5 297.837 154.353 301.595C161.603 304.69 179.334 303.094 184.769 302.276Z" fill="#F2E4C9"/>
<path d="M304.268 204.193C306.807 204.59 309.292 205.28 311.672 206.25C312.82 206.764 313.94 207.34 315.025 207.976C316.191 208.656 317.236 209.49 318.362 210.211C318.451 210.268 318.362 210.406 318.281 210.349C317.179 209.722 316.04 209.162 314.871 208.672C313.689 208.132 312.493 207.614 311.283 207.117C308.958 206.169 306.633 205.06 304.228 204.322C304.147 204.298 304.187 204.177 304.268 204.193Z" fill="#263238"/>
<path d="M338.58 264.238C335.534 273.78 317.803 284.553 313.227 291.195C308.65 297.837 291.543 321.165 283.743 326.357C275.943 331.549 224.451 335.445 215.5 332.157C206.55 328.868 189.103 301.636 184.769 302.276C179.334 303.086 161.611 304.706 154.329 301.595C145.476 297.829 138.81 287.015 141.078 285.914C143.775 284.634 162.275 277.757 163.369 276.826C164.284 276.016 160.996 267.916 161.571 256.632C161.725 253.522 163.336 249.82 165.532 245.568C168.391 244.296 170.124 248.621 169.671 252.558C169.217 256.495 167.743 259.718 167.573 265.98C167.403 272.241 169.646 280.811 173.34 282.99C181.197 287.68 190.35 277.174 194.878 278.462C199.406 279.75 204.987 284.78 205.092 287.55C205.197 290.32 203.172 295.942 203.318 296.33C203.464 296.719 210.794 305.516 214.01 307.816C217.226 310.117 223.001 311.923 223.001 311.923C220.274 311.851 217.571 311.404 214.966 310.595C215.646 310.943 226.881 318.257 231.555 318.427C236.374 318.605 266.652 320.274 276.267 318.484C285.881 316.694 302.616 283.346 316.71 279.126C330.804 274.906 331.995 260.447 331.792 254.956C331.59 249.464 318.168 237.67 318.856 229.23C319.342 223.228 325.199 221.13 330.196 221.081C335.291 229.23 341.496 254.948 338.58 264.238Z" fill="white"/>
<path d="M338.58 264.238C337.559 267.259 335.534 269.811 333.428 272.152C331.257 274.467 328.961 276.662 326.551 278.729L319.334 284.926C318.144 285.979 316.961 287.04 315.835 288.166C314.69 289.268 313.667 290.49 312.781 291.811C309.126 296.995 305.346 302.081 301.441 307.071C297.562 312.111 293.428 316.95 289.057 321.57C287.947 322.704 286.813 323.806 285.606 324.81C285.007 325.325 284.379 325.806 283.727 326.252C283.063 326.673 282.354 327.018 281.613 327.28C278.61 328.289 275.53 329.053 272.403 329.565C266.166 330.682 259.856 331.42 253.546 331.995C247.236 332.57 240.894 332.967 234.56 333.137C231.393 333.218 228.217 333.242 225.05 333.137C223.43 333.088 221.891 333.007 220.312 332.861C218.746 332.753 217.196 332.481 215.687 332.051C214.235 331.463 212.89 330.642 211.702 329.621C210.469 328.621 209.29 327.555 208.17 326.43C205.934 324.194 203.828 321.821 201.755 319.423C199.681 317.026 197.664 314.563 195.615 312.133C193.566 309.703 191.516 307.273 189.265 305.022C188.705 304.451 188.116 303.91 187.499 303.402C186.887 302.846 186.175 302.412 185.401 302.122C185.178 302.055 184.944 302.033 184.712 302.057L184.129 302.138L182.947 302.292L180.59 302.543C177.439 302.851 174.28 303.061 171.112 303.142C167.951 303.241 164.787 303.157 161.635 302.891C158.501 302.584 155.342 302.081 152.62 300.461C149.877 298.905 147.413 296.901 145.33 294.532C144.303 293.365 143.376 292.113 142.56 290.79C142.144 290.132 141.776 289.444 141.458 288.733C141.123 288.073 140.954 287.342 140.964 286.602C141.021 286.262 141.134 286.213 141.564 286.027L142.657 285.574L144.86 284.691L149.291 282.957L158.136 279.45C159.611 278.859 161.085 278.267 162.543 277.603L163.085 277.344C163.321 277.242 163.531 277.09 163.701 276.898C163.823 276.664 163.879 276.401 163.863 276.137C163.863 275.918 163.863 275.716 163.814 275.513C163.717 274.703 163.555 273.893 163.409 273.14C162.762 270.047 162.302 266.917 162.032 263.768C161.903 262.197 161.843 260.623 161.854 259.046C161.854 258.236 161.854 257.426 161.919 256.681C161.964 255.911 162.077 255.146 162.259 254.397C163.118 251.37 164.325 248.454 165.856 245.705L165.677 245.875C165.9 245.767 166.143 245.704 166.39 245.69C166.638 245.676 166.885 245.712 167.119 245.794C167.59 246.015 167.985 246.37 168.253 246.815C168.834 247.784 169.189 248.873 169.29 249.998C169.413 251.141 169.369 252.295 169.16 253.425C168.974 254.575 168.715 255.725 168.448 256.875C167.215 261.511 166.893 266.341 167.5 271.099C167.831 273.479 168.442 275.812 169.322 278.049C169.768 279.189 170.342 280.276 171.031 281.289C171.388 281.796 171.798 282.263 172.255 282.682C172.723 283.101 173.25 283.45 173.818 283.719C174.938 284.257 176.157 284.557 177.398 284.602C178.621 284.631 179.841 284.478 181.019 284.148C183.307 283.436 185.512 282.48 187.596 281.297C188.641 280.746 189.686 280.187 190.739 279.677C191.748 279.154 192.848 278.83 193.979 278.721C194.252 278.705 194.526 278.735 194.789 278.81C195.064 278.883 195.34 278.972 195.599 279.069C196.139 279.272 196.666 279.508 197.178 279.774C199.249 280.843 201.122 282.257 202.719 283.954C203.522 284.763 204.165 285.716 204.614 286.764C204.7 287.01 204.752 287.266 204.768 287.526C204.788 287.809 204.788 288.093 204.768 288.376C204.715 288.953 204.632 289.526 204.517 290.093C204.298 291.235 203.998 292.378 203.707 293.52L203.237 295.237C203.149 295.542 203.084 295.853 203.043 296.168V296.266C203.039 296.314 203.039 296.363 203.043 296.411L203.124 296.549C203.171 296.625 203.222 296.698 203.278 296.768L203.553 297.124C204.298 298.056 205.068 298.963 205.837 299.862C207.392 301.652 208.98 303.418 210.64 305.119C211.474 305.972 212.35 306.783 213.265 307.549C214.195 308.304 215.202 308.958 216.27 309.501C218.404 310.565 220.617 311.464 222.888 312.19L222.985 311.599C221.628 311.562 220.275 311.435 218.935 311.218C217.603 311.017 216.289 310.708 215.006 310.295L212.576 309.485L214.763 310.821C218.218 313.004 221.793 314.989 225.472 316.767C226.403 317.196 227.351 317.577 228.323 317.941C229.301 318.314 230.326 318.554 231.368 318.654L237.484 318.921C245.641 319.261 253.805 319.537 261.97 319.504C266.02 319.504 270.143 319.399 274.217 318.962C274.728 318.889 275.238 318.832 275.748 318.743C276.268 318.671 276.779 318.543 277.271 318.362C278.235 317.968 279.14 317.442 279.96 316.799C281.577 315.532 283.078 314.125 284.448 312.595C287.218 309.582 289.737 306.358 292.256 303.151C294.775 299.943 297.27 296.719 299.878 293.576C302.443 290.421 305.219 287.444 308.189 284.666C309.69 283.284 311.317 282.045 313.049 280.965C313.914 280.436 314.821 279.981 315.762 279.604C316.694 279.247 317.706 278.996 318.646 278.583C322.5 277.066 325.765 274.352 327.961 270.84C330.096 267.302 331.385 263.318 331.727 259.2C331.833 258.187 331.881 257.159 331.889 256.138C331.903 255.624 331.884 255.11 331.833 254.599C331.763 254.083 331.629 253.577 331.436 253.093C330.601 251.222 329.569 249.446 328.358 247.795C326.033 244.434 323.498 241.202 321.521 237.654C320.469 235.912 319.667 234.031 319.14 232.065C318.578 230.089 318.793 227.972 319.742 226.149C320.691 224.327 322.301 222.937 324.243 222.264C326.153 221.515 328.186 221.13 330.237 221.13H330.188C332 224.368 333.455 227.793 334.53 231.344C335.656 234.892 336.595 238.496 337.381 242.133C338.166 245.769 338.742 249.447 339.106 253.149C339.279 255.002 339.355 256.862 339.333 258.722C339.326 260.586 339.073 262.441 338.58 264.238ZM338.58 264.238C339.077 262.441 339.33 260.586 339.333 258.722C339.364 256.862 339.294 255.002 339.123 253.149C338.771 249.442 338.203 245.758 337.422 242.117C336.612 238.48 335.721 234.827 334.603 231.32C333.549 227.741 332.107 224.289 330.302 221.025C328.247 221.037 326.213 221.426 324.3 222.175C322.356 222.904 320.734 224.299 319.723 226.111C318.801 227.975 318.58 230.108 319.099 232.122C319.6 234.114 320.385 236.024 321.432 237.792C323.449 241.356 325.944 244.604 328.252 247.965C329.457 249.604 330.479 251.369 331.298 253.23C331.487 253.696 331.617 254.183 331.687 254.68C331.732 255.184 331.748 255.689 331.735 256.195C331.735 257.207 331.671 258.228 331.565 259.232C331.227 263.3 329.952 267.234 327.839 270.726C325.668 274.185 322.442 276.854 318.638 278.34C317.698 278.745 316.718 278.98 315.754 279.361C314.794 279.733 313.87 280.192 312.992 280.73C311.257 281.814 309.63 283.062 308.132 284.456C305.116 287.225 302.299 290.202 299.7 293.366C297.084 296.5 294.573 299.724 292.054 302.932C289.534 306.139 286.999 309.339 284.237 312.328C282.882 313.835 281.396 315.22 279.798 316.467C279.007 317.083 278.135 317.587 277.206 317.965C276.247 318.26 275.258 318.45 274.258 318.532C270.208 318.962 266.158 319.018 262.059 319.043C253.903 319.043 245.746 318.767 237.597 318.403L231.49 318.127C230.499 318.025 229.527 317.791 228.598 317.431C227.645 317.094 226.709 316.707 225.796 316.273C222.13 314.484 218.566 312.493 215.12 310.311L214.893 310.846C216.214 311.277 217.569 311.599 218.943 311.809C220.302 312.031 221.674 312.164 223.05 312.206L225.034 312.255L223.147 311.615C218.708 310.1 214.237 308.375 211.126 304.69C209.506 303.005 207.886 301.247 206.364 299.457C205.594 298.558 204.833 297.659 204.104 296.735L203.836 296.395L203.731 296.249V296.201C203.731 296.201 203.731 296.201 203.731 296.241C203.771 295.968 203.828 295.697 203.901 295.431L204.371 293.73C204.687 292.58 204.987 291.43 205.181 290.255C205.294 289.664 205.392 289.073 205.448 288.465C205.469 288.155 205.469 287.844 205.448 287.534C205.435 287.204 205.369 286.879 205.254 286.57C204.783 285.428 204.095 284.388 203.229 283.508C201.578 281.749 199.642 280.281 197.502 279.166C196.963 278.889 196.409 278.643 195.842 278.429C195.55 278.324 195.267 278.227 194.967 278.146C194.649 278.054 194.318 278.013 193.987 278.024C192.754 278.126 191.554 278.47 190.455 279.037C189.362 279.539 188.317 280.098 187.264 280.657C185.227 281.81 183.07 282.739 180.832 283.427C178.644 284.128 176.272 283.986 174.182 283.03C173.165 282.545 172.302 281.788 171.688 280.843C171.035 279.892 170.492 278.87 170.068 277.798C169.219 275.619 168.629 273.349 168.31 271.034C167.701 266.373 168.007 261.638 169.209 257.094C169.468 255.944 169.735 254.777 169.922 253.595C170.141 252.395 170.182 251.17 170.043 249.958C169.927 248.716 169.531 247.517 168.885 246.451C168.532 245.876 168.012 245.424 167.395 245.155C167.07 245.035 166.725 244.982 166.38 244.999C166.035 245.016 165.697 245.102 165.386 245.252L165.264 245.3L165.208 245.414C163.657 248.234 162.436 251.224 161.571 254.324C161.376 255.121 161.26 255.934 161.222 256.754C161.222 257.564 161.166 258.374 161.158 259.184C161.158 260.804 161.222 262.397 161.352 263.963C161.634 267.136 162.104 270.29 162.761 273.407C162.915 274.217 163.069 274.963 163.166 275.724C163.191 275.909 163.205 276.096 163.207 276.283C163.217 276.417 163.2 276.552 163.158 276.68C163.044 276.764 162.922 276.838 162.794 276.898L162.275 277.15C160.842 277.806 159.367 278.397 157.901 278.988L149.04 282.382L144.609 284.124L142.398 285.015L141.296 285.476C141.081 285.561 140.877 285.673 140.689 285.808C140.5 285.999 140.38 286.247 140.349 286.513C140.318 287.356 140.505 288.193 140.891 288.943C141.22 289.68 141.602 290.392 142.033 291.073C144.643 295.137 148.186 298.517 152.369 300.931C153.776 301.721 155.29 302.302 156.865 302.656C158.425 303.009 160.008 303.25 161.603 303.377C164.776 303.643 167.963 303.719 171.145 303.604C174.32 303.512 177.49 303.307 180.654 302.989L183.028 302.721L184.21 302.567L184.801 302.486C184.965 302.471 185.13 302.488 185.287 302.535C185.999 302.812 186.655 303.215 187.223 303.726C187.823 304.22 188.398 304.762 188.957 305.346C191.192 307.581 193.242 310.003 195.299 312.417C197.356 314.831 199.349 317.277 201.463 319.666C203.577 322.056 205.659 324.437 207.943 326.681C209.066 327.822 210.247 328.904 211.483 329.921C212.706 330.972 214.094 331.814 215.59 332.416C217.129 332.849 218.709 333.12 220.304 333.226C221.924 333.372 223.479 333.445 225.067 333.493C228.242 333.582 231.417 333.55 234.592 333.493C240.934 333.307 247.277 332.886 253.595 332.302C259.913 331.719 266.223 330.95 272.468 329.816C275.606 329.293 278.697 328.515 281.71 327.491C282.465 327.224 283.187 326.873 283.864 326.446C284.521 325.993 285.153 325.506 285.76 324.988C286.967 323.951 288.101 322.842 289.21 321.708C293.617 317.123 297.61 312.182 301.531 307.192C305.451 302.203 309.217 297.092 312.871 291.892C313.752 290.576 314.77 289.357 315.908 288.255C317.034 287.137 318.208 286.068 319.399 285.015L326.6 278.794C328.992 276.707 331.268 274.493 333.42 272.16C335.526 269.819 337.543 267.3 338.58 264.238Z" fill="#DBDBDB"/>
<path d="M146.707 292.75C143.354 293.026 138.648 288.384 139.417 286.756C140.187 285.128 153.552 283.322 154.483 284.488C155.415 285.655 150.352 292.459 146.707 292.75Z" fill="#263238"/>
<path d="M170.756 274.128C170.756 273.983 171.096 274.201 171.137 274.355C172.246 278.016 174.126 282.026 177.811 282.123C177.925 282.123 177.973 282.317 177.852 282.342C173.656 283.119 171.21 277.773 170.756 274.128Z" fill="#263238"/>
<path d="M172.716 269.252C178.386 266.822 182.793 278.389 177.528 280.592C172.263 282.795 167.953 271.269 172.716 269.252Z" fill="#263238"/>
<path d="M172.06 252.218C172.06 252.218 178.84 248.791 184.113 257.799L172.06 252.218Z" fill="#263238"/>
<path d="M193.59 231.611C193.59 231.611 227.067 188.681 236.625 187.215C246.183 185.749 240.367 242.336 232.98 248.702C225.593 255.069 203.707 253.562 202.306 252.833C200.904 252.104 190.966 238.035 193.59 231.611Z" fill="#F2E4C9"/>
<path d="M198.936 243.275C196.336 238.569 230.477 193.792 237.306 193.315C244.134 192.837 237.038 241.105 233.531 245.519C230.024 249.934 209.717 253.287 207.838 251.262C202.216 245.187 198.936 243.275 198.936 243.275Z" fill="#F7A9A0"/>
<path d="M189.078 232.47C189.742 231.231 190.753 230.212 191.986 229.538C193.007 228.914 194.084 228.412 195.153 227.918C196.53 226.298 197.923 224.678 199.341 223.106C201.147 221.073 202.978 219.056 204.857 217.08C206.736 215.104 208.68 213.208 210.527 211.183C210.6 211.11 210.705 211.224 210.64 211.305C208.891 213.362 207.271 215.541 205.578 217.639C203.885 219.737 202.281 221.689 200.588 223.641C198.895 225.593 197.105 227.618 195.348 229.595C193.817 231.312 192.245 232.94 191.298 235.078C191.275 235.123 191.238 235.157 191.192 235.177C191.147 235.196 191.095 235.199 191.048 235.185C191.001 235.17 190.96 235.139 190.933 235.098C190.906 235.056 190.894 235.006 190.901 234.957C191.29 232.762 192.691 230.907 194.076 229.238C194.189 229.092 194.311 228.955 194.432 228.809C193.809 229.23 193.185 229.619 192.537 230.008C191.265 230.6 190.154 231.489 189.297 232.6C189.28 232.629 189.252 232.65 189.219 232.658C189.186 232.666 189.152 232.661 189.123 232.644C189.094 232.627 189.073 232.599 189.064 232.566C189.056 232.534 189.061 232.499 189.078 232.47Z" fill="#263238"/>
<path d="M230.923 251.311C233.734 249.553 235.135 246.062 236.066 243.049C236.593 241.315 237.087 239.582 237.565 237.832C238.043 236.083 238.618 234.228 238.958 232.397C238.958 232.308 239.128 232.332 239.112 232.397C238.828 234.317 238.683 236.261 238.359 238.18C238.05 240.128 237.631 242.056 237.103 243.956C236.949 244.482 236.771 245.009 236.577 245.519C236.695 246.493 236.606 247.481 236.317 248.419C235.847 249.71 235.045 250.856 233.993 251.74C233.98 251.747 233.966 251.751 233.951 251.749C233.937 251.747 233.923 251.741 233.913 251.73C233.903 251.72 233.896 251.707 233.895 251.692C233.893 251.678 233.896 251.663 233.904 251.651C234.753 250.636 235.374 249.451 235.726 248.176C235.878 247.678 236.002 247.172 236.099 246.661C235.755 247.421 235.335 248.143 234.843 248.816C233.892 250.087 232.609 251.071 231.133 251.659C231.089 251.672 231.041 251.67 230.998 251.653C230.955 251.636 230.918 251.605 230.894 251.566C230.87 251.526 230.86 251.479 230.865 251.433C230.87 251.387 230.891 251.344 230.923 251.311Z" fill="#263238"/>
<path d="M219.615 299.7C216.618 304.001 209.66 328.35 207.635 329.565C205.61 330.78 197.478 334.036 196.052 335.867C194.627 337.697 193.209 340.54 194.627 341.35C196.044 342.16 219.818 341.553 223.884 341.35C227.95 341.148 245.592 329.362 247.649 326.317C249.707 323.271 275.076 299.498 272.84 293.406C270.605 287.315 231.806 282.204 219.615 299.7Z" fill="#F2E4C9"/>
<path d="M199.689 338.062C200.241 337.602 200.851 337.218 201.504 336.919C202.185 336.617 202.889 336.371 203.61 336.182C203.707 336.182 203.739 336.288 203.61 336.32C202.311 336.823 201.143 337.612 200.191 338.629C199.228 339.514 198.408 340.545 197.761 341.682C197.697 341.796 197.518 341.682 197.543 341.593C197.859 340.215 198.612 338.977 199.689 338.062Z" fill="#263238"/>
<path d="M196.133 336.83C196.686 336.371 197.296 335.984 197.948 335.68C198.632 335.385 199.335 335.139 200.054 334.943C200.063 334.938 200.074 334.936 200.084 334.935C200.095 334.935 200.106 334.937 200.115 334.941C200.125 334.946 200.134 334.952 200.141 334.96C200.148 334.968 200.153 334.978 200.156 334.988C200.159 334.998 200.16 335.009 200.158 335.019C200.157 335.03 200.153 335.04 200.147 335.049C200.141 335.058 200.133 335.065 200.124 335.071C200.115 335.076 200.105 335.08 200.094 335.081C198.799 335.59 197.634 336.381 196.684 337.397C195.721 338.28 194.901 339.308 194.254 340.443C194.189 340.564 194.011 340.443 194.035 340.362C194.339 338.991 195.074 337.753 196.133 336.83Z" fill="#263238"/>
<path d="M258.997 313.033C263.161 308.821 267.907 305.224 272.192 301.174C274.72 298.943 276.962 296.407 278.867 293.625C278.915 293.544 279.053 293.625 278.996 293.714C277.473 296.176 275.776 298.525 273.918 300.745C271.978 302.987 269.906 305.11 267.713 307.103C263.477 311.04 258.916 314.726 255.15 319.14C252.987 321.55 251.151 324.236 249.69 327.127C249.65 327.216 249.504 327.127 249.545 327.062C251.554 321.659 254.964 317.107 258.997 313.033Z" fill="#263238"/>
<path d="M210.705 320.881C211.434 318.516 212.196 316.162 212.989 313.818C214.52 309.258 216.351 304.811 217.793 300.226C218.66 297.642 219.233 294.969 219.502 292.256C219.502 292.151 219.68 292.151 219.672 292.256C219.467 296.973 218.58 301.636 217.039 306.099C215.511 310.808 213.832 315.465 212.001 320.071C210.94 322.736 209.782 325.369 208.761 328.042C208.721 328.139 208.575 328.099 208.607 328.001C209.336 325.62 209.976 323.247 210.705 320.881Z" fill="#263238"/>
<path d="M217.841 290.944C217.76 289.324 217.606 287.704 217.372 286.133C217.371 286.112 217.377 286.092 217.39 286.075C217.402 286.059 217.42 286.047 217.44 286.042C217.46 286.038 217.481 286.04 217.5 286.049C217.518 286.058 217.533 286.073 217.542 286.092C218.501 289.199 218.657 292.499 217.995 295.682C217.989 295.706 217.974 295.728 217.955 295.743C217.935 295.758 217.911 295.766 217.886 295.766C217.861 295.766 217.837 295.758 217.817 295.743C217.797 295.728 217.783 295.706 217.777 295.682C217.841 294.079 217.89 292.523 217.841 290.944Z" fill="#263238"/>
<path d="M238.95 333.088C241.834 331.582 243.875 329.152 245.981 326.746C247.001 325.571 247.99 324.364 249.059 323.23C250.403 321.789 251.797 320.42 253.028 318.881C253.093 318.8 253.222 318.881 253.157 318.97C250.889 321.805 249.164 325.029 246.677 327.734C244.564 330.125 241.932 332 238.982 333.218C238.95 333.258 238.909 333.129 238.95 333.088Z" fill="#263238"/>
<path d="M279.774 261.031C276.121 269.892 289.494 294.338 294.2 298.606C298.906 302.875 313.697 313.47 314.717 315.479C315.738 317.488 314.248 330.585 313.024 332.011C311.801 333.436 306.998 334.498 305.686 335.753C304.544 336.83 302.6 339.317 304.123 340.84C305.645 342.363 325.069 341.65 326.9 340.84C328.73 340.03 339.706 313.64 339.706 308.764C339.706 303.888 344.096 260.609 328.73 253.911C313.365 247.212 285.055 248.233 279.774 261.031Z" fill="#F2E4C9"/>
<path d="M285.225 283.743C286.201 285.777 287.282 287.759 288.465 289.68C289.04 290.604 289.632 291.519 290.247 292.426C290.863 293.333 291.624 294.224 292.337 295.115C293.872 296.871 295.52 298.524 297.27 300.065C298.161 300.915 299.092 301.749 299.967 302.624C300.842 303.499 301.822 304.576 302.835 305.435C302.916 305.5 302.835 305.605 302.721 305.54C301.652 304.641 300.429 303.872 299.295 303.045C298.161 302.219 297.197 301.474 296.16 300.672C294.258 299.294 292.526 297.695 291.001 295.909C288.149 292.321 286.732 287.979 285.12 283.759C285.063 283.719 285.185 283.67 285.225 283.743Z" fill="#263238"/>
<path d="M270.961 259.321C277.069 266.952 281.37 275.902 284.35 285.169C284.772 286.465 285.16 287.761 285.557 289.073C285.954 290.385 286.205 291.875 286.683 293.236C286.683 293.333 286.562 293.374 286.529 293.277C286.124 292.062 285.541 290.928 285.047 289.761C284.553 288.595 284.132 287.526 283.67 286.408L280.924 279.677C279.11 275.181 277.214 270.71 275.003 266.393C273.748 263.988 272.352 261.659 270.823 259.419C270.767 259.338 270.896 259.24 270.961 259.321Z" fill="#263238"/>
<path d="M309.258 338.313C309.808 337.851 310.418 337.467 311.072 337.171C311.752 336.866 312.457 336.619 313.178 336.433C313.276 336.433 313.308 336.539 313.178 336.571C311.882 337.074 310.716 337.863 309.768 338.88C308.803 339.764 307.983 340.794 307.338 341.933C307.282 342.047 307.095 341.933 307.12 341.844C307.432 340.467 308.182 339.228 309.258 338.313Z" fill="#263238"/>
<path d="M305.702 337.082C306.253 336.619 306.863 336.232 307.516 335.931C308.2 335.636 308.904 335.39 309.622 335.194C309.72 335.194 309.752 335.3 309.622 335.332C308.324 335.838 307.156 336.63 306.204 337.649C305.24 338.531 304.421 339.558 303.774 340.694C303.709 340.816 303.531 340.694 303.556 340.613C303.872 339.235 304.625 337.997 305.702 337.082Z" fill="#263238"/>
</svg>
